<svg width="77" height="77" viewBox="0 0 77 77" fill="none" xmlns="http://www.w3.org/2000/svg">
<path fill-rule="evenodd" clip-rule="evenodd" d="M37.94 0.380086C58.78 1.22009 73.66 14.8101 76.35 32.6501C76.35 32.9201 73.2601 31.6501 68.6501 33.7201C70.3101 33.7201 76.54 34.0201 76.57 34.3001C76.751 36.0439 76.8212 37.7974 76.7801 39.5501C76.2501 60.6701 60.68 76.2901 37.94 76.2901C15.85 76.2901 1.52005 61.0301 0.120045 40.6701C0.120045 40.3901 4.68008 39.4601 5.53008 39.1801C4.31008 39.2501 0.81007 39.0001 0.0200698 38.1801C-0.146393 31.13 1.57281 24.1633 5.00005 18.0001C5.19005 17.6701 9.5 16.3001 11.2 15.8201C6.92 16.2901 5.97 16.3901 6.2 16.0901C12.64 6.24009 23.77 -0.179914 37.94 0.390086V0.380086Z" fill="url(#paint0_linear_53_15)"/>
<path fill-rule="evenodd" clip-rule="evenodd" d="M38 0.819935C58.46 1.62993 72.9999 14.9399 75.3199 32.2999C73.2299 32.0799 70.5999 32.6199 67.2199 34.0299C70.0026 33.9802 72.7856 34.1171 75.55 34.4399C75.64 35.6799 75.67 36.9399 75.64 38.2099C75.12 58.3699 58.29 73.2799 38 73.2799C28.9491 73.4068 20.179 70.1381 13.4189 64.1185C6.65882 58.0988 2.39924 49.7649 1.47995 40.7599C3.87995 40.0466 6.26999 39.3199 8.64999 38.5799C6.93999 38.8899 2.64998 38.7699 1.26998 38.0099C1.26998 37.8599 1.26998 37.7199 1.26998 37.5699C1.01103 30.843 2.56527 24.1701 5.76998 18.2499C7.76998 17.4999 10.91 16.3599 14.11 15.2499C11.7699 15.4899 9.37001 15.8099 7.05001 16.1199C13.26 6.53993 24.13 0.279935 38.05 0.829935L38 0.819935Z" fill="url(#paint1_radial_53_15)"/>
<path style="mix-blend-mode:multiply" opacity="0.6" fill-rule="evenodd" clip-rule="evenodd" d="M1.53003 31.1101C4.46003 30.3701 7.53003 29.4201 10.78 28.2401C15.6399 26.3759 20.6611 24.9633 25.78 24.0201C39.91 21.5301 50.46 17.0201 65.67 16.6001C66.79 16.6001 67.93 16.6001 69.08 16.6001C68.53 15.8401 67.96 15.1001 67.35 14.3801C63.8912 14.1292 60.4188 14.1292 56.96 14.3801C42.96 15.6201 26.56 19.2901 11.59 21.6801C8.95997 22.1001 6.23996 22.5901 3.45996 23.1001C2.50416 25.686 1.83352 28.3686 1.45996 31.1001L1.53003 31.1101Z" fill="url(#paint2_radial_53_15)"/>
<path style="mix-blend-mode:multiply" opacity="0.6" fill-rule="evenodd" clip-rule="evenodd" d="M24.24 43.6001C19.5951 45.2413 15.0535 47.1615 10.64 49.3501C8.58395 50.3212 6.70465 51.6292 5.07996 53.2201C6.36652 55.8217 7.96131 58.2592 9.82996 60.4801C10.89 60.9901 12.07 61.4801 13.35 62.0801C16.93 63.6301 20.68 65.1501 24.05 66.8201C27.5186 68.6384 30.8358 70.7318 33.97 73.0801C35.28 73.2101 36.61 73.2801 37.97 73.2801C40.0693 73.2828 42.1656 73.1223 44.24 72.8001C41.97 71.1101 39.59 69.2801 36.9 67.3601C32.46 64.1801 26.51 59.9201 24.52 57.8001C24.0199 57.2698 23.6322 56.6439 23.38 55.9601C23.1188 55.2987 22.9963 54.5907 23.02 53.8801C23.0604 53.2049 23.2373 52.5449 23.54 51.9401C23.8672 51.2811 24.2994 50.6799 24.8199 50.1601C27.0299 47.9301 31.39 45.5301 36.3 43.3101C42.7616 40.4629 49.3945 38.0215 56.16 36.0001C59.7274 34.8789 63.4247 34.2235 67.16 34.0501C70.54 32.6401 73.16 32.0501 75.26 32.3201C75.0787 30.9389 74.8148 29.5698 74.47 28.2201C71.1457 27.819 67.7827 27.8627 64.47 28.3501C53.36 30.2801 35.87 39.1601 24.2 43.6201L24.24 43.6001Z" fill="url(#paint3_radial_53_15)"/>
<g style="mix-blend-mode:multiply" opacity="0.5">
<path d="M73.21 50.1698C72.91 50.1698 72.6101 50.1698 72.3101 50.1698C71.4099 50.2016 70.5137 50.3052 69.63 50.4798C69.0337 50.6051 68.4581 50.8138 67.92 51.0998C67.4007 51.3739 66.9055 51.6917 66.4399 52.0498C65.929 52.4291 65.4507 52.8506 65.01 53.3098C64.6067 53.7364 64.2512 54.2058 63.95 54.7098C63.6451 55.2065 63.3905 55.7325 63.1899 56.2798C62.9805 56.8598 62.8789 57.4732 62.89 58.0898C62.904 58.691 63.0295 59.2843 63.26 59.8398C63.4843 60.3668 63.8264 60.8355 64.26 61.2098C64.6429 61.5334 65.0546 61.8213 65.49 62.0698C65.8567 61.6898 66.2166 61.3098 66.5699 60.9298C65.9258 60.6655 65.3256 60.3047 64.79 59.8598C64.2959 59.3654 64.0126 58.6987 64 57.9998C64.0393 57.1427 64.3126 56.3127 64.79 55.5998C65.4873 54.4802 66.4626 53.5602 67.621 52.9293C68.7793 52.2984 70.0812 51.9782 71.4 51.9998C71.72 51.9998 72.07 51.9998 72.4 51.9998C72.68 51.3931 72.9401 50.7731 73.1801 50.1398L73.21 50.1698ZM75.4301 40.8998H74.8199C65.6523 40.9165 56.704 43.7052 49.15 48.8998C46.15 50.8998 44.75 52.7298 44.49 54.5098C44.3391 55.5018 44.4215 56.5153 44.7305 57.47C45.0394 58.4247 45.5666 59.2942 46.27 60.0098C49.0803 63.3689 52.2007 66.4559 55.59 69.2298C54.72 69.6698 53.82 70.0698 52.9 70.4398C49.5226 67.5702 46.3916 64.4225 43.54 61.0298C41.42 58.5798 40.32 56.2898 40.66 53.9398C41.28 49.7198 50.12 45.1598 54.88 43.2698C63.21 39.9698 69.3599 38.7298 75.5699 38.9198C75.5699 39.5998 75.5001 40.2698 75.4301 40.9198V40.8998ZM75.58 35.6698C63.48 34.8898 54.48 36.9898 37.58 44.5898C33.8695 46.2045 30.4635 48.4436 27.51 51.2098C27.0932 51.5658 26.754 52.0037 26.5135 52.4963C26.2731 52.9889 26.1363 53.5257 26.1119 54.0733C26.0876 54.6209 26.1761 55.1677 26.3718 55.6798C26.5676 56.1918 26.8665 56.6581 27.25 57.0498C30.6967 60.2906 34.373 63.2784 38.25 65.9898C41.49 68.3098 43.9899 70.4498 46.4399 72.3898C45.7099 72.5398 44.97 72.6798 44.22 72.7998C41.95 71.1098 39.57 69.2798 36.88 67.3598C32.44 64.1798 26.49 59.9198 24.5 57.7998C23.9999 57.2695 23.6122 56.6436 23.36 55.9598C23.0988 55.2984 22.9762 54.5904 23 53.8798C23.0403 53.2046 23.2173 52.5446 23.52 51.9398C23.8471 51.2808 24.2795 50.6796 24.8 50.1598C27.01 47.9298 31.37 45.5298 36.28 43.3098C42.7481 40.4618 49.3877 38.0204 56.16 35.9998C64.16 33.6798 68.38 33.7598 75.51 34.4598C75.51 34.8698 75.51 35.2798 75.58 35.6898V35.6698ZM74.49 28.1998C71.1657 27.7987 67.8027 27.8424 64.49 28.3298C53.38 30.2598 35.9 39.1398 24.22 43.5998C19.5751 45.241 15.0335 47.1612 10.62 49.3498C8.56091 50.3199 6.68106 51.6318 5.06006 53.2298C4.62006 52.3298 4.20997 51.4198 3.83997 50.4798C9.23997 46.8098 18.62 43.3498 22.73 41.7798C27.82 39.7798 32.84 37.7798 37.89 35.7798C45.89 32.5698 55.84 27.9598 64.36 27.1598C67.6396 26.9008 70.9356 26.931 74.21 27.2498C74.3 27.5698 74.39 27.8898 74.47 28.2498L74.49 28.1998ZM9.82996 60.4698C10.89 60.9898 12.07 61.4698 13.35 62.0798C16.93 63.6298 20.68 65.1498 24.05 66.8198C27.5208 68.6344 30.8383 70.7279 33.97 73.0798C31.8261 72.8623 29.705 72.4608 27.63 71.8798C25.76 70.8798 23.85 69.8798 21.83 68.8798C19.81 67.8798 17.83 67.0098 15.83 66.1198C13.6225 64.4848 11.6094 62.6026 9.82996 60.5098V60.4698ZM72.5699 22.6398C68.3394 22.5105 64.1074 22.8458 59.95 23.6398C51.47 25.2398 45.07 28.0798 35.78 31.4098C24.53 35.4098 13.17 39.2598 1.69995 42.6498C1.59995 42.0398 1.50994 41.4198 1.43994 40.7998C13.1199 37.3398 24.69 33.4398 36.14 29.3398C45.87 25.8498 52.73 23.5098 59.74 22.4098C63.8375 21.7756 67.9883 21.5545 72.13 21.7498C72.28 22.0598 72.4299 22.3698 72.5699 22.6798V22.6398ZM1.56995 31.1098C4.49995 30.3698 7.56995 29.4198 10.8199 28.2398C15.6798 26.3756 20.701 24.963 25.8199 24.0198C39.9499 21.5298 50.5 17.0198 65.71 16.5998C66.83 16.5998 67.97 16.5998 69.12 16.5998C69.44 17.0598 69.7601 17.5298 70.0601 17.9998C68.6001 17.9298 67.16 17.9098 65.75 17.9998C57.1 18.2498 48.85 20.5198 40.55 22.8098C35.67 24.1498 31.01 25.4198 26.03 26.2998C20.9768 27.2318 16.0194 28.6243 11.22 30.4598C7.98047 31.6433 4.67089 32.6252 1.31006 33.3998C1.37006 32.6498 1.44004 31.9098 1.54004 31.1698L1.56995 31.1098ZM4.56995 20.5998C6.77995 20.1298 9.06997 19.6898 11.47 19.3098C26.47 16.9098 42.8601 14.3098 56.9301 13.0598C59.9631 12.8087 63.008 12.7286 66.05 12.8198C66.5201 13.3198 66.98 13.8198 67.42 14.3598C63.9613 14.1089 60.4888 14.1089 57.03 14.3598C43.03 15.5998 26.63 19.2698 11.66 21.6598C9.03003 22.0798 6.31003 22.5698 3.53003 23.0798C3.85003 22.2298 4.19003 21.3898 4.53003 20.5698L4.56995 20.5998ZM8.40002 14.1498C12.32 13.6198 16.21 13.1998 19.98 13.0598C24.79 12.8898 29.61 12.5698 34.42 11.9598C37.8 11.5298 40.69 11.1198 43.36 10.7398C49.4258 9.73678 55.5538 9.15539 61.7 8.99977C62.1399 9.32977 62.57 9.67977 63 9.99977C48.74 9.99977 36.52 14.6198 20 14.8498C15.6464 15.025 11.3062 15.4457 7 16.1098C7.43 15.4398 7.89 14.7898 8.37 14.1098L8.40002 14.1498ZM12.52 9.61977C21.9288 9.61753 31.3256 8.94919 40.64 7.61977C46.02 6.90977 51.45 6.19977 56.88 5.84977C57.73 6.30977 58.55 6.78976 59.35 7.30976C53.15 7.52976 46.93 8.12977 40.8 8.93977C30.03 10.3698 21.17 11.9398 10.4 11.7698C11.07 11.0298 11.78 10.3298 12.52 9.64977V9.61977ZM19.3 4.83977C24.68 4.53977 30.21 3.98977 35.95 3.10977C39.18 2.61977 42.42 2.10977 45.66 1.75977C46.94 2.01977 48.19 2.33976 49.41 2.70976C39.47 3.75976 29.58 5.59976 19.65 6.45976C18.5 6.55976 17.35 6.63976 16.2 6.70976C17.1984 6.03033 18.2334 5.40606 19.3 4.83977ZM60.64 66.2098C58.9001 65.1544 57.3262 63.8469 55.97 62.3298C54.15 60.2298 53.27 58.0298 53.67 56.2098C53.7203 55.9807 53.7905 55.7565 53.88 55.5398C55.0987 53.2205 56.9014 51.2592 59.11 49.8498C63.6296 46.5363 69.1663 44.9089 74.76 45.2498C74.69 45.5698 74.61 45.8898 74.53 46.2498H74.36C72.0827 46.1165 69.7986 46.3392 67.59 46.9098C64.8728 47.828 62.3377 49.2157 60.1 51.0098C56.1 54.0098 53.67 56.8798 57.39 61.4898C58.6595 63.0134 60.1653 64.3234 61.85 65.3698C61.45 65.6798 61.05 65.9798 60.64 66.2698V66.2098Z" fill="#B7805C"/>
</g>
<path style="mix-blend-mode:screen" fill-rule="evenodd" clip-rule="evenodd" d="M25.1401 4.10016C25.0489 4.03115 24.9835 3.93348 24.9545 3.82285C24.9255 3.71222 24.9344 3.59505 24.98 3.49016C25.29 2.79016 27.24 2.04016 29.23 1.41016C25.7418 2.03861 22.3697 3.19523 19.23 4.84016C21.46 4.72016 23.7101 4.55016 26.0001 4.33016C25.6915 4.31057 25.3895 4.23252 25.11 4.10016H25.1401ZM23.3001 6.10016C22.0668 6.23349 20.8367 6.35349 19.61 6.46016C18.46 6.56016 17.3101 6.64016 16.1601 6.71016C14.8653 7.59077 13.6354 8.56327 12.48 9.62016C15.93 9.62016 19.21 9.55016 22.48 9.37016C21.72 9.30016 20.97 9.23016 20.22 9.14016C16.63 8.69016 20.5101 6.89016 21.7901 6.50016C22.3001 6.35016 22.79 6.22016 23.33 6.10016H23.3001ZM20.74 11.3702C17.4 11.6402 13.99 11.7802 10.36 11.7402C9.66005 12.5102 8.99005 13.3102 8.36004 14.1502C12.28 13.6202 16.17 13.2002 19.94 13.0602H21.0001C20.5001 13.0102 20.0001 12.9502 19.5001 12.8602C18.5001 12.6602 19.1401 11.8602 19.8801 11.6402C20.1701 11.5502 20.45 11.4802 20.74 11.4102V11.3702ZM14.0501 15.2402C10.8501 16.3602 7.68002 17.5002 5.71002 18.2402C5.29002 19.0102 4.89009 19.7902 4.53009 20.5902C6.74009 20.1202 9.03011 19.6802 11.4301 19.3002L12.2501 19.1702C10.9801 18.8102 9.59008 18.1702 10.9001 17.1702C13.2301 15.4402 16.7501 15.0802 19.7601 14.8102C17.9501 14.8102 16.0201 14.9902 14.0501 15.1902V15.2402ZM11.0501 21.7702C8.59011 22.1702 6.05004 22.6302 3.48004 23.1102C2.51975 25.6947 1.84898 28.3778 1.48004 31.1102C4.41004 30.3702 7.48004 29.4202 10.73 28.2402L12.0301 27.7702C9.49009 28.2702 6.43004 28.7102 5.73004 27.9902C4.39004 26.6002 5.98009 23.5102 7.66009 22.8502C8.76009 22.4302 9.88008 22.0902 11.0201 21.7702H11.0501ZM9.26007 31.0802C6.63498 31.9736 3.9646 32.7279 1.26007 33.3402C1.16007 34.7268 1.1301 36.1368 1.1701 37.5702C1.1701 37.7202 1.1701 37.8602 1.1701 38.0102C2.5801 38.7702 6.84011 38.8902 8.55011 38.5802L11.19 37.7502C8.19 38.0702 3.34004 38.3802 2.85004 36.6302C2.36004 34.8802 5.85003 32.7602 9.22003 31.0802H9.26007ZM9.50006 40.2302C6.90006 41.0402 4.29011 41.8402 1.68011 42.6102C2.10899 45.3048 2.83327 47.9441 3.84003 50.4802C6.21665 48.9511 8.71128 47.6135 11.3001 46.4802C10.1082 46.8756 8.85508 47.0551 7.60004 47.0102C5.60004 46.8702 4.60005 44.4002 5.99005 42.5802C6.97186 41.5565 8.17153 40.767 9.50006 40.2702V40.2302ZM10.6201 49.3502C8.56399 50.3213 6.68482 51.6293 5.06012 53.2202C6.34668 55.8218 7.94147 58.2593 9.81012 60.4802C10.8701 60.9902 12.05 61.4802 13.33 62.0802C15.42 62.9802 17.5501 63.8702 19.6501 64.7902C17.1101 63.3702 13.8601 61.5402 12.6501 60.4302C10.6501 58.5302 7.96 54.0402 9.44 51.2502C10.0036 50.3226 10.7284 49.5031 11.58 48.8302L10.58 49.3502H10.6201Z" fill="url(#paint4_radial_53_15)"/>
<path style="mix-blend-mode:screen" fill-rule="evenodd" clip-rule="evenodd" d="M4.43005 53.7798C12.0701 68.0098 21.81 72.6398 38.54 74.2698C23.69 77.3298 9.41005 68.3798 4.43005 53.7798Z" fill="url(#paint5_radial_53_15)"/>
<g style="mix-blend-mode:screen" opacity="0.65">
<path fill-rule="evenodd" clip-rule="evenodd" d="M8 16.0002C14.34 7.23017 24.81 1.61017 38 2.13017C40.6911 2.22533 43.3683 2.55999 46 3.13017C47.22 3.76017 48.7 4.56017 49.11 4.69017C50.47 5.09017 52.92 5.23017 54.64 6.02017C61.2129 8.9574 66.7472 13.8086 70.52 19.9402C70.5925 20.0379 70.6426 20.1504 70.6667 20.2696C70.6909 20.3888 70.6887 20.5119 70.66 20.6302C70.57 20.8302 70.3 20.8502 70.09 20.8902C69.7576 20.9258 69.4223 20.9258 69.09 20.8902C67.6459 20.7186 66.194 20.6218 64.74 20.6002C62.4729 20.6257 60.2144 20.8838 58 21.3702C52.2 22.7702 44 26.1002 37.45 28.8402C46.45 25.6002 53.06 23.4202 59.76 22.3702C63.6394 21.7701 67.5673 21.5424 71.49 21.6902C73.2561 25.0026 74.4752 28.5787 75.1 32.2802H75.3C73 14.9402 58.42 1.63017 38 0.82017C24.11 0.270169 13.24 6.53017 7 16.1102L8 15.9802V16.0002Z" fill="#CA9E67"/>
</g>
<g style="mix-blend-mode:screen" opacity="0.5">
<path fill-rule="evenodd" clip-rule="evenodd" d="M43.52 32.7398C35.61 36.1098 27.58 39.3898 19.73 42.9298L22.73 41.7798C27.82 39.7798 32.84 37.7798 37.89 35.7798C42.56 33.9098 47.8901 31.5698 53.1801 29.7798C49.8311 30.3311 46.5738 31.3405 43.5 32.7798L43.52 32.7398Z" fill="#CA9E67"/>
</g>
<g style="mix-blend-mode:screen" opacity="0.5">
<path fill-rule="evenodd" clip-rule="evenodd" d="M36.29 43.3101C42.7549 40.4625 49.3911 38.0211 56.16 36.0001C57.77 35.5301 59.23 35.1601 60.59 34.8701C53.761 35.891 47.101 37.8284 40.79 40.6301C37.0965 42.1246 33.4936 43.8342 30 45.7501C26.47 47.7501 24.26 49.6201 23.46 52.0201C23.46 52.0201 23.46 52.0201 23.46 51.9401C23.7871 51.2812 24.2194 50.68 24.74 50.1601C26.95 47.9301 31.31 45.5301 36.22 43.3101H36.29Z" fill="#CA9E67"/>
</g>
<g style="mix-blend-mode:screen" opacity="0.5">
<path fill-rule="evenodd" clip-rule="evenodd" d="M28.27 22.9098C24.8363 23.5717 21.4667 24.532 18.2 25.7798C20.7024 25.0539 23.243 24.4664 25.8101 24.0198C37.1601 22.0198 46.2 18.7298 57.21 17.2798C52.058 17.4393 46.9471 18.2525 42 19.6998C40.1 20.2198 38.26 20.9898 36.34 21.4398C33.7 22.0598 30.98 22.3698 28.34 22.9098H28.27Z" fill="#CA9E67"/>
</g>
<g style="mix-blend-mode:screen" opacity="0.65">
<path fill-rule="evenodd" clip-rule="evenodd" d="M65.1801 53.8201C62.2843 58.3371 58.295 62.0499 53.582 64.6143C48.8691 67.1787 43.585 68.5117 38.2196 68.4898C32.8542 68.4678 27.5811 67.0916 22.8893 64.4888C18.1974 61.8859 14.2387 58.1406 11.38 53.6001C16.65 63.3401 25.46 69.1401 38.52 69.4301C49.83 69.6801 59.2901 64.0201 65.1801 53.8201Z" fill="#CA9E67"/>
</g>
<g style="mix-blend-mode:screen" opacity="0.65">
<path fill-rule="evenodd" clip-rule="evenodd" d="M17.9 18.2798L21.58 17.6998C20.36 17.5598 19.91 17.4498 20.51 16.6498C21.0361 15.9623 21.6402 15.3381 22.3101 14.7898C23.2275 14.0355 24.2115 13.3661 25.25 12.7898C27.1512 11.7559 29.1386 10.8893 31.1899 10.1998C31.9599 9.93977 32.72 9.70977 33.45 9.50977C30.3038 10.0863 27.2843 11.2136 24.53 12.8398C22.0538 14.2978 19.8174 16.1294 17.9 18.2698V18.2798ZM13.75 24.6198C15.2 22.1298 15.64 21.4198 17.5 20.6998L15.73 21.0098C14.6427 22.5784 13.7179 24.2537 12.97 26.0098L13.75 24.6698V24.6198Z" fill="#CA9E67"/>
</g>
<path opacity="0.75" fill-rule="evenodd" clip-rule="evenodd" d="M10.6899 37.0001C10.6899 33.3612 11.4068 29.7579 12.7993 26.396C14.1919 23.034 16.2329 19.9793 18.806 17.4062C21.3791 14.8331 24.434 12.792 27.7959 11.3994C31.1578 10.0069 34.7611 9.29013 38.4 9.29013C42.039 9.29013 45.6422 10.0069 49.0042 11.3994C52.3661 12.792 55.4208 14.8331 57.9939 17.4062C60.567 19.9793 62.6082 23.034 64.0007 26.396C65.3933 29.7579 66.11 33.3612 66.11 37.0001C66.11 52.3001 54.48 64.4501 38.4 64.7101C22.32 64.9701 10.6899 52.3401 10.6899 37.0001ZM70 33.0001C68.26 17.4801 54.58 5.79013 38.4 5.26013C20.85 4.68013 6.63 19.4901 6.63 37.0401C6.63 37.6101 6.63 38.1701 6.63 38.7301C7.27963 38.7317 7.92829 38.6816 8.56995 38.5801L6.66003 39.1701C7.16513 47.4381 10.8774 55.1823 17.0066 60.7543C23.1358 66.3263 31.1977 69.2859 39.4762 69.0031C47.7547 68.7203 55.5959 65.2174 61.3306 59.2401C67.0652 53.2628 70.2404 45.2833 70.1801 37.0001C70.2006 35.9993 70.1705 34.998 70.09 34.0001C69.09 34.0001 68.1401 34.0001 67.1801 34.0001C68.1801 33.5801 69.12 33.2401 70 33.0001Z" fill="url(#paint6_linear_53_15)"/>
<g style="mix-blend-mode:multiply" opacity="0.5">
<path fill-rule="evenodd" clip-rule="evenodd" d="M6.64001 37.9001C7.10001 20.7301 21.14 6.42013 38.4 6.99013C54 7.50013 67.27 18.3901 69.76 33.0701L70 33.0001C68.26 17.4801 54.58 5.79013 38.4 5.26013C20.85 4.68013 6.63 19.4901 6.63 37.0401C6.63 37.3201 6.63 37.6101 6.63 37.9001H6.64001Z" fill="#683C11"/>
</g>
<g style="mix-blend-mode:multiply" opacity="0.5">
<path fill-rule="evenodd" clip-rule="evenodd" d="M66.1 37.9102C65.67 52.8002 54.17 64.5002 38.4 64.7502C22.63 65.0002 11.14 52.8202 10.7 37.9102C10.7 38.1902 10.7 38.4802 10.7 38.7602C10.7 54.0702 22.34 66.7602 38.41 66.4702C54.48 66.1802 66.12 54.0702 66.12 38.7602C66.12 38.4802 66.12 38.1902 66.12 37.9102H66.1Z" fill="#683C11"/>
</g>
<path fill-rule="evenodd" clip-rule="evenodd" d="M38.4 9.06982C31.0185 9.12794 23.9602 12.1058 18.7678 17.3525C13.5754 22.5993 10.6712 29.6882 10.6899 37.0698C10.6899 52.3698 22.33 65.0698 38.4 64.7798C54.47 64.4898 66.11 52.3698 66.11 37.0698C66.1287 29.6882 63.2245 22.5993 58.0321 17.3525C52.8397 12.1058 45.7814 9.12794 38.4 9.06982Z" fill="url(#paint7_radial_53_15)"/>
<path style="mix-blend-mode:screen" fill-rule="evenodd" clip-rule="evenodd" d="M38.4 10.29C24.28 10.29 12.8199 21.58 12.8199 35.23C12.8199 48.88 23.56 60.17 38.4 59.94C53.24 59.71 64 48.88 64 35.23C64 21.58 52.55 10.29 38.42 10.29H38.4Z" fill="url(#paint8_radial_53_15)"/>
<path style="mix-blend-mode:screen" fill-rule="evenodd" clip-rule="evenodd" d="M38.4 12.5101C32.2788 12.4779 26.3931 14.8673 22.0265 19.1571C17.6599 23.447 15.1664 29.2893 15.09 35.4101C15.0581 38.4518 15.644 41.4684 16.812 44.2771C17.98 47.0858 19.7059 49.6283 21.8851 51.7505C24.0644 53.8728 26.6518 55.5307 29.4905 56.6238C32.3292 57.7169 35.3602 58.2226 38.4 58.1101C51.92 57.9001 61.71 47.9501 61.71 35.4101C61.6335 29.2893 59.1401 23.447 54.7734 19.1571C50.4068 14.8673 44.5212 12.4779 38.4 12.5101Z" fill="url(#paint9_radial_53_15)"/>
<path style="mix-blend-mode:screen" fill-rule="evenodd" clip-rule="evenodd" d="M14.84 28.3398C11.42 36.8398 14.59 40.4998 23.9 39.3398C34.83 37.9498 47.9 32.2798 54.22 25.3398C54.7943 24.6286 55.2021 23.7977 55.4132 22.9082C55.6243 22.0188 55.6334 21.0933 55.4399 20.1998C54.9328 18.1995 53.7536 16.4343 52.1 15.1998C47.1 11.2998 39.99 10.6598 33.85 11.4798C24.66 12.7098 18.15 20.1398 14.85 28.3698L14.84 28.3398Z" fill="url(#paint10_radial_53_15)"/>
<path style="mix-blend-mode:screen" fill-rule="evenodd" clip-rule="evenodd" d="M15.74 50.57C27.93 71.5 60.01 66.92 64.17 42.79C60.09 55.69 49.35 61.25 38.86 61.59C34.4092 61.727 29.9901 60.8005 25.9691 58.8874C21.9482 56.9743 18.4414 54.1299 15.74 50.59V50.57Z" fill="url(#paint11_radial_53_15)"/>
<path style="mix-blend-mode:screen" fill-rule="evenodd" clip-rule="evenodd" d="M22.1601 17.8699C17.4701 23.0799 18.83 27.3399 26.4 25.0599C32.51 23.2299 37.0801 21.6899 42.3001 18.1899C45.6701 15.9299 44.03 11.9699 37.48 11.6999C32.7 11.5099 25.4801 14.1999 22.1601 17.8699Z" fill="url(#paint12_radial_53_15)"/>
<path style="mix-blend-mode:screen" fill-rule="evenodd" clip-rule="evenodd" d="M26.76 51.5901C22.87 52.5901 25.53 56.0301 27.91 57.2501C34.91 60.8401 44.51 59.9401 51.81 55.7701C56.3071 53.1284 59.8184 49.0904 61.81 44.2701C63.87 39.3601 61.46 33.1801 57.18 37.3301C52.53 41.8501 48.7699 44.4101 44.0899 46.3301C38.467 48.5182 32.6875 50.2799 26.8 51.6001L26.76 51.5901Z" fill="url(#paint13_radial_53_15)"/>
<path style="mix-blend-mode:screen" fill-rule="evenodd" clip-rule="evenodd" d="M43.91 58.37C48.91 57.37 54.91 54.68 58.46 49.37C59.6 47.65 60.05 44.18 57.46 46.6C52.13 51.54 49.26 53.22 42.46 55.6C38.12 57.09 36.17 57.3 36.14 57.96C36.14 58.8 39.4 59.31 43.97 58.41L43.91 58.37Z" fill="url(#paint14_radial_53_15)"/>
<g style="mix-blend-mode:screen" opacity="0.5">
<path fill-rule="evenodd" clip-rule="evenodd" d="M39.0699 45.9999C37.6155 45.9947 36.2223 45.4146 35.1938 44.3861C34.1654 43.3577 33.5852 41.9644 33.58 40.5099V43.6399C33.58 45.0986 34.1595 46.4976 35.1909 47.529C36.2224 48.5605 37.6213 49.1399 39.08 49.1399C40.5386 49.1399 41.9377 48.5605 42.9691 47.529C44.0006 46.4976 44.58 45.0986 44.58 43.6399C48.49 41.3799 51.75 37.9599 52.58 33.4499C52.8027 32.1987 52.8365 30.9212 52.6801 29.6599C52.6801 29.8799 52.62 30.0999 52.58 30.3099C51.7 34.8199 48.44 38.2399 44.58 40.4099C44.5879 41.1378 44.452 41.8601 44.1802 42.5354C43.9083 43.2106 43.5058 43.8256 42.9957 44.3449C42.4857 44.8643 41.8781 45.2778 41.2079 45.5618C40.5376 45.8458 39.8179 45.9947 39.09 45.9999H39.0699ZM29.41 34.0999C30.4258 34.1221 31.4282 33.8665 32.3093 33.3607C33.1905 32.8549 33.9169 32.1182 34.41 31.2299C35.0365 29.9859 36.1071 29.0224 37.41 28.5299C38.0168 28.3027 38.6779 28.2632 39.3074 28.4166C39.9369 28.5699 40.5057 28.9091 40.9399 29.3899C42.7699 27.1799 40.16 24.3899 37.41 25.3899C36.1071 25.8824 35.0365 26.8459 34.41 28.0899C33.8144 29.1409 32.8932 29.9698 31.7854 30.4515C30.6776 30.9333 29.4432 31.0419 28.2683 30.7608C27.0934 30.4798 26.0418 29.8244 25.2719 28.8935C24.5019 27.9627 24.0556 26.8067 24 25.5999V28.7299C24.0574 30.1417 24.6473 31.4793 25.651 32.4737C26.6547 33.4682 27.9978 34.0456 29.41 34.0899V34.0999ZM44.73 53.6199V56.7599C44.6691 58.1977 44.0551 59.5563 43.0162 60.5521C41.9774 61.5478 40.594 62.1038 39.155 62.1038C37.716 62.1038 36.3326 61.5478 35.2937 60.5521C34.2549 59.5563 33.6409 58.1977 33.58 56.7599V53.6099C33.5481 54.3619 33.6688 55.1126 33.9346 55.8167C34.2004 56.5209 34.6059 57.164 35.1267 57.7074C35.6475 58.2507 36.2729 58.6831 36.9652 58.9785C37.6575 59.2738 38.4024 59.4261 39.155 59.4261C39.9077 59.4261 40.6526 59.2738 41.3448 58.9785C42.0371 58.6831 42.6624 58.2507 43.1832 57.7074C43.7041 57.164 44.1097 56.5209 44.3755 55.8167C44.6413 55.1126 44.7618 54.3619 44.73 53.6099V53.6199Z" fill="#FFA8A8"/>
</g>
<path style="mix-blend-mode:multiply" opacity="0.75" d="M45.35 15.8799C42.8467 14.5083 39.9617 13.9988 37.14 14.4299C34.5268 14.5995 32.0034 15.4502 29.821 16.8976C27.6385 18.345 25.8729 20.3385 24.7 22.6799C24.2075 23.5723 23.9657 24.5812 24 25.5999C24.0451 26.8162 24.4875 27.9843 25.2593 28.9255C26.0311 29.8667 27.09 30.5291 28.274 30.8115C29.4579 31.0939 30.7018 30.9807 31.8153 30.4892C32.9289 29.9977 33.8507 29.155 34.44 28.0899C35.0665 26.8459 36.1371 25.8824 37.44 25.3899C40.59 24.2799 43.5401 28.0399 39.9001 30.2899C38.7701 30.9899 37.3601 31.4599 36.5501 31.8799C35.7205 32.3046 35.0109 32.9311 34.4867 33.7017C33.9625 34.4723 33.6404 35.3623 33.5501 36.2899C33.5377 36.4897 33.5377 36.6901 33.5501 36.8899V40.4999C33.5501 41.9586 34.1295 43.3575 35.1609 44.389C36.1924 45.4204 37.5914 45.9999 39.0501 45.9999C40.5088 45.9999 41.9077 45.4204 42.9391 44.389C43.9706 43.3575 44.5501 41.9586 44.5501 40.4999C48.4601 38.2299 51.7201 34.8099 52.5501 30.2999C53.6101 24.5099 50.3401 18.6599 45.2901 15.8799H45.35ZM39.1501 47.9999C40.2545 47.9979 41.3347 48.3238 42.2538 48.9361C43.173 49.5485 43.8898 50.4199 44.3134 51.4399C44.737 52.4599 44.8483 53.5827 44.6333 54.666C44.4183 55.7494 43.8866 56.7446 43.1056 57.5256C42.3246 58.3065 41.3295 58.8382 40.2461 59.0532C39.1628 59.2681 38.0401 59.1568 37.0201 58.7332C36 58.3096 35.1286 57.5929 34.5163 56.6737C33.9039 55.7546 33.578 54.6744 33.58 53.5699C33.5826 52.0935 34.1704 50.6782 35.2144 49.6342C36.2584 48.5902 37.6736 48.0025 39.1501 47.9999Z" fill="url(#paint15_linear_53_15)"/>
<g style="mix-blend-mode:multiply" opacity="0.5">
<path fill-rule="evenodd" clip-rule="evenodd" d="M37.14 14.43C33.5602 14.6733 30.1861 16.1918 27.63 18.71C26.4759 19.9037 25.49 21.2495 24.7 22.71C24.2075 23.6024 23.9657 24.6113 24 25.63C24.0154 26.0631 24.0825 26.4928 24.2 26.91C24.318 26.485 24.4859 26.0755 24.7 25.69C26.2715 22.6207 28.8332 20.1719 31.97 18.74C33.6138 18.036 35.3588 17.5972 37.14 17.44C39.8543 17.0312 42.6283 17.4859 45.07 18.74L45.35 18.89C47.3287 19.9765 49.0259 21.511 50.3056 23.3707C51.5853 25.2303 52.4121 27.3636 52.72 29.6C52.9282 27.6235 52.7033 25.6255 52.0608 23.7448C51.4184 21.8641 50.3739 20.146 49 18.71C47.95 17.5819 46.7282 16.6268 45.38 15.88C43.5498 14.8469 41.4817 14.3092 39.38 14.32H39.24C38.59 14.32 37.92 14.32 37.24 14.43H37.14ZM39.94 30.29C38.81 30.99 37.4 31.46 36.59 31.88C35.7604 32.3047 35.051 32.9312 34.5268 33.7018C34.0025 34.4724 33.6804 35.3624 33.59 36.29C33.5776 36.4898 33.5776 36.6902 33.59 36.89V39.89C33.5774 39.6902 33.5774 39.4898 33.59 39.29C33.6804 38.3624 34.0025 37.4724 34.5268 36.7018C35.051 35.9312 35.7604 35.3047 36.59 34.88C37.4 34.46 38.81 33.99 39.94 33.29C40.4114 33.0609 40.8145 32.7123 41.1093 32.279C41.404 31.8456 41.5802 31.3426 41.62 30.82V27.82C41.5785 28.3408 41.4016 28.8418 41.107 29.2732C40.8123 29.7047 40.41 30.0517 39.94 30.28V30.29ZM39.1501 51C40.3681 50.9993 41.5528 51.398 42.5227 52.1349C43.4926 52.8718 44.1942 53.9063 44.5201 55.08C44.6618 54.5961 44.7325 54.0942 44.73 53.59C44.7056 52.809 44.5174 52.0419 44.1776 51.3383C43.8379 50.6347 43.3542 50.0103 42.7578 49.5055C42.1615 49.0007 41.4658 48.6268 40.7157 48.4079C39.9657 48.1891 39.178 48.1302 38.4037 48.235C37.6295 48.3399 36.8859 48.6062 36.2211 49.0167C35.5563 49.4272 34.985 49.9728 34.5445 50.618C34.1039 51.2633 33.8038 51.9939 33.6635 52.7625C33.5232 53.5312 33.5458 54.3207 33.73 55.08C34.0573 53.9071 34.7594 52.8736 35.7289 52.1369C36.6985 51.4003 37.8823 51.001 39.1 51H39.1501Z" fill="#260E18"/>
</g>
<defs>
<linearGradient id="paint0_linear_53_15" x1="38.4001" y1="76.2901" x2="38.4001" y2="0.350087" gradientUnits="userSpaceOnUse">
<stop stop-color="#692705"/>
<stop offset="1" stop-color="#823B00"/>
</linearGradient>
<radialGradient id="paint1_radial_53_15" cx="0" cy="0" r="1" gradientUnits="userSpaceOnUse" gradientTransform="translate(26.288 4.08753) scale(79.6024)">
<stop stop-color="#F59547"/>
<stop offset="1" stop-color="#A14C1F"/>
</radialGradient>
<radialGradient id="paint2_radial_53_15" cx="0" cy="0" r="1" gradientUnits="userSpaceOnUse" gradientTransform="translate(31.0152 33.7885) scale(81.13 81.13)">
<stop stop-color="#CFA04D"/>
<stop offset="1" stop-color="white"/>
</radialGradient>
<radialGradient id="paint3_radial_53_15" cx="0" cy="0" r="1" gradientUnits="userSpaceOnUse" gradientTransform="translate(43.7452 75.0869) scale(99.9477 99.9476)">
<stop stop-color="#CFA04D"/>
<stop offset="1" stop-color="white"/>
</radialGradient>
<radialGradient id="paint4_radial_53_15" cx="0" cy="0" r="1" gradientUnits="userSpaceOnUse" gradientTransform="translate(68.0272 47.7574) scale(69.2587 69.2588)">
<stop offset="0.35"/>
<stop offset="1" stop-color="#CA9E67"/>
</radialGradient>
<radialGradient id="paint5_radial_53_15" cx="0" cy="0" r="1" gradientUnits="userSpaceOnUse" gradientTransform="translate(25.3912 71.507) scale(30.058 30.058)">
<stop stop-color="#B0670B"/>
<stop offset="1"/>
</radialGradient>
<linearGradient id="paint6_linear_53_15" x1="38.41" y1="68.4901" x2="38.41" y2="5.25013" gradientUnits="userSpaceOnUse">
<stop stop-color="#823B00"/>
<stop offset="1" stop-color="#692705"/>
</linearGradient>
<radialGradient id="paint7_radial_53_15" cx="0" cy="0" r="1" gradientUnits="userSpaceOnUse" gradientTransform="translate(38.1895 6.15462) scale(68.4077 68.4076)">
<stop stop-color="#095FCF"/>
<stop offset="1" stop-color="#003F96"/>
</radialGradient>
<radialGradient id="paint8_radial_53_15" cx="0" cy="0" r="1" gradientUnits="userSpaceOnUse" gradientTransform="translate(34.7468 6.07884) scale(67.8985 67.8984)">
<stop stop-color="#2989FF"/>
<stop offset="1"/>
</radialGradient>
<radialGradient id="paint9_radial_53_15" cx="0" cy="0" r="1" gradientUnits="userSpaceOnUse" gradientTransform="translate(44.148 17.0837) scale(42.4156 42.4156)">
<stop stop-color="#2989FF"/>
<stop offset="1"/>
</radialGradient>
<radialGradient id="paint10_radial_53_15" cx="0" cy="0" r="1" gradientUnits="userSpaceOnUse" gradientTransform="translate(38.372 2.81062) scale(57.684 57.684)">
<stop stop-color="#2989FF"/>
<stop offset="1"/>
</radialGradient>
<radialGradient id="paint11_radial_53_15" cx="0" cy="0" r="1" gradientUnits="userSpaceOnUse" gradientTransform="translate(64.1968 61.5512) scale(45.6685 45.6684)">
<stop stop-color="#2989FF"/>
<stop offset="1"/>
</radialGradient>
<radialGradient id="paint12_radial_53_15" cx="0" cy="0" r="1" gradientUnits="userSpaceOnUse" gradientTransform="translate(41.8832 8.1079) scale(55.0088 55.0088)">
<stop stop-color="#69DFFF"/>
<stop offset="1"/>
</radialGradient>
<radialGradient id="paint13_radial_53_15" cx="0" cy="0" r="1" gradientUnits="userSpaceOnUse" gradientTransform="translate(64.6224 64.5153) scale(39.1476 39.1476)">
<stop stop-color="#2989FF"/>
<stop offset="1"/>
</radialGradient>
<radialGradient id="paint14_radial_53_15" cx="0" cy="0" r="1" gradientUnits="userSpaceOnUse" gradientTransform="translate(65.5875 61.4524) scale(23.7651 23.7652)">
<stop stop-color="#2989FF"/>
<stop offset="1"/>
</radialGradient>
<linearGradient id="paint15_linear_53_15" x1="38.4001" y1="59.1899" x2="38.4001" y2="14.3199" gradientUnits="userSpaceOnUse">
<stop stop-color="#0856FF"/>
<stop offset="1" stop-color="#0007AD"/>
</linearGradient>
</defs>
</svg>
