<svg width="79" height="79" viewBox="0 0 79 79" fill="none" xmlns="http://www.w3.org/2000/svg">
<path fill-rule="evenodd" clip-rule="evenodd" d="M39.2901 0.540039C60.59 1.40004 75.8001 15.29 78.5501 33.54C78.5501 33.82 75.3901 32.54 70.6801 34.64C72.3701 34.64 78.74 34.94 78.77 35.23C78.9609 37.0133 79.0311 38.8074 78.98 40.6C78.44 62.19 62.5301 78.15 39.2901 78.15C16.7001 78.15 2.06002 62.56 0.630015 41.74C0.630015 41.46 5.28004 40.5 6.16004 40.22C4.91004 40.29 1.34003 40.04 0.52003 39.22C0.352472 31.9954 2.12391 24.8579 5.65003 18.55C5.84003 18.21 10.24 16.81 11.98 16.32C7.60999 16.8 6.63998 16.91 6.83998 16.59C13.43 6.52004 24.84 -0.0299608 39.2901 0.590039V0.540039Z" fill="url(#paint0_linear_53_14)"/>
<path fill-rule="evenodd" clip-rule="evenodd" d="M39.3 1.00008C60.22 1.83008 75.0799 15.4301 77.4599 33.1701C75.3199 32.9501 72.63 33.5001 69.18 34.9501C72.0226 34.9003 74.8653 35.0372 77.6899 35.3601C77.7799 36.6301 77.81 37.9201 77.78 39.2201C77.25 59.8301 60.04 75.0701 39.3 75.0701C30.052 75.1926 21.0933 71.8471 14.1893 65.6927C7.2853 59.5383 2.93655 51.0214 1.99998 41.8201C4.44998 41.0901 6.88994 40.3501 9.32994 39.5801C7.57994 39.9001 3.22001 39.7801 1.78001 39.0101C1.78001 38.8501 1.78001 38.7001 1.78001 38.5501C1.51281 31.6764 3.10177 24.8576 6.37998 18.8101C8.37998 18.0401 11.64 16.8701 14.91 15.7201C12.51 15.9701 10.06 16.3001 7.68003 16.6201C14.03 6.83008 25.1499 0.430084 39.3399 0.990084L39.3 1.00008Z" fill="url(#paint1_radial_53_14)"/>
<path style="mix-blend-mode:multiply" opacity="0.6" fill-rule="evenodd" clip-rule="evenodd" d="M2.06995 31.9998C5.06995 31.2398 8.18003 30.2698 11.53 29.0598C16.5064 27.1533 21.6483 25.7105 26.89 24.7498C41.33 22.1998 52.11 17.6198 67.67 17.1698C68.81 17.1698 69.97 17.1698 71.14 17.1698C70.59 16.3898 70 15.6398 69.38 14.8998C65.8448 14.6389 62.2952 14.6389 58.76 14.8998C44.42 16.1598 27.69 19.8998 12.38 22.3598C9.69 22.7898 6.90995 23.2898 4.06995 23.8098C3.10394 26.4544 2.4332 29.1977 2.06995 31.9898V31.9998Z" fill="url(#paint2_radial_53_14)"/>
<path style="mix-blend-mode:multiply" opacity="0.6" fill-rule="evenodd" clip-rule="evenodd" d="M25.28 44.7199C20.5319 46.3965 15.8899 48.3601 11.38 50.5999C9.27049 51.5962 7.34886 52.9495 5.69995 54.5999C7.01269 57.256 8.64122 59.744 10.55 62.0099C11.63 62.5299 12.84 63.0799 14.15 63.6499C17.81 65.2299 21.64 66.7799 25.09 68.4999C28.6348 70.3564 32.0256 72.4932 35.23 74.8899C36.5821 75.0308 37.9407 75.1009 39.3 75.0999C41.4498 75.101 43.5963 74.9338 45.72 74.5999C43.39 72.8799 40.96 71.0099 38.21 69.0399C33.67 65.7999 27.5901 61.4399 25.5601 59.2799C25.0521 58.7311 24.6547 58.0893 24.39 57.3899C24.1247 56.7157 24.0022 55.9938 24.03 55.2699C24.0622 54.5743 24.2393 53.8931 24.55 53.2699C24.8852 52.5932 25.3275 51.9752 25.86 51.4399C28.13 49.1599 32.58 46.7099 37.6 44.4399C44.208 41.5241 50.9911 39.0226 57.91 36.9499C61.5629 35.7923 65.352 35.1199 69.1801 34.9499C72.6301 33.4999 75.32 32.9499 77.46 33.1699C77.2729 31.7618 77.0025 30.366 76.65 28.9899C73.256 28.5806 69.8225 28.6243 66.4399 29.1199C55.0899 31.1199 37.22 40.1199 25.28 44.7299V44.7199Z" fill="url(#paint3_radial_53_14)"/>
<g style="mix-blend-mode:multiply" opacity="0.5">
<path d="M75.34 51.4402C75.03 51.4402 74.73 51.4402 74.42 51.4402C73.4994 51.4704 72.5829 51.5775 71.6801 51.7602C71.0706 51.8939 70.482 52.1092 69.9301 52.4002C69.3956 52.6893 68.887 53.0238 68.41 53.4002C67.8921 53.786 67.407 54.2141 66.96 54.6802C66.5491 55.1187 66.1839 55.5978 65.87 56.1102C65.5577 56.6185 65.2996 57.1581 65.1 57.7202C64.8841 58.3129 64.7758 58.9394 64.78 59.5702C64.8009 60.1856 64.9331 60.792 65.17 61.3602C65.3894 61.8958 65.7321 62.372 66.17 62.7502C66.5579 63.0871 66.9803 63.3821 67.4301 63.6302C67.8001 63.2502 68.17 62.8702 68.53 62.4702C67.8695 62.2056 67.2551 61.8376 66.71 61.3802C66.4462 61.1189 66.2377 60.8071 66.0968 60.4635C65.9559 60.1199 65.8857 59.7515 65.89 59.3802C65.9298 58.5047 66.21 57.657 66.7 56.9302C67.4202 55.7871 68.4265 54.8518 69.6191 54.2169C70.8118 53.5819 72.1495 53.2694 73.5 53.3102C73.83 53.3102 74.18 53.3102 74.5 53.3102C74.78 52.6802 75.05 52.0502 75.3 51.4102L75.34 51.4402ZM77.61 41.9602H77C67.6312 41.9661 58.4836 44.8073 50.76 50.1102C47.76 52.1702 46.26 54.0202 46 55.8402C45.8444 56.854 45.9279 57.8902 46.2439 58.866C46.5599 59.8417 47.0996 60.7301 47.8199 61.4602C50.69 64.896 53.8811 68.0503 57.35 70.8802C56.45 71.3302 55.53 71.7402 54.6 72.1202C51.142 69.1921 47.9373 65.9774 45.02 62.5102C42.86 60.0002 41.74 57.6602 42.09 55.2602C42.72 50.9502 51.75 46.2602 56.63 44.3502C65.14 40.9802 71.43 39.7102 77.77 39.9102C77.77 40.6002 77.7 41.2802 77.63 41.9602H77.61ZM77.76 36.6202C65.39 35.8102 56.2 37.9602 38.92 45.7302C35.1238 47.3794 31.6396 49.6695 28.62 52.5002C28.1936 52.8674 27.8469 53.318 27.6013 53.8243C27.3557 54.3306 27.2165 54.8818 27.1921 55.444C27.1678 56.0062 27.2589 56.5674 27.4597 57.093C27.6606 57.6187 27.9669 58.0976 28.36 58.5002C31.885 61.8108 35.6448 64.8621 39.61 67.6302C42.92 70.0002 45.48 72.2002 47.98 74.1702C47.24 74.3302 46.48 74.4702 45.72 74.5902C43.39 72.8702 40.96 71.0002 38.21 69.0302C33.67 65.7902 27.5901 61.4302 25.5601 59.2702C25.0521 58.7214 24.6547 58.0797 24.39 57.3802C24.1247 56.7061 24.0022 55.9842 24.03 55.2602C24.0622 54.5646 24.2393 53.8834 24.55 53.2602C24.8852 52.5836 25.3275 51.9656 25.86 51.4302C28.13 49.1502 32.58 46.7002 37.6 44.4302C44.208 41.5145 50.9911 39.0129 57.91 36.9402C66.05 34.5702 70.3999 34.6502 77.6899 35.3602C77.6899 35.7802 77.69 36.2002 77.76 36.6302V36.6202ZM76.65 29.0002C73.256 28.5909 69.8225 28.6346 66.4399 29.1302C55.0899 31.1302 37.22 40.1302 25.28 44.7402C20.5319 46.4169 15.8899 48.3805 11.38 50.6202C9.27049 51.6166 7.34886 52.9698 5.69995 54.6202C5.23995 53.7102 4.82995 52.7702 4.44995 51.8102C9.96995 48.0602 19.55 44.5202 23.76 42.9202C28.96 40.9202 34.1 38.8302 39.26 36.7702C47.46 33.4902 57.6099 28.7702 66.3199 27.9702C69.6692 27.7028 73.0355 27.7296 76.38 28.0502C76.48 28.3769 76.57 28.7102 76.65 29.0502V29.0002ZM10.55 62.0002C11.63 62.5202 12.84 63.0702 14.15 63.6402C17.81 65.2202 21.64 66.7702 25.09 68.4902C28.6348 70.3468 32.0256 72.4836 35.23 74.8802C33.0396 74.656 30.872 74.2479 28.75 73.6602C26.84 72.5902 24.8799 71.5602 22.8199 70.5402C20.7599 69.5202 18.76 68.6402 16.64 67.7202C14.4009 66.0492 12.358 64.1303 10.55 62.0002ZM74.6801 23.3302C70.3563 23.1862 66.0299 23.5216 61.78 24.3302C53.11 25.9702 46.5699 28.8702 37.0699 32.2802C25.5799 36.4002 13.96 40.2802 2.23999 43.7602C2.13999 43.1402 2.04998 42.5102 1.97998 41.8802C13.91 38.3302 25.7399 34.3502 37.4399 30.1602C47.4399 26.5902 54.4399 24.1602 61.5699 23.0802C65.7603 22.4338 70.0046 22.206 74.24 22.4002C74.39 22.7202 74.5401 23.0302 74.6801 23.4002V23.3302ZM2.06995 32.0002C5.06995 31.2402 8.18003 30.2702 11.53 29.0602C16.5064 27.1538 21.6483 25.711 26.89 24.7502C41.33 22.2002 52.11 17.6202 67.67 17.1702C68.81 17.1702 69.97 17.1702 71.14 17.1702C71.48 17.6402 71.8 18.1202 72.14 18.6002C70.65 18.5302 69.14 18.5102 67.73 18.5502C58.89 18.8102 50.46 21.1302 41.97 23.4702C36.97 24.8402 32.22 26.1502 27.13 27.0402C21.9688 27.9696 16.9041 29.3722 12 31.2302C8.69004 32.4431 5.3066 33.4451 1.87 34.2302C1.93 33.4702 2.00999 32.7002 2.10999 31.9502L2.06995 32.0002ZM5.13 21.2602C7.39001 20.7802 9.72994 20.3202 12.1899 19.9302C27.5099 17.4902 44.27 14.8102 58.65 13.5502C61.7527 13.2893 64.868 13.2091 67.98 13.3102C68.46 13.8202 68.98 14.3102 69.38 14.8802C65.8448 14.6193 62.2952 14.6193 58.76 14.8802C44.42 16.1402 27.69 19.8802 12.38 22.3402C9.69 22.7702 6.90995 23.2702 4.06995 23.7902C4.39995 22.9202 4.75 22.0702 5.13 21.2302V21.2602ZM9.05005 14.6602C13.05 14.1202 17.05 13.6602 20.89 13.5502C25.81 13.3802 30.73 13.0402 35.65 12.4202C39.11 11.9902 42.06 11.5702 44.78 11.1802C50.9935 10.1366 57.2718 9.52512 63.5699 9.35023C64.0199 9.70023 64.47 10.0502 64.9 10.4202C50.33 10.4202 37.83 15.1402 20.98 15.4202C16.5123 15.5945 12.0583 16.0252 7.64001 16.7102C8.08668 16.0436 8.55672 15.3769 9.05005 14.7102V14.6602ZM13.26 10.0302C22.8781 10.0031 32.4821 9.29469 42 7.91023C47.5 7.18023 53 6.46024 58.61 6.10023C59.47 6.57023 60.31 7.10023 61.13 7.59023C54.79 7.81023 48.44 8.43023 42.13 9.26023C31.13 10.7102 22.0601 12.2602 11.0601 12.1502C11.742 11.39 12.4629 10.6657 13.22 9.98023L13.26 10.0302ZM20.1899 5.15023C25.6899 4.84023 31.3499 4.27023 37.1899 3.38023C40.4899 2.87023 43.8 2.38023 47.11 1.99023C48.42 2.27023 49.6999 2.59023 50.9399 2.99023C40.7899 4.06023 30.68 5.94023 20.52 6.82023C19.35 6.92023 18.17 7.01023 17 7.08023C18.0195 6.38384 19.0779 5.74613 20.17 5.17023L20.1899 5.15023ZM62.45 67.8802C60.6648 66.7944 59.0535 65.446 57.67 63.8802C55.81 61.7302 54.9199 59.4902 55.3199 57.6302C55.3767 57.3953 55.4503 57.1647 55.54 56.9402C56.7806 54.5694 58.622 52.5659 60.88 51.1302C63.4353 49.3094 66.2926 47.9552 69.3199 47.1302C71.7922 46.5281 74.3389 46.289 76.88 46.4202C76.81 46.7402 76.73 47.0702 76.65 47.4202H76.47C74.1458 47.2798 71.814 47.5059 69.5601 48.0902C66.7815 49.0285 64.1889 50.4466 61.9 52.2802C57.81 55.3802 55.33 58.2802 59.13 62.9902C60.4206 64.5644 61.9611 65.9157 63.6899 66.9902C63.2799 67.3002 62.8699 67.6102 62.45 67.9102V67.8802Z" fill="#B7805C"/>
</g>
<path style="mix-blend-mode:screen" fill-rule="evenodd" clip-rule="evenodd" d="M26.2 4.3401C26.1068 4.26801 26.0398 4.16742 26.0091 4.05368C25.9784 3.93994 25.9858 3.81928 26.0301 3.7101C26.3501 3.0001 28.3501 2.2301 30.3801 1.6001C26.8234 2.23507 23.3862 3.41566 20.19 5.1001C22.47 4.9701 24.77 4.8001 27.11 4.5801C26.7943 4.55843 26.4854 4.47699 26.2 4.3401ZM24.32 6.3401C23.06 6.4801 21.8001 6.6001 20.5401 6.7101C19.2801 6.8201 18.1901 6.9001 17.0201 6.9701C15.6977 7.88032 14.4412 8.88281 13.2601 9.9701C16.7801 9.9701 20.14 9.9001 23.45 9.7201C22.68 9.6501 21.9101 9.5801 21.1401 9.4801C17.4701 9.0201 21.4401 7.1801 22.7501 6.7901C23.2701 6.6301 23.75 6.5001 24.32 6.3701V6.3401ZM21.7 11.7301C18.29 12.0001 14.8 12.1501 11.09 12.1101C10.37 12.9034 9.70336 13.7234 9.09003 14.5701C13.09 14.0301 17.0901 13.5701 20.9301 13.4601H22.0101C21.5001 13.4101 21.01 13.3401 20.48 13.2501C19.41 13.0501 20.1101 12.2501 20.8701 12.0001L21.74 11.7701L21.7 11.7301ZM14.8701 15.6801C11.6001 16.8301 8.35003 18.0001 6.34003 18.7701C5.91003 19.5501 5.50006 20.3501 5.13006 21.1701C7.39006 20.6901 9.73 20.2301 12.19 19.8401L13.0201 19.7101C11.7301 19.3501 10.3101 18.7101 11.6501 17.7101C14.0301 15.9401 17.6501 15.5701 20.6501 15.2901C18.8001 15.2901 16.83 15.4801 14.82 15.6801H14.8701ZM11.8701 22.3701C9.35006 22.7701 6.76007 23.2401 4.13006 23.7301C3.15953 26.3734 2.48866 29.1172 2.13006 31.9101C5.13006 31.1501 8.24003 30.1801 11.59 28.9701L12.9101 28.5001C10.3201 29.0101 7.18004 29.5001 6.48004 28.7201C5.10004 27.3001 6.73004 24.1401 8.48004 23.4701C9.60169 23.039 10.7469 22.6717 11.9101 22.3701H11.8701ZM10.0001 31.9201C7.32107 32.8282 4.5975 33.5992 1.84003 34.2301C1.74003 35.6501 1.71006 37.0901 1.75006 38.5501C1.75006 38.7001 1.75006 38.8501 1.75006 39.0101C3.19006 39.7801 7.55011 39.9001 9.30011 39.5801L11.9901 38.7401C8.89005 39.0601 3.99002 39.3801 3.46002 37.5901C2.93002 35.8001 6.46004 33.5901 9.98004 31.9201H10.0001ZM10.2401 41.2701C7.57338 42.0968 4.90672 42.9068 2.24005 43.7001C2.6832 46.4393 3.42422 49.1219 4.45001 51.7001C6.87742 50.1251 9.42532 48.7442 12.07 47.5701C10.8517 47.9725 9.57253 48.1586 8.2901 48.1201C6.2901 47.9701 5.29008 45.4401 6.65008 43.5901C7.64807 42.5386 8.87229 41.7281 10.23 41.2201L10.2401 41.2701ZM11.3901 50.6001C9.28056 51.5965 7.35893 52.9497 5.71002 54.6001C7.02275 57.2562 8.65129 59.7442 10.5601 62.0101C11.6401 62.5301 12.8501 63.0801 14.1601 63.6501C16.2901 64.5701 18.4801 65.4801 20.6201 66.4201C18.0201 64.9601 14.7001 63.0901 13.5201 61.9601C11.5201 60.0201 8.73004 55.4301 10.23 52.5701C10.814 51.6249 11.5586 50.7891 12.4301 50.1001L11.4301 50.6401L11.3901 50.6001Z" fill="url(#paint4_radial_53_14)"/>
<path style="mix-blend-mode:screen" fill-rule="evenodd" clip-rule="evenodd" d="M5 55.1201C12.81 69.6701 22.76 74.4101 39.87 76.0701C24.69 79.1901 10.09 70.0701 5 55.1201Z" fill="url(#paint5_radial_53_14)"/>
<g style="mix-blend-mode:screen" opacity="0.65">
<path fill-rule="evenodd" clip-rule="evenodd" d="M8.64001 16.49C15.12 7.49002 25.82 1.77002 39.3 2.30002C42.0406 2.39577 44.7675 2.73037 47.45 3.30002C48.7 3.95002 50.21 4.76002 50.63 4.89002C52.02 5.30002 54.53 5.44002 56.29 6.25002C63.0055 9.25712 68.6607 14.2154 72.52 20.48C72.5924 20.5817 72.6422 20.6976 72.6664 20.82C72.6905 20.9424 72.6884 21.0685 72.66 21.19C72.57 21.39 72.29 21.42 72.08 21.45C71.7478 21.4893 71.4121 21.4893 71.08 21.45C69.6 21.36 68.08 21.1 66.63 21.15C64.313 21.1873 62.0053 21.4519 59.74 21.94C53.81 23.38 45.39 26.78 38.74 29.58C48 26.27 54.74 24.04 61.55 22.97C65.5183 22.3524 69.5369 22.118 73.55 22.27C75.3575 25.6568 76.6036 29.3143 77.24 33.1H77.45C75.07 15.36 60.21 1.76003 39.29 0.930025C25.1 0.370025 13.98 6.77002 7.63 16.56L8.63 16.43L8.64001 16.49Z" fill="#CA9E67"/>
</g>
<g style="mix-blend-mode:screen" opacity="0.5">
<path fill-rule="evenodd" clip-rule="evenodd" d="M45 33.6201C36.91 37.0601 28.7101 40.4201 20.6801 44.0401L23.77 42.8601C28.97 40.8601 34.11 38.7701 39.27 36.7101C44.04 34.8001 49.47 32.4101 54.89 30.5801C51.4715 31.1222 48.1436 32.1316 45 33.5801V33.6201Z" fill="#CA9E67"/>
</g>
<g style="mix-blend-mode:screen" opacity="0.5">
<path fill-rule="evenodd" clip-rule="evenodd" d="M37.6 44.4198C44.208 41.504 50.9911 39.0025 57.91 36.9298C59.56 36.4498 61.0499 36.0698 62.4399 35.7798C55.4601 36.8231 48.6523 38.8008 42.2 41.6598C38.4341 43.1977 34.7612 44.954 31.2 46.9198C27.59 48.9198 25.33 50.9198 24.52 53.3198V53.2498C24.8551 52.5731 25.2974 51.9551 25.83 51.4198C28.1 49.1398 32.5499 46.6898 37.5699 44.4198H37.6Z" fill="#CA9E67"/>
</g>
<g style="mix-blend-mode:screen" opacity="0.5">
<path fill-rule="evenodd" clip-rule="evenodd" d="M29.4 23.5698C25.8922 24.2492 22.4495 25.2295 19.11 26.4998C21.6698 25.7631 24.2668 25.1623 26.89 24.6998C38.49 22.6498 47.73 19.2898 58.98 17.8198C53.6959 17.9747 48.4534 18.8048 43.38 20.2898C41.44 20.8198 39.57 21.5998 37.6 22.0598C34.9 22.6998 32.12 23.0098 29.4 23.5698Z" fill="#CA9E67"/>
</g>
<g style="mix-blend-mode:screen" opacity="0.65">
<path fill-rule="evenodd" clip-rule="evenodd" d="M67.13 55.1699C64.1694 59.7876 60.0909 63.583 55.2726 66.2043C50.4542 68.8256 45.052 70.188 39.5668 70.165C34.0816 70.1421 28.691 68.7346 23.8948 66.0731C19.0985 63.4116 15.0519 59.5822 12.13 54.9399C17.51 64.9399 26.52 70.8299 39.87 71.1199C51.43 71.3799 61.1 65.5899 67.12 55.1199L67.13 55.1699Z" fill="#CA9E67"/>
</g>
<g style="mix-blend-mode:screen" opacity="0.65">
<path fill-rule="evenodd" clip-rule="evenodd" d="M18.8 18.8302L22.5699 18.2402C21.3199 18.1002 20.86 17.9902 21.47 17.1702C22.0041 16.4647 22.6221 15.8267 23.3101 15.2702C24.2478 14.5145 25.2519 13.8451 26.3101 13.2702C28.2497 12.2063 30.2812 11.3193 32.38 10.6202C33.16 10.3502 33.9399 10.1102 34.6899 9.91016C33.5252 10.1188 32.3759 10.4062 31.25 10.7702C29.2679 11.4023 27.3626 12.2543 25.5699 13.3102C24.5274 13.9107 23.5253 14.5788 22.5699 15.3102C21.1943 16.3711 19.919 17.5561 18.76 18.8502L18.8 18.8302ZM14.5601 25.3202C16.0401 22.7702 16.49 22.0502 18.39 21.3202L16.58 21.6302C15.4718 23.221 14.527 24.9196 13.76 26.7002C14.03 26.2402 14.2901 25.7802 14.5601 25.3302V25.3202Z" fill="#CA9E67"/>
</g>
<path opacity="0.75" fill-rule="evenodd" clip-rule="evenodd" d="M11.4301 38.0001C11.3593 34.2356 12.0396 30.4948 13.4313 26.9963C14.823 23.4978 16.8982 20.3119 19.5354 17.6246C22.1726 14.9374 25.319 12.8028 28.7908 11.3456C32.2625 9.8884 35.9899 9.13788 39.755 9.13788C43.5201 9.13788 47.2475 9.8884 50.7192 11.3456C54.191 12.8028 57.3374 14.9374 59.9746 17.6246C62.6118 20.3119 64.6869 23.4978 66.0786 26.9963C67.4703 30.4948 68.1507 34.2356 68.08 38.0001C68.08 53.6401 56.19 66.0601 39.76 66.3201C23.33 66.5801 11.4301 53.6501 11.4301 38.0001ZM72.05 33.8701C70.2701 18.0101 56.29 6.06011 39.76 5.52011C21.82 4.93011 7.28003 20.0601 7.28003 38.0001C7.28003 38.5801 7.28003 39.1601 7.28003 39.7301C7.94986 39.7293 8.61859 39.6758 9.28003 39.5701L7.28003 40.1801C7.65509 48.7336 11.3902 56.7936 17.6738 62.6089C23.9575 68.4243 32.282 71.5253 40.8389 71.2381C49.3957 70.9509 57.4937 67.2989 63.3733 61.0753C69.2529 54.8517 72.4392 46.5595 72.24 38.0001C72.24 37.0001 72.24 35.9401 72.15 34.9301C71.15 34.9301 70.15 34.9301 69.15 34.9301C70.15 34.5001 71.15 34.1501 72.02 33.8701H72.05Z" fill="url(#paint6_linear_53_14)"/>
<g style="mix-blend-mode:multiply" opacity="0.5">
<path fill-rule="evenodd" clip-rule="evenodd" d="M7.29004 38.8899C7.76004 21.3399 22.11 6.70988 39.76 7.28988C55.7 7.81988 69.27 18.9399 71.76 33.9599L72 33.8799C70.22 18.0199 56.24 6.06988 39.71 5.52988C21.77 4.93988 7.22998 20.0699 7.22998 38.0099C7.22998 38.2999 7.22998 38.5999 7.22998 38.8899H7.29004Z" fill="#683C11"/>
</g>
<g style="mix-blend-mode:multiply" opacity="0.5">
<path fill-rule="evenodd" clip-rule="evenodd" d="M68.0699 38.8999C67.6299 54.1199 55.88 66.0799 39.76 66.3299C23.64 66.5799 11.8899 54.1399 11.4399 38.8999C11.4399 39.1899 11.4399 39.4799 11.4399 39.7699C11.4399 55.4199 23.33 68.3599 39.77 68.0999C56.21 67.8399 68.09 55.4199 68.09 39.7699C68.09 39.4799 68.09 39.1899 68.09 38.8999H68.0699Z" fill="#683C11"/>
</g>
<path fill-rule="evenodd" clip-rule="evenodd" d="M39.76 9.42016C32.2211 9.47825 25.0112 12.5159 19.7036 17.8703C14.3961 23.2247 11.4219 30.461 11.4301 38.0002C11.4301 53.6402 23.32 66.5902 39.76 66.3202C56.2 66.0502 68.08 53.6402 68.08 38.0002C68.0908 30.461 65.1191 23.2236 59.8135 17.8673C54.5078 12.5111 47.299 9.47088 39.76 9.41016V9.42016Z" fill="url(#paint7_radial_53_14)"/>
<path style="mix-blend-mode:screen" fill-rule="evenodd" clip-rule="evenodd" d="M39.76 10.6699C25.32 10.6699 13.61 22.2099 13.61 36.1599C13.61 50.1099 24.61 61.6599 39.76 61.4199C54.91 61.1799 65.9 50.1099 65.9 36.1599C65.9 22.2099 54.2 10.6699 39.76 10.6699Z" fill="url(#paint8_radial_53_14)"/>
<path style="mix-blend-mode:screen" fill-rule="evenodd" clip-rule="evenodd" d="M39.76 12.9398C33.5019 12.905 27.4839 15.3469 23.0194 19.7327C18.555 24.1185 16.0066 30.092 15.9301 36.3498C15.901 39.4581 16.5023 42.5401 17.6977 45.4095C18.893 48.279 20.6577 50.8763 22.8849 53.0447C25.1122 55.213 27.7559 56.9074 30.6563 58.0255C33.5567 59.1436 36.6536 59.6621 39.76 59.5498C53.58 59.3298 63.58 49.1598 63.58 36.3498C63.5035 30.0937 60.9565 24.1217 56.4942 19.7362C52.0319 15.3508 46.0165 12.9077 39.76 12.9398Z" fill="url(#paint9_radial_53_14)"/>
<path style="mix-blend-mode:screen" fill-rule="evenodd" clip-rule="evenodd" d="M15.6701 29.1201C12.1801 37.8101 15.4201 41.5501 24.9301 40.3501C36.1001 38.9301 49.5001 33.1401 55.9301 26.0301C56.5181 25.3043 56.9355 24.4558 57.1519 23.5472C57.3682 22.6385 57.3779 21.6929 57.1801 20.7801C56.6684 18.731 55.4635 16.922 53.77 15.6601C48.62 11.6601 41.39 11.0101 35.12 11.8501C25.72 13.1101 19.1201 20.7001 15.6801 29.1201H15.6701Z" fill="url(#paint10_radial_53_14)"/>
<path style="mix-blend-mode:screen" fill-rule="evenodd" clip-rule="evenodd" d="M16.59 51.8398C29.05 73.2398 61.84 68.5498 66.1 43.8398C61.92 57.0198 50.95 62.7098 40.23 63.0598C35.6771 63.1981 31.1569 62.2476 27.0453 60.2874C22.9336 58.3273 19.3492 55.414 16.59 51.7898V51.8398Z" fill="url(#paint11_radial_53_14)"/>
<path style="mix-blend-mode:screen" fill-rule="evenodd" clip-rule="evenodd" d="M23.16 18.4201C18.36 23.7401 19.75 28.0901 27.49 25.7701C33.73 23.9001 38.41 22.3201 43.74 18.7701C47.19 16.4601 45.51 12.4101 38.82 12.1401C33.93 11.9401 26.54 14.6901 23.16 18.4501V18.4201Z" fill="url(#paint12_radial_53_14)"/>
<path style="mix-blend-mode:screen" fill-rule="evenodd" clip-rule="evenodd" d="M27.85 52.8899C23.85 53.8899 26.6 57.4299 29.04 58.6699C36.24 62.3399 46.04 61.4199 53.46 57.1599C58.0429 54.4526 61.6173 50.3235 63.64 45.3999C65.75 40.3999 63.28 34.0699 58.91 38.3099C54.16 42.9199 50.32 45.5499 45.53 47.4999C39.7796 49.7357 33.8697 51.5374 27.85 52.8899Z" fill="url(#paint13_radial_53_14)"/>
<path style="mix-blend-mode:screen" fill-rule="evenodd" clip-rule="evenodd" d="M45.39 59.8199C50.51 58.8199 56.66 56.0399 60.26 50.6199C61.43 48.8699 61.89 45.3199 59.26 47.7999C53.81 52.7999 50.87 54.5599 43.9 56.9499C39.45 58.4699 37.4601 58.6899 37.4301 59.3499C37.4301 60.2199 40.7601 60.7399 45.4301 59.8199H45.39Z" fill="url(#paint14_radial_53_14)"/>
<path style="mix-blend-mode:multiply" opacity="0.75" fill-rule="evenodd" clip-rule="evenodd" d="M28.53 23.6199C29.3097 23.9106 29.9773 24.4406 30.4371 25.134C30.897 25.8275 31.1255 26.6487 31.09 27.4799C31.0177 28.3759 30.6917 29.2326 30.15 29.9499C29.3021 30.6061 28.3124 31.0548 27.26 31.2599C26.5677 31.2292 25.8881 31.0627 25.26 30.7699C24.6023 30.5034 24.0374 30.0495 23.6356 29.4646C23.2338 28.8796 23.0128 28.1895 23 27.4799C22.9891 26.4904 23.3454 25.532 24 24.7899C24.5949 24.2513 25.3108 23.8638 26.087 23.6601C26.8633 23.4565 27.6772 23.4427 28.46 23.6199H28.53ZM27.12 34.5299C28.009 34.5578 28.8664 34.8658 29.5699 35.4099C30.3963 36.3049 30.9271 37.4327 31.09 38.6399C31.092 39.3003 30.9306 39.951 30.62 40.5338C30.3094 41.1166 29.8594 41.6134 29.3101 41.9799C28.5576 42.2882 27.7466 42.4275 26.9344 42.3877C26.1223 42.348 25.3287 42.1302 24.61 41.7499C23.7195 40.9435 23.1601 39.8353 23.04 38.6399C23.0406 37.8942 23.2224 37.1598 23.5699 36.4999C24.4646 35.4164 25.7297 34.7037 27.12 34.4999V34.5299ZM27.12 45.7699C28.44 45.6399 30.01 47.0399 30.25 47.4399C30.6781 48.1453 30.8741 48.9673 30.8101 49.7899C30.6501 52.0199 29.34 53.7899 27.12 53.7899C26.2772 53.7938 25.4548 53.5313 24.77 53.0399C23.8128 52.2004 23.2119 51.0273 23.09 49.7599C23.1622 48.7229 23.6069 47.747 24.3419 47.0119C25.077 46.2768 26.0529 45.8322 27.09 45.7599L27.12 45.7699ZM38.1899 23.4599L52.51 23.5899C53.4532 23.7236 54.355 24.0652 55.15 24.5899C55.9043 25.3829 56.3875 26.3948 56.53 27.4799C56.4486 28.1717 56.2596 28.8465 55.97 29.4799C55.5618 30.0333 55.0438 30.4965 54.4485 30.8407C53.8531 31.1848 53.1933 31.4024 52.51 31.4799L45.51 31.6499L38.23 31.4799C37.3882 31.4414 36.5726 31.1753 35.87 30.7099C34.9347 29.8684 34.3435 28.7109 34.21 27.4599C34.24 26.9706 34.3307 26.4869 34.48 26.0199C34.8445 25.2877 35.3589 24.6403 35.99 24.1199C36.7103 23.8142 37.4613 23.5863 38.23 23.4399L38.1899 23.4599ZM38.1899 34.6099H52.51C53.1282 34.6076 53.7381 34.7516 54.29 35.0299C55.3776 35.985 56.1572 37.2414 56.53 38.6399C56.5041 39.2352 56.3721 39.8211 56.14 40.3699C55.7 40.9899 54.14 42.6599 52.51 42.6599H38.1899C36.9287 42.4871 35.7662 41.8829 34.9 40.9499C34.5086 40.2348 34.2606 39.4501 34.17 38.6399C34.2053 38.1374 34.2991 37.6406 34.4499 37.1599C34.9633 36.3691 35.5977 35.6638 36.33 35.0699C36.9057 34.774 37.5426 34.6165 38.1899 34.6099ZM38.1899 45.7699L50.01 45.5799L52.51 45.7699C53.4436 45.9239 54.3104 46.352 55 46.9999C55.14 47.1699 56.48 48.7099 56.48 49.8399C56.4587 50.7528 56.2114 51.6462 55.76 52.4399C54.8594 53.2853 53.6926 53.7908 52.46 53.8699H38.14C37.2453 53.7868 36.3875 53.4733 35.65 52.9599C34.9344 52.0802 34.4713 51.0225 34.3101 49.8999C34.4525 48.6109 35.0229 47.4068 35.9301 46.4799C36.636 46.1679 37.3785 45.9462 38.14 45.8199L38.1899 45.7699Z" fill="url(#paint15_linear_53_14)"/>
<g style="mix-blend-mode:multiply" opacity="0.5">
<path fill-rule="evenodd" clip-rule="evenodd" d="M35.9301 46.43C35.0229 47.3568 34.4525 48.5609 34.3101 49.85C34.3111 50.0763 34.3413 50.3014 34.4 50.52C34.6612 49.4942 35.1891 48.5558 35.9301 47.8C36.6344 47.4834 37.3775 47.2615 38.14 47.14L50 47L52.5 47.19C53.4435 47.321 54.3273 47.728 55.04 48.36C55.6391 49.0397 56.1101 49.8223 56.43 50.67C56.4881 50.3971 56.5182 50.119 56.52 49.84C56.52 48.71 55.18 47.17 55.04 47C54.3305 46.3613 53.4457 45.9503 52.5 45.82L50 45.63L38.1801 45.82C37.4186 45.9462 36.676 46.1679 35.97 46.48L35.9301 46.43ZM30.1999 47.43C29.9599 47.03 28.3899 45.63 27.0699 45.76C26.0329 45.8322 25.057 46.2769 24.3219 47.0119C23.5868 47.747 23.1422 48.723 23.0699 49.76C23.0756 49.9793 23.1059 50.1974 23.16 50.41C23.3839 49.5142 23.8858 48.7124 24.5936 48.1196C25.3015 47.5267 26.1788 47.1733 27.1 47.11C28.42 46.97 29.99 48.37 30.23 48.78C30.4885 49.2068 30.6649 49.6783 30.75 50.17C30.75 50.04 30.75 49.9 30.75 49.76C30.814 48.9373 30.6181 48.1154 30.1899 47.41L30.1999 47.43ZM29.5699 35.43C28.8664 34.8858 28.009 34.5778 27.12 34.55C25.7297 34.7537 24.4646 35.4665 23.5699 36.55C23.2224 37.2098 23.0406 37.9442 23.04 38.69C23.0569 38.8515 23.0836 39.0118 23.12 39.17C23.2165 38.7359 23.3676 38.3159 23.5699 37.92C24.4646 36.8365 25.7297 36.1237 27.12 35.92C28.0099 35.9429 28.8688 36.2515 29.5699 36.8C30.2523 37.5512 30.749 38.452 31.02 39.43C31.0685 39.1762 31.0919 38.9183 31.09 38.66C30.9271 37.4527 30.3963 36.325 29.5699 35.43ZM36.28 35.09C35.5478 35.6839 34.9133 36.3891 34.4 37.18C34.2492 37.6607 34.1552 38.1574 34.12 38.66C34.12 38.79 34.17 39.01 34.22 39.26C34.28 39.01 34.34 38.75 34.4 38.55C34.9113 37.7576 35.546 37.052 36.28 36.46C36.8558 36.164 37.4927 36.0065 38.14 36H52.46C53.0786 35.993 53.6897 36.1372 54.24 36.42C55.1878 37.26 55.9185 38.3167 56.37 39.5C56.4342 39.2243 56.471 38.9429 56.48 38.66C56.1072 37.2614 55.3276 36.005 54.24 35.05C53.6881 34.7716 53.0781 34.6277 52.46 34.63H38.14C37.4927 34.6365 36.8558 34.794 36.28 35.09ZM35.9 24.16C35.269 24.6804 34.7545 25.3277 34.39 26.06C34.2407 26.527 34.15 27.0107 34.12 27.5C34.1219 27.7322 34.1487 27.9635 34.1999 28.19C34.2394 27.9313 34.303 27.6768 34.39 27.43C34.7545 26.6977 35.269 26.0504 35.9 25.53C36.6215 25.2251 37.372 24.994 38.14 24.84L52.46 24.98C53.4055 25.1045 54.3092 25.4468 55.1 25.98C55.6945 26.604 56.1302 27.3621 56.37 28.19C56.4311 27.9646 56.468 27.7332 56.48 27.5C56.3375 26.4149 55.8543 25.403 55.1 24.61C54.3049 24.0852 53.4032 23.7436 52.46 23.61L38.14 23.48C37.3713 23.6263 36.6204 23.8543 35.9 24.16ZM28.53 25.01C29.1469 25.2536 29.6966 25.6412 30.1332 26.1405C30.5698 26.6397 30.8807 27.2362 31.04 27.88C31.04 27.75 31.04 27.63 31.04 27.5C31.0756 26.6687 30.847 25.8475 30.3871 25.1541C29.9272 24.4607 29.2596 23.9306 28.48 23.64C27.6972 23.4627 26.8833 23.4765 26.1071 23.6802C25.3308 23.8838 24.615 24.2713 24.02 24.81C23.3654 25.5521 23.0091 26.5105 23.02 27.5C23.0192 27.7214 23.0392 27.9424 23.08 28.16C23.2195 27.4129 23.566 26.7199 24.08 26.16C24.6749 25.6213 25.3908 25.2338 26.1671 25.0302C26.9434 24.8265 27.7573 24.8127 28.54 24.99L28.53 25.01Z" fill="#260E18"/>
</g>
<g style="mix-blend-mode:screen" opacity="0.5">
<path fill-rule="evenodd" clip-rule="evenodd" d="M30.72 50.2001C30.43 52.2001 29.1499 53.8201 27.0699 53.8201C26.2272 53.8239 25.4047 53.5614 24.72 53.0701C23.9332 52.3769 23.3782 51.4589 23.13 50.4401C23.0716 51.184 23.1846 51.9314 23.4602 52.6249C23.7358 53.3183 24.1668 53.9393 24.72 54.4401C25.4047 54.9314 26.2272 55.1939 27.0699 55.1901C29.2899 55.1901 30.6 53.3901 30.76 51.1901C30.8035 50.8582 30.8035 50.522 30.76 50.1901L30.72 50.2001ZM35.65 54.2701C36.3853 54.7876 37.2443 55.1015 38.14 55.1801H52.46C53.6904 55.0996 54.8557 54.5982 55.76 53.7601C56.23 53.3001 56.4 51.9001 56.39 50.6201C56.3063 51.2477 56.0917 51.8507 55.76 52.3901C54.8594 53.2354 53.6926 53.741 52.46 53.8201H38.14C37.2453 53.737 36.3875 53.4234 35.65 52.9101C35.0977 52.192 34.6747 51.3833 34.4 50.5201C34.3247 51.8835 34.7717 53.2245 35.65 54.2701ZM38.14 44.0001H52.46C54.05 44.0001 55.56 42.2501 56.09 41.7001C56.2916 40.9676 56.3859 40.2097 56.37 39.4501C56.3128 39.7569 56.2188 40.0558 56.09 40.3401C55.65 40.9601 54.09 42.6301 52.46 42.6301H38.14C36.8787 42.4573 35.7162 41.853 34.85 40.9201C34.5417 40.3912 34.3285 39.8125 34.22 39.2101C34.1453 40.2718 34.3632 41.3336 34.85 42.2801C35.7152 43.2161 36.8777 43.8238 38.14 44.0001ZM29.3101 43.3201C30.5501 42.5201 30.99 41.3201 31.02 39.3801C30.9243 39.9021 30.7233 40.3991 30.4293 40.841C30.1353 41.2828 29.7546 41.6602 29.3101 41.9501C28.5576 42.2584 27.7466 42.3976 26.9344 42.3578C26.1223 42.3181 25.3287 42.1004 24.61 41.7201C23.8408 41.0286 23.3177 40.1053 23.12 39.0901C23.12 40.9801 23.55 42.1601 24.61 43.0901C25.3302 43.4658 26.1234 43.681 26.9348 43.7207C27.7462 43.7604 28.5566 43.6237 29.3101 43.3201ZM27.3101 32.5901C28.3631 32.393 29.3538 31.9473 30.2 31.2901C30.8959 30.278 31.2112 29.0523 31.09 27.8301C30.9752 28.5909 30.6689 29.3101 30.2 29.9201C29.352 30.5763 28.3624 31.0249 27.3101 31.2301C26.6177 31.1993 25.9382 31.0328 25.3101 30.7401C24.7588 30.511 24.2709 30.1523 23.8879 29.6945C23.5049 29.2366 23.2381 28.6931 23.11 28.1101C23.11 30.2401 23.6901 31.3501 25.3101 32.1101C25.9388 32.3996 26.6184 32.5627 27.3101 32.5901ZM35.83 32.0701C36.5325 32.5354 37.3481 32.8015 38.1899 32.8401L45.47 33.0001L52.47 32.8401C53.1532 32.7626 53.8132 32.5449 54.4086 32.2008C55.0039 31.8567 55.5219 31.3934 55.9301 30.8401C56.2741 29.9799 56.4276 29.0553 56.38 28.1301C56.279 28.595 56.1282 29.0476 55.9301 29.4801C55.5219 30.0334 55.0039 30.4967 54.4086 30.8408C53.8132 31.1849 53.1532 31.4025 52.47 31.4801L45.47 31.6501L38.1899 31.4801C37.3481 31.4415 36.5325 31.1754 35.83 30.7101C35.0909 30.0076 34.5466 29.1256 34.25 28.1501C34.46 30.3301 34.73 30.9701 35.83 32.0801V32.0701Z" fill="#FFA8A8"/>
</g>
<defs>
<linearGradient id="paint0_linear_53_14" x1="39.76" y1="78.13" x2="39.76" y2="0.510041" gradientUnits="userSpaceOnUse">
<stop stop-color="#692705"/>
<stop offset="1" stop-color="#823B00"/>
</linearGradient>
<radialGradient id="paint1_radial_53_14" cx="0" cy="0" r="1" gradientUnits="userSpaceOnUse" gradientTransform="translate(26.53 4.33529) scale(81.3656 81.3656)">
<stop stop-color="#F59547"/>
<stop offset="1" stop-color="#A14C1F"/>
</radialGradient>
<radialGradient id="paint2_radial_53_14" cx="0" cy="0" r="1" gradientUnits="userSpaceOnUse" gradientTransform="translate(31.3712 34.6894) scale(82.9313 82.9312)">
<stop stop-color="#CFA04D"/>
<stop offset="1" stop-color="white"/>
</radialGradient>
<radialGradient id="paint3_radial_53_14" cx="0" cy="0" r="1" gradientUnits="userSpaceOnUse" gradientTransform="translate(44.3824 76.9151) scale(102.167 102.167)">
<stop stop-color="#CFA04D"/>
<stop offset="1" stop-color="white"/>
</radialGradient>
<radialGradient id="paint4_radial_53_14" cx="0" cy="0" r="1" gradientUnits="userSpaceOnUse" gradientTransform="translate(69.2041 48.9701) scale(70.794 70.794)">
<stop offset="0.35"/>
<stop offset="1" stop-color="#CA9E67"/>
</radialGradient>
<radialGradient id="paint5_radial_53_14" cx="0" cy="0" r="1" gradientUnits="userSpaceOnUse" gradientTransform="translate(25.618 73.2521) scale(30.7192 30.7192)">
<stop stop-color="#B0670B"/>
<stop offset="1"/>
</radialGradient>
<linearGradient id="paint6_linear_53_14" x1="39.76" y1="70.1601" x2="39.76" y2="5.51012" gradientUnits="userSpaceOnUse">
<stop stop-color="#823B00"/>
<stop offset="1" stop-color="#692705"/>
</linearGradient>
<radialGradient id="paint7_radial_53_14" cx="0" cy="0" r="1" gradientUnits="userSpaceOnUse" gradientTransform="translate(38.7052 6.44816) scale(69.9275 69.9276)">
<stop stop-color="#095FCF"/>
<stop offset="1" stop-color="#003F96"/>
</radialGradient>
<radialGradient id="paint8_radial_53_14" cx="0" cy="0" r="1" gradientUnits="userSpaceOnUse" gradientTransform="translate(35.1788 6.37192) scale(69.4033 69.4032)">
<stop stop-color="#2989FF"/>
<stop offset="1"/>
</radialGradient>
<radialGradient id="paint9_radial_53_14" cx="0" cy="0" r="1" gradientUnits="userSpaceOnUse" gradientTransform="translate(44.7852 17.6198) scale(43.3579 43.358)">
<stop stop-color="#2989FF"/>
<stop offset="1"/>
</radialGradient>
<radialGradient id="paint10_radial_53_14" cx="0" cy="0" r="1" gradientUnits="userSpaceOnUse" gradientTransform="translate(38.8876 3.02806) scale(58.9683 58.9684)">
<stop stop-color="#2989FF"/>
<stop offset="1"/>
</radialGradient>
<radialGradient id="paint11_radial_53_14" cx="0" cy="0" r="1" gradientUnits="userSpaceOnUse" gradientTransform="translate(65.2824 63.0754) scale(46.6868 46.6868)">
<stop stop-color="#2989FF"/>
<stop offset="1"/>
</radialGradient>
<radialGradient id="paint12_radial_53_14" cx="0" cy="0" r="1" gradientUnits="userSpaceOnUse" gradientTransform="translate(42.4824 8.43933) scale(56.2323 56.2324)">
<stop stop-color="#69DFFF"/>
<stop offset="1"/>
</radialGradient>
<radialGradient id="paint13_radial_53_14" cx="0" cy="0" r="1" gradientUnits="userSpaceOnUse" gradientTransform="translate(65.7232 66.1003) scale(40.014 40.014)">
<stop stop-color="#2989FF"/>
<stop offset="1"/>
</radialGradient>
<radialGradient id="paint14_radial_53_14" cx="0" cy="0" r="1" gradientUnits="userSpaceOnUse" gradientTransform="translate(66.7112 62.9767) scale(24.2972 24.2972)">
<stop stop-color="#2989FF"/>
<stop offset="1"/>
</radialGradient>
<linearGradient id="paint15_linear_53_14" x1="39.76" y1="31.2599" x2="39.76" y2="23.4699" gradientUnits="userSpaceOnUse">
<stop stop-color="#0856FF"/>
<stop offset="1" stop-color="#0007AD"/>
</linearGradient>
</defs>
</svg>
