<svg width="400" height="100" viewBox="0 0 501 115" fill="none" xmlns="http://www.w3.org/2000/svg">
<path fill-rule="evenodd" clip-rule="evenodd" d="M18.71 101.7C14.6529 72.8563 12.1659 43.8135 11.26 14.7L0.710022 4.13C1.79002 36.7 4.85002 72.44 9.85002 101.86L18.7 101.7H18.71Z" fill="url(#paint0_linear_53_44)"/>
<path fill-rule="evenodd" clip-rule="evenodd" d="M11.24 14.6401C174.24 10.4901 337.24 8.76009 500.16 14.2501C500.44 10.8001 500.71 7.41012 500.96 4.10013C334.2 -1.89987 167.45 -0.149875 0.700012 4.10013L11.24 14.6401Z" fill="url(#paint1_linear_53_44)"/>
<path style="mix-blend-mode:screen" fill-rule="evenodd" clip-rule="evenodd" d="M491.14 101.86C330.02 99.75 180.74 98.8601 18.69 101.7L9.84003 101.86C6.64003 83.04 4.24001 61.6201 2.64001 40.1001C3.15001 63.5701 4.83003 85.6701 7.03003 110.27C30.2834 109.19 53.48 108.257 76.62 107.47C88.72 111.05 109.29 114.25 116.91 114.12C122.43 114.02 129.34 111.76 137.59 105.73C256.74 103 375.17 104.2 495.1 109.37C497.5 79.4701 499.49 54.1401 499.26 24.8401C496.92 51.6701 493.87 80.5501 491.14 101.84V101.86Z" fill="url(#paint2_radial_53_44)"/>
<path style="mix-blend-mode:multiply" fill-rule="evenodd" clip-rule="evenodd" d="M0.710022 4.13003C167.46 -0.119968 334.21 -1.86997 500.97 4.13003C498.57 35.83 494.6 74.9 491.15 101.86C327.15 99.72 175.33 98.81 9.85002 101.86C4.85002 72.44 1.79002 36.7 0.710022 4.13003Z" fill="url(#paint3_linear_53_44)"/>
<defs>
<linearGradient id="paint0_linear_53_44" x1="0.700022" y1="53" x2="18.69" y2="53" gradientUnits="userSpaceOnUse">
<stop stop-color="#FFB815"/>
<stop offset="1" stop-color="#7F3300"/>
</linearGradient>
<linearGradient id="paint1_linear_53_44" x1="250.83" y1="14.6701" x2="250.83" y2="0.270125" gradientUnits="userSpaceOnUse">
<stop stop-color="#6A3E00"/>
<stop offset="1" stop-color="#D4A000"/>
</linearGradient>
<radialGradient id="paint2_radial_53_44" cx="0" cy="0" r="1" gradientUnits="userSpaceOnUse" gradientTransform="translate(188.37 0.0900667) scale(738.18 738.18)">
<stop stop-color="#FFDE55"/>
<stop offset="1" stop-color="#553B00"/>
</radialGradient>
<linearGradient id="paint3_linear_53_44" x1="250.83" y1="101.86" x2="250.83" y2="0.270027" gradientUnits="userSpaceOnUse">
<stop stop-color="#FFF5AA"/>
<stop offset="0.65" stop-color="#FFBE15"/>
<stop offset="1" stop-color="#FFDE6A"/>
</linearGradient>
</defs>
</svg>
