<svg width="265" height="86" viewBox="0 0 265 86" fill="none" xmlns="http://www.w3.org/2000/svg">
<path d="M264.64 38.24C264.319 37.0806 263.894 35.9526 263.37 34.87C263.37 34.81 263.32 34.76 263.3 34.7C262.71 33.3 262.02 31.95 261.3 30.61C260.94 29.94 260.56 29.28 260.19 28.61C260.118 28.4855 260.034 28.3683 259.94 28.26C259.85 28.1386 259.772 28.0079 259.71 27.87C259.532 27.5549 259.335 27.251 259.12 26.96C258.448 25.9475 257.663 25.0148 256.78 24.18C256.34 23.7923 255.857 23.4567 255.34 23.18C255.051 23.032 254.75 22.9082 254.44 22.81C254.15 22.7313 253.856 22.6679 253.56 22.62C253.56 22.47 253.56 22.31 253.61 22.17C253.66 22.03 253.61 21.85 253.61 21.69C253.59 21.3535 253.543 21.0191 253.47 20.69C253.301 20.0618 253.07 19.4521 252.78 18.87C252.458 18.2254 252.098 17.6009 251.7 17C251.5 16.7 251.28 16.4 251.06 16.11C250.84 15.82 250.85 15.62 250.7 15.39L250.32 14.77C250.234 14.6459 250.157 14.5155 250.09 14.38C249.989 14.2036 249.865 14.0421 249.72 13.9C249.427 13.5734 249.147 13.24 248.88 12.9C246.856 10.2884 244.593 7.87123 242.12 5.67999C241.018 4.74589 239.829 3.91886 238.57 3.21002C238.21 3.01002 237.85 2.82998 237.49 2.66998C234.782 1.60976 231.886 1.11624 228.98 1.21997L219.57 1.07001L210.15 0.929993L200.72 0.799988L191.28 0.700012L181.83 0.609985L172.37 0.539978L162.91 0.47998H153.43H143.95H125H115.49H105.98L96.45 0.539978L86.92 0.619995L77.37 0.710022L67.82 0.820007C60.4 0.910007 53.06 0.979976 45.55 1.09998C39.69 1.18998 32.95 1.16 28.03 5C25.4047 7.14695 23.0086 9.55981 20.88 12.2C18.41 15.04 16.05 17.98 13.79 20.99C11.68 23.82 9.61998 26.7 7.78997 29.72C6.13997 32.43 4.33997 35.05 2.67997 37.72C1.27997 40 -0.15002 42.57 0.0299801 45.34C0.15998 47.25 1.31998 49.24 2.11998 50.96C2.52998 51.85 3.05997 52.67 3.53997 53.52C4.00058 54.3277 4.52562 55.0968 5.10998 55.82C5.43242 56.2578 5.84073 56.6253 6.30998 56.9C7.23998 57.37 8.43998 57.15 9.30998 57.74C9.0119 57.8092 8.74362 57.9715 8.54403 58.2035C8.34445 58.4354 8.22393 58.725 8.19998 59.03C8.16959 59.641 8.2826 60.2505 8.52998 60.81C9.26092 62.7884 10.196 64.6853 11.32 66.47C12.5028 68.1789 13.7955 69.809 15.19 71.35C16.7633 73.25 18.4033 75.0967 20.11 76.89C21.7319 78.7179 23.5195 80.3917 25.45 81.89C28.83 84.25 32.72 84.04 36.65 84.13C49.18 84.43 61.73 85.02 74.27 85.02C90.17 85.3067 106.073 85.4767 121.98 85.53C137.887 85.5834 153.753 85.51 169.58 85.31C185.413 85.11 201.24 84.7767 217.06 84.31C221.605 84.2751 226.144 84.0014 230.66 83.49C232.735 83.3427 234.74 82.6755 236.49 81.55C239.29 79.64 241.49 76.55 243.67 74.02C245.09 72.3667 246.483 70.7 247.85 69.02C249.09 67.48 250.45 66.14 250.93 64.21C250.978 63.9282 251.076 63.6571 251.22 63.41C251.431 63.1616 251.689 62.9577 251.98 62.81C253.98 61.57 255.2 59.23 256.4 57.3C258.54 53.87 260.49 50.3 262.4 46.79C263.82 44.28 265.33 41.31 264.64 38.24Z" fill="url(#paint0_linear_53_29)"/>
<path d="M262.38 46.87C262.01 47.54 261.63 48.23 261.25 48.87C261.1 49.15 260.95 49.42 260.79 49.69C259.65 51.69 258.43 53.69 257.09 55.62C256.37 56.62 255.61 57.62 254.82 58.62C254.195 59.5721 253.352 60.3607 252.36 60.92C252.172 61.0063 251.978 61.0799 251.78 61.14C251.127 61.3158 250.456 61.4197 249.78 61.45L244.1 61.99H244C243 62.1 241.95 62.19 240.93 62.29C242.305 62.21 243.684 62.21 245.06 62.29C247.027 62.431 248.98 62.7286 250.9 63.18C250.433 64.4135 249.757 65.557 248.9 66.56C246.21 69.69 243.65 73.36 240.2 75.72C238.446 76.8424 236.438 77.5061 234.36 77.65C229.852 78.171 225.318 78.4447 220.78 78.47C204.947 78.9233 189.117 79.2566 173.29 79.47C165.59 79.5566 157.893 79.6233 150.2 79.67H144.49C138.217 79.67 131.95 79.67 125.69 79.67C109.79 79.6233 93.8833 79.4533 77.97 79.16C74.08 79.16 70.18 79.1 66.28 79.01C57.64 78.82 48.99 78.47 40.36 78.27C36.43 78.18 32.53 78.39 29.16 76.02C27.2204 74.5324 25.4318 72.8577 23.82 71.02L23.31 70.48C21.83 68.9 20.3933 67.2766 19 65.61C17.85 64.24 16.73 62.86 15.53 61.52C15.0381 60.923 14.5998 60.2839 14.22 59.61C13.6118 58.7587 13.1489 57.8126 12.85 56.81C12.8255 56.7231 12.8191 56.6322 12.8311 56.5427C12.8431 56.4533 12.8734 56.3673 12.92 56.29C13.0295 56.181 13.1757 56.1168 13.33 56.11C16.14 55.62 19.07 55.89 21.84 55.33C22.4007 55.2315 22.9525 55.0877 23.49 54.9H15.83C15.1857 54.9083 14.5414 54.8816 13.9 54.82C13.65 54.82 13.42 54.75 13.17 54.7C12.0309 54.4302 10.991 53.8444 10.17 53.01C9.77357 52.5881 9.43708 52.1136 9.17 51.6C8.03 49.47 6.88 47.35 5.87 45.15C5.08 43.43 3.87 41.44 3.79 39.52C3.78501 39.4234 3.78501 39.3266 3.79 39.23C3.77808 37.9256 4.04398 36.6337 4.57001 35.44C5.50463 33.4526 6.59119 31.5402 7.82001 29.72C9.65001 26.72 11.71 23.82 13.82 20.99C16.07 17.99 18.43 15.05 20.9 12.2C21.35 11.67 21.79 11.2 22.23 10.68C23.9734 8.59814 25.9233 6.69844 28.05 5.01001C32.97 1.16001 39.71 1.18998 45.57 1.09998C53.09 0.979976 60.43 0.910007 67.84 0.820007C71.03 0.770007 74.21 0.740022 77.39 0.710022L86.94 0.619995L96.47 0.539978L106 0.47998H115.51H125.02H144.02H153.49H162.96C166.13 0.47998 169.28 0.479978 172.43 0.539978L181.89 0.609985L191.33 0.690002C194.48 0.690002 197.63 0.759998 200.78 0.809998C203.93 0.859998 207.06 0.879993 210.2 0.929993L219.62 1.06L229.03 1.21997C231.939 1.12023 234.838 1.61359 237.55 2.66998C237.91 2.82998 238.27 3.01002 238.63 3.21002C241.536 4.94018 244.123 7.15558 246.28 9.76001C246.8 10.34 247.28 10.93 247.84 11.52C248.743 12.5209 249.575 13.5834 250.33 14.7C251.22 16.04 252.07 17.4 252.85 18.81C253.05 19.18 253.25 19.68 252.97 20.01C252.835 20.1548 252.656 20.2499 252.46 20.28H252.39C249.653 21.0252 246.836 21.4348 244 21.5C245.25 21.72 246.51 21.9 247.79 22.02C249.45 22.2116 251.119 22.3184 252.79 22.34C254.001 22.2477 255.216 22.4644 256.32 22.97H256.38C257.64 23.75 258.31 25.4 259.03 26.64C259.83 28.04 260.61 29.45 261.49 30.81C262.106 31.8516 262.628 32.946 263.05 34.08C263.17 34.34 263.27 34.59 263.37 34.84C263.896 35.9254 264.321 37.0568 264.64 38.22C265.33 41.31 263.82 44.28 262.38 46.87Z" fill="url(#paint1_linear_53_29)"/>
<path d="M256.38 22.9999C250.85 24.2499 243.49 23.4399 239.5 23.7999C235.02 24.1999 230.57 24.7999 226.11 25.3699C223.76 25.6799 221.42 25.9799 219.06 26.2499C217.225 26.3504 215.41 26.6865 213.66 27.2499C211.89 27.9199 209.96 27.7699 208.1 27.8299C205.76 27.8999 203.41 27.9999 201.1 28.1199C191.767 28.5999 182.433 29.4465 173.1 30.6598C168.433 31.2732 163.797 31.9732 159.19 32.7599C156.877 33.1532 154.57 33.5699 152.27 34.0099L148.82 34.6899L147.03 35.0599C146.541 35.2378 146.029 35.3455 145.51 35.3799C147.835 35.7818 150.048 36.675 152 37.9999C131.483 41.0904 110.824 43.1497 90.1 44.1699C86.058 44.4449 82.002 44.4449 77.96 44.1699C75.9759 44.0097 74.0069 43.6988 72.07 43.2399C69.39 42.5899 66.52 42.9199 63.75 42.8799C58.75 42.8199 53.75 42.6699 48.82 42.3899C39.97 41.9099 31.14 41.3099 22.31 40.7499C16.46 40.3799 9.62002 40.6699 3.69002 39.2299C3.6781 37.9255 3.94399 36.6335 4.47002 35.4399C10.97 34.7199 18.31 35.8299 24.47 35.9299C33.31 36.0799 42.15 35.9299 50.99 35.6799C68.29 35.2199 85.6 35.5099 102.92 34.8099C115.09 34.2999 127.09 32.9398 139.08 31.2299C131.08 31.1699 123.14 30.8699 115.14 30.2299C97.8 28.8899 80.24 26.7199 62.86 27.5199C54.1042 27.7718 45.3413 27.4377 36.63 26.5199C32.2918 26.2708 27.9792 25.6891 23.73 24.7799C20.22 23.9299 17.02 22.3099 13.73 20.9999C15.98 17.9999 18.34 15.0599 20.81 12.2099C21.26 11.6799 21.7 11.2099 22.14 10.6899C24.0596 10.3989 25.9986 10.2551 27.94 10.2599C33.0599 10.4852 38.164 10.9859 43.23 11.7599C52.68 12.9099 61.54 15.2199 70.78 17.3199C80.31 19.4899 90.28 20.2499 99.97 21.4299C109.37 22.5899 118.76 23.4299 128.23 23.7299C145.772 24.3214 163.328 23.0712 180.61 19.9999C197.27 16.9999 214.05 14.0599 230.96 12.9999C236.24 12.6599 242.12 11.7398 247.78 11.5998C248.683 12.6007 249.515 13.6633 250.27 14.7799C251.16 16.1199 252.01 17.4799 252.79 18.8899C252.99 19.2599 253.19 19.7599 252.91 20.0899C252.754 20.2483 252.55 20.3503 252.33 20.3799C249.608 21.0865 246.812 21.4625 244 21.4999C246.907 22.0093 249.849 22.2902 252.8 22.3399C254.011 22.2475 255.226 22.4643 256.33 22.9698L256.38 22.9999ZM264.64 38.2499C264.321 37.0867 263.896 35.9553 263.37 34.8699C263.27 34.6199 263.17 34.3699 263.05 34.1099C260.89 34.1099 258.73 34.1099 256.58 34.0499C247.88 33.9699 239.16 34.0498 230.46 34.2198C212.32 34.6398 194.86 37.3899 177.1 40.9399C173.21 41.7199 169.27 42.1799 165.34 42.7999L153 44.7299C143.553 46.2032 134.1 47.6532 124.64 49.0799L110.45 51.2198L103.35 52.2198C101.07 52.5598 98.71 53.1198 96.4 53.2198C105.5 52.7498 114.58 54.2899 123.51 56.0899C116.27 56.7099 109.057 57.5932 101.87 58.7399C97.2433 59.4665 92.6334 60.3099 88.04 61.2699C85.75 61.7399 83.48 62.3399 81.19 62.7699C80.481 62.8661 79.7642 62.8928 79.05 62.8498C77.23 62.8498 75.41 63.6299 73.7 64.1299C63.95 66.9299 54.07 67.6199 44.08 68.9999C37.14 69.9999 30.21 70.1599 23.28 70.4899L23.79 71.0299C25.4018 72.8676 27.1904 74.5423 29.13 76.0299C32.5 78.3999 36.4 78.1899 40.33 78.2799C48.96 78.4799 57.61 78.8299 66.25 79.0199C82.93 76.5699 97.74 68.9698 113.68 63.4799C130.9 57.5499 149.03 53.9399 167.07 51.6899C177.93 50.3399 188.88 50.4299 199.83 50.6899C179.27 56.6299 161.83 67.6099 144.46 79.6899H150.17C166.477 68.3067 185.127 60.721 204.75 57.4899C216.4 55.6899 228.3 56.2999 240.05 56.0199L257.05 55.5998C258.39 53.6898 259.61 51.6899 260.75 49.6699C260.91 49.3999 261.06 49.1298 261.21 48.8498C261.59 48.1798 261.97 47.4898 262.34 46.8498C263.82 44.2798 265.33 41.3099 264.64 38.2499Z" fill="url(#paint2_linear_53_29)"/>
<path d="M252 36.0498C252.469 37.5467 253.276 38.9155 254.36 40.0498C254.577 40.2241 254.72 40.4743 254.76 40.7498C254.747 40.9097 254.695 41.064 254.61 41.1998L252.47 45.4698C252.1 46.1898 251.74 46.9098 251.38 47.6298C251.205 47.9501 251.058 48.2846 250.94 48.6298C250.654 49.2992 250.251 49.9122 249.75 50.4398C248.92 51.5675 248.025 52.646 247.07 53.6698C246.648 54.0012 246.254 54.3657 245.89 54.7598C244.89 56.1098 243.89 57.4898 243.07 58.9298C242.822 59.4604 242.647 60.0222 242.55 60.5998C242.457 60.9066 242.304 61.1921 242.1 61.4398C240.977 62.6547 239.774 63.7938 238.5 64.8498C237.531 65.9393 236.488 66.9617 235.38 67.9098C232.38 70.1098 228.52 69.4198 224.86 69.8198C217.54 70.6198 210.15 69.8998 202.79 69.6498C192.28 69.2898 182.62 70.8398 172.1 70.6498L156.83 70.4198L158.27 73.1598C153.41 70.5198 147.64 70.3298 142.12 70.2498C135.52 70.1698 128.93 70.1698 122.34 70.1698C121.211 70.0763 120.077 70.2653 119.04 70.7198C118.531 70.9655 118.128 71.3882 117.907 71.9089C117.686 72.4296 117.662 73.0128 117.84 73.5498C117.38 71.3998 114.57 70.9098 112.37 70.8798L52 70.1498C49.64 70.1498 47.28 70.1498 44.92 69.9698C42.6848 69.8629 40.4577 69.6259 38.25 69.2598C37.15 69.0698 36.06 68.8398 34.98 68.5598C34.45 68.4198 33.91 68.2598 33.38 68.0898C32.7735 67.8863 32.2055 67.582 31.7 67.1898C31.3107 66.9798 30.97 66.6902 30.7 66.3398C29.7287 64.7557 28.6424 63.245 27.45 61.8198C26.6 60.7698 25.71 59.7498 24.8 58.7598L23.4 57.2498C22.3868 56.0797 21.5204 54.7901 20.82 53.4098C18.2197 48.6414 15.8829 43.7341 13.82 38.7098C19.48 45.8698 26 52.7098 31.66 59.8298C33.17 61.7398 34.75 63.7098 36.93 64.8298C39.11 65.9498 41.74 66.0698 44.23 66.1498C104.49 68.1498 164.763 67.6965 225.05 64.7898C228.38 64.6298 231.85 64.4198 234.76 62.7898C237.068 61.3253 239.044 59.3939 240.56 57.1198C245.27 50.9998 249 43.1598 252 36.0498Z" fill="#EB924D"/>
<path d="M184.76 9.27026C184.296 9.98382 183.686 10.5906 182.97 11.0502C181.885 11.536 180.676 11.6723 179.51 11.4402C178.73 11.3502 177.94 11.2202 177.17 11.0602C178.505 10.5721 179.89 10.2366 181.3 10.0602C181.646 10.0377 181.984 9.95303 182.3 9.81024C182.591 9.62936 182.846 9.39528 183.05 9.12024C183.67 8.41024 184.3 7.71022 184.95 7.04022C185.6 6.37022 186.27 5.70022 186.95 5.04022C187.14 4.86022 187.33 4.68025 187.53 4.51025L187.83 4.24023C187.904 4.15977 187.988 4.08923 188.08 4.03027C187.7 4.74027 187.24 5.41027 186.81 6.09027C186.38 6.77027 185.94 7.45027 185.48 8.09027C185.28 8.54027 185 8.91026 184.76 9.27026Z" fill="#EB924D"/>
<path d="M21.18 25.7902C21.3089 25.8208 21.4309 25.8751 21.54 25.9503C21.6392 26.0639 21.7114 26.1984 21.7512 26.3439C21.7911 26.4894 21.7975 26.6419 21.77 26.7902C21.77 27.3502 21.77 27.9202 21.72 28.4802C22.44 27.2502 23.14 26.0103 23.82 24.7503C22.6473 24.2394 21.3617 24.0429 20.09 24.1803H18.41H17.16C17.09 24.1803 16.84 24.1803 16.79 24.1803C16.52 24.4303 17.64 24.6902 17.79 24.7202L19.41 25.1903L21.18 25.7902Z" fill="#EB924D"/>
<path d="M28.37 52.83C27.7823 51.8833 27.4642 50.7941 27.45 49.68C27.4555 49.4922 27.5106 49.3094 27.61 49.15C27.8157 48.9437 28.0894 48.8193 28.38 48.8C32.46 48.08 36.5633 47.5 40.69 47.06C39.8609 46.7948 38.9861 46.7028 38.12 46.79C35.3353 46.94 32.5447 46.94 29.76 46.79C28.1729 46.5908 26.5634 46.6618 25 47C25.5846 48.1962 26.1086 49.4211 26.57 50.67C27.033 51.9247 27.8491 53.0187 28.92 53.82C28.7803 53.4676 28.5954 53.1348 28.37 52.83Z" fill="#EB924D"/>
<path d="M242.77 36.48C243.718 36.5574 244.646 36.8011 245.51 37.2C246.374 37.595 247.049 38.313 247.39 39.2C247.61 40.09 247.61 41.0201 247.39 41.91C248.073 41.1467 248.578 40.2418 248.87 39.26C248.935 39.0879 248.955 38.9022 248.93 38.72C248.894 38.5819 248.837 38.4503 248.76 38.3301C248.32 37.5801 247.86 36.84 247.4 36.11C247.281 35.9119 247.133 35.7332 246.96 35.5801C246.663 35.3792 246.318 35.2617 245.96 35.24H245.64C244.465 35.1016 243.282 35.0581 242.1 35.11C241.892 35.1137 241.685 35.0969 241.48 35.06C241.255 35.0415 241.029 35.0583 240.81 35.11C240.23 35.21 239.64 35.29 239.06 35.35C238.48 35.41 237.88 35.45 237.29 35.47H236.41H236C235.857 35.485 235.713 35.485 235.57 35.47L236.99 35.74L238.74 36.0801L239.62 36.2701C239.719 36.2851 239.821 36.2851 239.92 36.2701C240.083 36.25 240.247 36.25 240.41 36.2701C241.12 36.3201 241.82 36.36 242.53 36.43L242.77 36.48Z" fill="#EB924D"/>
<path d="M254 38.7902C253.302 37.0626 252.473 35.3911 251.52 33.7902C250.28 31.7202 248.88 29.6102 247.37 27.5002C243.62 22.2802 239.37 15.3202 233.64 12.1402C233.551 12.0887 233.457 12.0452 233.36 12.0102C231.884 11.5446 230.336 11.3448 228.79 11.4202L219.39 11.2702L209.99 11.1302L200.57 11.0102H197.85C195.73 11.0102 193.6 11.0102 191.48 10.8802C190.54 10.8202 189.61 10.9502 188.66 10.8802C187.501 10.8131 186.348 10.666 185.21 10.4402L188.39 3.68018C187.232 4.92783 186.153 6.24712 185.16 7.63019C184.71 8.33284 184.183 8.98348 183.59 9.57019C183.154 10.043 182.635 10.4327 182.06 10.7202C181.517 10.8885 180.948 10.963 180.38 10.9402C178.01 10.9402 175.63 11.0902 173.29 10.9402C168.99 10.6002 164.63 10.7702 160.29 10.7502C148.51 10.6902 136.72 10.6502 124.94 10.6902H115.43C109.11 10.6902 102.777 10.7235 96.43 10.7902L86.92 10.8702L77.39 10.9602C68.52 10.9602 59.64 11.1702 50.77 11.3002C46.21 11.3602 38.08 10.0602 34.19 13.1002C32.0823 14.8462 30.162 16.8068 28.46 18.9502C28 19.4702 27.57 20.0102 27.11 20.5302C26.8257 20.7894 26.5585 21.0666 26.31 21.3602C26.0405 21.8298 25.7256 22.2719 25.37 22.6802C24.9885 23.0551 24.5318 23.3449 24.03 23.5302C23.2618 23.7802 22.4577 23.9018 21.65 23.8902L18.34 24.0402C17.4644 24.0154 16.594 24.1827 15.79 24.5302C18.1253 24.3651 20.4687 24.7062 22.66 25.5302C22.75 25.5302 22.84 25.6102 22.87 25.6902C22.8857 25.7846 22.8641 25.8813 22.81 25.9602C22.4903 26.4903 22.0963 26.9719 21.64 27.3902C21.2261 27.8466 20.8576 28.3422 20.54 28.8702C20.08 29.4902 19.63 30.1202 19.19 30.7502C18.19 32.1602 17.25 33.5902 16.36 35.0502C16.08 35.5202 15.79 35.9902 15.49 36.4702C15.01 37.2202 14.36 38.2502 14 38.9702C14.12 39.2402 14.26 39.5202 14.37 39.7602C14.59 40.1802 14.78 40.5902 14.97 40.9902C16.3733 44.0407 17.9907 46.988 19.81 49.8102C21.46 52.3902 23.24 54.8902 25.09 57.2502C26.94 59.6102 28.97 61.9602 31.09 64.1402L31.71 64.7902C33.27 66.4402 34.45 68.1002 36.87 68.1602C50.55 68.5502 64.24 69.1602 77.92 69.1602H78.11C88.97 69.3735 99.8333 69.5202 110.7 69.6002C111.76 69.6002 112.85 69.5202 113.93 69.5202H117.27C117.404 69.5021 117.541 69.5152 117.669 69.5586C117.798 69.602 117.914 69.6744 118.01 69.7702C118.105 69.959 118.127 70.1765 118.07 70.3802C117.657 72.9935 117.253 75.6002 116.86 78.2002L120.19 70.2002C120.253 70.0117 120.359 69.8405 120.5 69.7002C120.691 69.5689 120.918 69.4992 121.15 69.5002C122.27 69.3702 123.4 69.3702 124.52 69.5002C124.996 69.604 125.483 69.6543 125.97 69.6502C126.51 69.6502 127.05 69.6502 127.59 69.6502H135.08C140.79 69.6502 146.52 69.5902 152.23 69.5902C153.532 69.6227 154.795 70.0402 155.86 70.7902C157.117 71.7021 158.227 72.8016 159.15 74.0502C158.688 72.6576 158.311 71.2383 158.02 69.8002L161.96 69.4202C163.02 69.3202 164.03 69.5202 165.09 69.5102C167.76 69.5102 170.44 69.4202 173.09 69.4202C188.81 69.2102 204.74 68.8902 220.41 68.4202H221.63C225.19 68.3102 231.03 69.0502 234.32 67.4202C234.798 67.146 235.221 66.7867 235.57 66.3602C238.39 63.3002 241.16 60.1002 243.75 56.8302C245.35 54.8302 246.86 52.7702 248.23 50.7602C250.03 48.1102 251.6 45.3202 253.47 41.9502C253.67 41.5802 254.2 40.6202 254.47 39.9502L254 38.7902ZM243.6 47.6102C242.31 49.5302 240.88 51.4502 239.37 53.3502C237.04 56.3002 234.37 59.3502 231.51 62.5102C230.197 62.7944 228.853 62.9119 227.51 62.8602C226.62 62.8602 225.73 62.8602 224.89 62.8102C224.05 62.7602 223.19 62.8102 222.42 62.8102H221.51H220.3C204.66 63.2502 188.76 63.5802 173.06 63.8102C160.49 63.9702 147.73 64.0402 135.06 64.0402H125.67C109.95 64.0402 93.98 63.8202 78.19 63.5302H78C68.07 63.5302 58 63.2002 48.24 62.8802L37.36 62.5502C37.11 62.3202 36.74 61.9202 36.46 61.6102C36.18 61.3002 36.03 61.1402 35.8 60.9102L35.18 60.2602C33.2013 58.1967 31.3289 56.034 29.57 53.7802C28.9934 53.1414 28.4493 52.4739 27.94 51.7802C27.39 50.9102 26.83 50.0402 26.28 49.1602C26.2011 49.069 26.1424 48.9622 26.1079 48.8467C26.0734 48.7312 26.0639 48.6096 26.08 48.4902C26.18 48.1702 26.59 48.0902 26.93 48.0602L41.93 46.9402L27.54 45.5502C26.5164 45.5027 25.5054 45.3039 24.54 44.9602C23.867 44.6921 23.2794 44.2462 22.84 43.6702C22.65 43.4102 22.52 43.1302 22.33 42.8802C22.0816 42.5017 21.8578 42.1075 21.66 41.7002C21.39 41.2002 21.14 40.7002 20.89 40.1902C20.84 40.0902 20.39 39.3502 20.44 39.2702C20.72 38.8402 20.99 38.4102 21.24 37.9902C22.89 35.2902 24.86 32.5802 26.4 30.5202C28.4 27.8502 30.54 25.1902 32.78 22.6002C34.2565 20.7432 35.911 19.0351 37.72 17.5002C37.9 17.3702 39 16.6702 43.15 16.6702C44.44 16.6702 45.77 16.7402 47.06 16.7902C48.35 16.8402 49.43 16.8902 50.5 16.8902H50.92L58.92 16.7702C65 16.6702 71.28 16.5602 77.45 16.5602L87.02 16.4702L96.54 16.3902C102.86 16.3502 109.193 16.3168 115.54 16.2902H125.02H134.75C152.88 16.2902 171.33 16.3802 191.14 16.5702C194.29 16.5702 197.42 16.6402 200.56 16.6902L209.96 16.8102C213.09 16.8102 216.22 16.9002 219.35 16.9502C222.48 17.0002 225.6 17.0502 228.73 17.1002C229.553 17.0894 230.375 17.1395 231.19 17.2502C234.85 19.3802 238.19 24.1402 241.1 28.3402C241.69 29.1902 242.28 30.0402 242.84 30.8302C243.4 31.6202 244.34 32.4202 244.23 33.4902C241.01 34.9639 237.501 35.6985 233.96 35.6402C237.779 35.6867 241.592 35.9538 245.38 36.4402C245.646 36.4559 245.907 36.5203 246.15 36.6302C246.73 36.9402 246.9 37.6302 247.26 38.1202C247.43 38.3502 247.66 38.4802 247.81 38.7102C247.96 38.9402 248.4 39.7102 248.33 39.8402C246.64 42.7702 245.2 45.2902 243.62 47.6102H243.6Z" fill="url(#paint3_linear_53_29)"/>
<path d="M250.88 63.2701C250.413 64.5037 249.736 65.6472 248.88 66.6501C246.19 69.7801 243.63 73.4501 240.18 75.8101C238.426 76.9325 236.418 77.5962 234.34 77.7401C229.832 78.2611 225.298 78.5349 220.76 78.5601C204.927 79.0135 189.097 79.3468 173.27 79.5601C165.57 79.6468 157.873 79.7135 150.18 79.7601H144.47C138.197 79.7601 131.93 79.7601 125.67 79.7601C109.77 79.7135 93.8633 79.5435 77.95 79.2501C74.06 79.2501 70.16 79.1901 66.26 79.1001C57.62 78.9101 48.97 78.5601 40.34 78.3601C36.41 78.2701 32.51 78.4801 29.14 76.1101C27.2004 74.6225 25.4117 72.9478 23.8 71.1101L23.29 70.5701C21.81 68.9901 20.3733 67.3668 18.98 65.7001C17.83 64.3301 16.71 62.9501 15.51 61.6101C15.0181 61.0131 14.5797 60.374 14.2 59.7001C13.5918 58.8489 13.1288 57.9027 12.83 56.9001C12.8055 56.8133 12.799 56.7223 12.8111 56.6329C12.8231 56.5434 12.8534 56.4574 12.9 56.3801C13.0094 56.2711 13.1556 56.207 13.31 56.2001C16.12 55.7101 19.05 55.9801 21.82 55.4201L23.29 55.3501C21.1054 56.0765 18.8545 56.5857 16.57 56.8701C16.0434 56.8643 15.531 57.041 15.12 57.3701C14.8717 57.7249 14.7453 58.1507 14.7597 58.5834C14.7741 59.0162 14.9286 59.4327 15.2 59.7701C15.54 60.3801 15.91 60.9602 16.3 61.5302C17.09 62.6672 17.9518 63.7528 18.88 64.7802C20.34 66.4102 21.88 67.9301 23.51 69.4501L26.86 72.6601C27.6124 73.4335 28.4398 74.1302 29.33 74.7401C30.9119 75.6527 32.6307 76.3044 34.42 76.6701C35.28 76.8901 36.16 77.1001 37.04 77.2701C37.3487 77.3402 37.6635 77.3804 37.98 77.3901C38.3147 77.3839 38.6494 77.4073 38.98 77.4601C39.74 77.5401 40.52 77.6001 41.29 77.6401C42.8488 77.7251 44.4111 77.7251 45.97 77.6401C47.1969 77.6277 48.4171 77.4562 49.6 77.1301C50.1817 76.99 50.7883 76.99 51.37 77.1301L56.1 77.7701C57.03 77.7701 57.95 78.1601 58.88 78.0801C59.15 78.0801 59.42 77.9801 59.69 77.9801C59.8697 77.9652 60.0503 77.9652 60.23 77.9801C61.29 78.1401 62.35 78.4001 63.42 78.5401C64.8209 78.805 66.259 78.805 67.66 78.5401C67.76 78.5401 67.85 78.4701 67.96 78.4401C68.2916 78.392 68.6284 78.392 68.96 78.4401L74.91 78.5701L86.82 78.8201L98.76 79.0601C100.76 79.0601 102.76 79.1801 104.7 79.1901C104.959 79.1867 105.215 79.1428 105.46 79.0601C106.114 78.8963 106.785 78.809 107.46 78.8001C108.25 78.7501 109.04 78.6901 109.84 78.6501C113 78.4401 116.17 78.3301 119.34 78.2901C122.51 78.2501 125.69 78.2301 128.87 78.2901C132.05 78.3501 135.2 78.4101 138.38 78.4701L140.47 78.5302L146.27 78.6801C146.816 78.6566 147.362 78.6935 147.9 78.7901C148.383 78.9498 148.891 79.0209 149.4 79.0001L154.18 78.8601L163.75 78.6001C166.94 78.5201 170.14 78.4501 173.32 78.4001C174.2 78.4001 175.08 78.4001 175.96 78.3401C194.48 78.0101 212.43 77.1901 230.96 77.0801C232.781 77.1901 234.606 76.9386 236.33 76.3401C237.157 76.034 237.885 75.5065 238.434 74.8153C238.982 74.1241 239.33 73.2956 239.44 72.4201C239.484 72.647 239.61 72.8495 239.795 72.9882C239.98 73.1268 240.21 73.1917 240.44 73.1701C240.968 73.0803 241.456 72.8328 241.84 72.4601C244.78 70.1301 247.84 67.6601 249.38 64.2301C247.966 63.4835 246.495 62.8515 244.98 62.3401C246.968 62.4911 248.941 62.8021 250.88 63.2701Z" fill="#EB924D"/>
<path d="M262.38 46.8699C262.01 47.5399 261.63 48.2299 261.25 48.8699C261.1 49.1499 260.95 49.4199 260.79 49.6899C259.65 51.6899 258.43 53.6899 257.09 55.6199C256.37 56.6199 255.61 57.6199 254.82 58.6199C254.195 59.572 253.352 60.3607 252.36 60.9199C252.172 61.0063 251.978 61.0798 251.78 61.14C255.44 56.48 259.08 51.71 261.27 46.21C261.957 44.2009 262.761 42.2341 263.68 40.3199C263.881 40.0231 263.998 39.6777 264.02 39.3199C263.985 39.0409 263.893 38.7721 263.75 38.53C262.75 36.53 261.49 34.4399 259.39 33.7299C259.01 33.5899 258.53 33.3399 258.65 32.9699C258.72 32.7799 258.92 32.6899 259.08 32.5699C259.79 31.9999 259.45 30.8799 259.08 30.0599C258.31 28.4799 257.53 26.92 256.75 25.34C256.528 24.7739 256.187 24.2623 255.75 23.84C255.256 23.499 254.693 23.2734 254.1 23.1799C252.03 22.6799 249.94 22.29 247.85 21.96C249.51 22.1515 251.179 22.2583 252.85 22.28C254.061 22.1876 255.276 22.4043 256.38 22.9099H256.44C257.7 23.6899 258.37 25.34 259.09 26.58C259.89 27.98 260.67 29.3899 261.55 30.7499C262.166 31.7916 262.688 32.8859 263.11 34.02C263.23 34.28 263.33 34.53 263.43 34.78C263.956 35.8654 264.381 36.9967 264.7 38.1599C265.33 41.3099 263.82 44.2799 262.38 46.8699Z" fill="#EB924D"/>
<path d="M252.91 20C252.775 20.1448 252.595 20.2399 252.4 20.27C250.57 17.5 248.72 14.74 246.89 11.97C245.95 10.58 245.28 9.33003 243.82 8.53003C242.741 7.80262 241.588 7.19248 240.38 6.71002C239.808 6.61403 239.28 6.34125 238.87 5.92999C238.71 5.64756 238.579 5.3493 238.48 5.03998C237.82 3.64998 236.26 3.71998 235.04 3.22998C234.677 3.06895 234.287 2.97741 233.89 2.96002L230.31 2.77002L223.17 2.35999L210.64 1.65002C208.34 1.53002 206.03 1.38997 203.72 1.40997C201.41 1.42997 199.19 1.61002 196.91 1.52002C196.199 1.53245 195.489 1.44835 194.8 1.27002C194.12 1.12172 193.421 1.08789 192.73 1.16998L187.63 1.28998C182.87 1.39998 178.1 1.62 173.34 1.62C172.443 1.57536 171.548 1.73258 170.72 2.08002C170.353 2.27008 170.046 2.55701 169.831 2.90961C169.616 3.26221 169.501 3.667 169.5 4.08002C169.518 4.20769 169.493 4.33764 169.43 4.45001C169.28 4.63001 169.09 4.57001 168.9 4.45001C168.238 4.10428 167.653 3.62801 167.18 3.04999C166.83 2.67999 166.5 2.28998 166.18 1.91998C165.86 1.54998 165.86 1.47997 165.54 1.46997C165.237 1.49705 164.937 1.54383 164.64 1.60999C162.338 1.92591 160.009 2.00967 157.69 1.85999C157.148 1.86057 156.608 1.8002 156.08 1.67999C155.756 1.55731 155.421 1.46685 155.08 1.40997C153.92 1.31997 152.71 1.40997 151.54 1.40997L147.96 1.46002L133.62 1.64001L127.38 1.71997C126.298 1.69081 125.223 1.89907 124.23 2.33002C122.8 3.02002 123.77 4.82002 123.54 6.02002C123.4 4.51002 123.07 2.72 121.68 2.12C121.151 1.93286 120.59 1.85464 120.03 1.89001H119.81L112.67 1.83002C108.73 1.83002 104.83 1.63001 100.9 1.57001C89.9 1.41001 78.85 1.68003 67.83 1.78003L53.47 1.90997H49.88C43.99 1.96997 37.95 2.04997 32.47 4.15997C30.8532 4.80251 29.3558 5.71181 28.04 6.84998C27.4468 7.34992 26.9488 7.95297 26.57 8.63C28.4428 9.49202 30.4413 10.0491 32.49 10.28C31.4416 10.5667 30.3562 10.6947 29.27 10.66L25.07 10.73C24.5697 10.7215 24.07 10.7685 23.58 10.87C22.7314 11.1137 21.9688 11.5921 21.38 12.25C21.0434 12.5678 20.7448 12.9235 20.49 13.31C20.32 13.59 20.26 13.91 20.1 14.19C19.5054 15.1098 18.8365 15.9794 18.1 16.79L16 19.66C12.18 24.52 8.30997 29.48 5.99997 35.23C5.49827 36.475 5.10025 37.7594 4.80997 39.07C4.53997 40.33 6.39998 40.61 7.57998 41.13C8.79969 41.5216 9.97587 42.0377 11.09 42.67C9.7338 42.4228 8.35848 42.2956 6.97997 42.29C6.86045 42.2719 6.73842 42.2804 6.62259 42.315C6.50677 42.3496 6.40001 42.4093 6.30997 42.49C6.08997 42.73 6.19997 43.1 6.30997 43.4C6.58402 44.1171 6.91856 44.8096 7.30997 45.47C7.48601 45.8115 7.60428 46.1798 7.65998 46.56C7.82256 47.4207 8.0843 48.2596 8.43998 49.06C9.53802 51.5577 11.4577 53.6044 13.88 54.86C13.63 54.86 13.4 54.79 13.15 54.74C12.0109 54.4702 10.971 53.8844 10.15 53.05C9.75353 52.6281 9.41704 52.1537 9.14997 51.64C8.00997 49.51 6.85998 47.39 5.84998 45.19C5.05998 43.47 3.84998 41.48 3.76998 39.56C3.76499 39.4634 3.76499 39.3666 3.76998 39.27C3.75806 37.9656 4.02395 36.6736 4.54998 35.48C5.4846 33.4926 6.57116 31.5803 7.79998 29.76C9.62998 26.76 11.69 23.86 13.8 21.03C16.05 18.03 18.41 15.09 20.88 12.24C21.33 11.71 21.77 11.24 22.21 10.72C23.9534 8.63812 25.9033 6.73842 28.03 5.04999C32.95 1.19999 39.69 1.23001 45.55 1.14001C53.07 1.02001 60.41 0.949985 67.82 0.859985C71.01 0.809985 74.19 0.78 77.37 0.75L86.92 0.659973L96.45 0.580017L105.98 0.52002H115.49H125H144H153.47H162.94C166.11 0.52002 169.26 0.520017 172.41 0.580017L181.87 0.650024L191.31 0.72998C194.46 0.72998 197.61 0.799976 200.76 0.849976C203.91 0.899976 207.04 0.919971 210.18 0.969971L219.6 1.09998L229.01 1.26001C231.919 1.16027 234.818 1.65363 237.53 2.71002C237.89 2.87002 238.25 3.05 238.61 3.25C241.516 4.98016 244.103 7.19556 246.26 9.79999C246.78 10.38 247.26 10.97 247.82 11.56C248.723 12.5608 249.555 13.6234 250.31 14.74C251.2 16.08 252.05 17.44 252.83 18.85C253 19.21 253.19 19.71 252.91 20Z" fill="#EB924D"/>
<path d="M78.2 41.21C73.2 38.39 64.77 39.21 60.78 43.06C60.1656 43.6624 59.6775 44.3812 59.3443 45.1745C59.0111 45.9678 58.8395 46.8196 58.8395 47.68C58.8395 48.5404 59.0111 49.3922 59.3443 50.1855C59.6775 50.9788 60.1656 51.6976 60.78 52.3C66.6 57.55 76.83 55.3 80.52 48.82L80.74 48.63C83.56 46.08 81.55 41.85 78.2 41.21Z" fill="#EB924D"/>
<path d="M79.4 38.73C74.4 35.9 65.97 36.73 61.97 40.58C61.358 41.1837 60.8721 41.903 60.5405 42.6961C60.2088 43.4892 60.038 44.3403 60.038 45.2C60.038 46.0596 60.2088 46.9107 60.5405 47.7038C60.8721 48.4969 61.358 49.2162 61.97 49.82C67.8 55.06 78.03 52.82 81.72 46.34L81.93 46.14C84.75 43.6 82.75 39.36 79.4 38.73Z" fill="url(#paint4_linear_53_29)"/>
<path d="M78.2 40.3302C73.2 37.5102 64.77 38.3301 60.78 42.1801C60.1656 42.7825 59.6775 43.5013 59.3443 44.2946C59.0111 45.0879 58.8395 45.9397 58.8395 46.8001C58.8395 47.6605 59.0111 48.5123 59.3443 49.3056C59.6775 50.0989 60.1656 50.8178 60.78 51.4201C66.6 56.6601 76.83 54.4201 80.52 47.9401L80.74 47.7501C83.56 45.2001 81.55 41.0002 78.2 40.3302Z" fill="url(#paint5_linear_53_29)"/>
<path d="M207.73 25C204.59 23.24 199.36 23.78 196.87 26.15C196.488 26.5268 196.184 26.976 195.976 27.4712C195.769 27.9665 195.662 28.498 195.662 29.035C195.662 29.5719 195.769 30.1035 195.976 30.5987C196.184 31.094 196.488 31.5431 196.87 31.92C200.5 35.18 206.87 33.79 209.18 29.74L209.31 29.62C211.07 28 209.82 25.35 207.73 25Z" fill="#EB924D"/>
<path d="M208.48 23.4101C205.33 21.6501 200.11 22.1902 197.61 24.5602C197.229 24.9377 196.926 25.387 196.72 25.8822C196.513 26.3774 196.407 26.9086 196.407 27.4452C196.407 27.9817 196.513 28.5129 196.72 29.0081C196.926 29.5033 197.229 29.9527 197.61 30.3302C201.25 33.6002 207.61 32.2002 209.93 28.1502L210.06 28.0302C211.82 26.4502 210.57 23.8101 208.48 23.4101Z" fill="url(#paint6_linear_53_29)"/>
<path d="M207.73 24.4101C204.59 22.6501 199.36 23.1902 196.87 25.5602C196.488 25.937 196.184 26.3861 195.976 26.8814C195.769 27.3767 195.662 27.9083 195.662 28.4452C195.662 28.9821 195.769 29.5137 195.976 30.009C196.184 30.5043 196.488 30.9534 196.87 31.3302C200.5 34.5902 206.87 33.2002 209.18 29.1502L209.31 29.0302C211.07 27.4402 209.82 24.8001 207.73 24.4101Z" fill="url(#paint7_linear_53_29)"/>
<path d="M250 41.0002C247.856 45.0498 245.503 48.9851 242.95 52.7901C240.286 56.7943 237.328 60.5948 234.1 64.1601C233.785 64.5035 233.404 64.7798 232.979 64.9723C232.555 65.1647 232.096 65.2695 231.63 65.2802C168.137 67.1402 103.757 67.0035 38.49 64.8702C37.576 64.8319 36.7123 64.4413 36.08 63.7802C28.85 56.1302 22.59 48.3301 18.65 40.1601C18.4025 39.6329 18.2937 39.0513 18.3339 38.4703C18.3742 37.8893 18.5621 37.3282 18.88 36.8402C19.53 35.8402 20.2 34.8402 20.88 33.8402C25.6864 27.0636 31.1861 20.8064 37.29 15.1701C37.9258 14.5967 38.7442 14.2672 39.6 14.2401C103.867 12.9735 167.707 13.1168 231.12 14.6701C231.605 14.6858 232.081 14.8024 232.519 15.0124C232.956 15.2225 233.345 15.5214 233.66 15.8902C240.32 23.6502 246.14 31.0801 249.96 37.6701C250.251 38.1755 250.407 38.7469 250.414 39.3299C250.421 39.9129 250.279 40.488 250 41.0002Z" fill="url(#paint8_linear_53_29)"/>
<path d="M250 41L248.95 43C248.7 43.45 248.32 43.8101 248.1 44.2701C246.81 47.0001 244.49 48.8901 242.1 50.6501C239.56 52.5301 236.88 54.49 235.58 57.36L236.4 55.88C239.31 50.64 242.2 45.41 244.87 40.04C244.48 39.35 244.05 38.66 243.62 38.04C241.891 35.3353 239.902 32.8065 237.68 30.49C236.68 29.49 235.51 28.49 234.57 27.38C233.878 26.7485 233.016 26.3346 232.09 26.19C228.214 25.184 224.241 24.594 220.24 24.43C170 20.63 119.5 19.36 69.24 22.32C54.45 23.18 40.17 27.86 26.64 33.93C25.8957 34.3523 25.1955 34.8481 24.55 35.41C24.2247 35.6936 23.8357 35.8944 23.4161 35.9954C22.9965 36.0964 22.5587 36.0945 22.14 35.99C21.7589 35.8164 21.4377 35.5338 21.217 35.1779C20.9963 34.822 20.886 34.4086 20.9 33.99C25.7064 27.2134 31.2061 20.9563 37.31 15.32C37.9458 14.7466 38.7642 14.4171 39.62 14.3901C103.887 13.1234 167.727 13.2667 231.14 14.82C231.625 14.8357 232.101 14.9522 232.539 15.1623C232.976 15.3723 233.365 15.6713 233.68 16.04C240.34 23.8 246.16 31.23 249.98 37.82C250.241 38.3086 250.38 38.8535 250.383 39.4076C250.387 39.9617 250.255 40.5082 250 41Z" fill="#8C1B09"/>
<path d="M246.94 39.4101C242.741 47.4974 237.559 55.0346 231.51 61.8501C213.08 62.4001 194.38 62.7601 175.59 62.9501C164.723 63.0901 153.84 63.1535 142.94 63.1401C141.72 63.1401 140.51 63.1401 139.29 63.1401C106.24 63.1401 72.37 62.5401 38.56 61.4601C30.37 52.8001 25.02 45.5801 21.7 38.7101C26.8072 31.0179 32.8203 23.9674 39.61 17.7101H40.61C69 17.1401 97.68 16.8501 125.91 16.8501C135.103 16.8501 144.313 16.8868 153.54 16.9601C167.807 17.0401 182.077 17.2001 196.35 17.4401C199.14 17.4401 201.92 17.5201 204.69 17.5701C204.707 17.5798 204.726 17.5848 204.745 17.5848C204.764 17.5848 204.783 17.5798 204.8 17.5701C205.92 17.5701 207.05 17.6301 208.17 17.6401C215.737 17.7801 223.29 17.9468 230.83 18.1401H231L231.36 18.5601C234.01 21.6701 236.36 24.4901 238.36 27.1201C241.496 31.0172 244.362 35.1234 246.94 39.4101Z" fill="url(#paint9_linear_53_29)"/>
<path d="M238 42.4899C205.813 43.7232 173.597 44.3899 141.35 44.4899H140.04C103.94 44.5965 67.8567 43.9599 31.79 42.5799C29.79 42.4999 26.69 42.4299 25.46 40.5799C25.1839 40.0137 25.0617 39.3848 25.1056 38.7564C25.1495 38.128 25.3579 37.5222 25.71 36.9999C27.5426 33.3077 29.7331 29.8042 32.25 26.5399C33.44 24.9499 34.68 23.4099 35.93 21.8599C36.2147 21.5311 36.4629 21.1723 36.67 20.7899C37.34 19.6599 38.81 18.9299 39.89 18.2099L40.61 17.7599C69 17.1899 97.68 16.8999 125.91 16.8999C160.8 16.8999 196.11 17.3299 230.83 18.1899C231 18.3099 231.17 18.4699 231.34 18.6099L231.4 18.6599C234.069 21.0061 236.353 23.7561 238.17 26.8099L238.38 27.1699C239.81 29.605 240.932 32.2082 241.72 34.9199C242.029 36.2714 242.406 37.6064 242.85 38.9199C244 41.6699 240.13 42.4099 238 42.4899Z" fill="url(#paint10_linear_53_29)"/>
<path style="mix-blend-mode:screen" d="M210.64 17.34C209.814 17.3811 208.993 17.478 208.18 17.6299C203.463 18.6867 199.167 21.1235 195.84 24.6299C191.84 28.6299 188.94 33.51 186.07 38.34C183.01 43.52 179.937 48.6999 176.85 53.8799C175.66 55.8799 174.44 58.0099 174.56 60.3099C174.615 61.2807 174.964 62.2117 175.56 62.9799C164.693 63.1199 153.81 63.1833 142.91 63.1699C141.69 63.1699 140.48 63.1699 139.26 63.1699C143.078 62.6602 146.792 61.5463 150.26 59.8699C151.36 59.3714 152.389 58.7292 153.32 57.96C154.117 57.1708 154.816 56.2877 155.4 55.33C156.26 54.12 157.21 53.02 158.07 51.78C161.985 46.0407 165.606 40.1063 168.92 33.9999C170.28 31.4799 171.64 28.75 171.33 25.89C170.95 22.23 167.82 19.32 164.33 18.08C160.84 16.84 157.07 16.95 153.39 17.08L153.54 16.96C167.807 17.04 182.077 17.1999 196.35 17.4399C199.12 17.5699 201.91 17.6299 204.69 17.5699C204.707 17.5796 204.726 17.5847 204.745 17.5847C204.764 17.5847 204.783 17.5796 204.8 17.5699C206.75 17.5499 208.7 17.48 210.64 17.34Z" fill="url(#paint11_linear_53_29)"/>
<defs>
<linearGradient id="paint0_linear_53_29" x1="150.55" y1="-69.1401" x2="142.5" y2="-19.7" gradientUnits="userSpaceOnUse">
<stop stop-color="#CF5C2B"/>
<stop offset="1" stop-color="#59173E"/>
</linearGradient>
<linearGradient id="paint1_linear_53_29" x1="145.09" y1="-59.05" x2="109.45" y2="265.18" gradientUnits="userSpaceOnUse">
<stop stop-color="#CF5C2B"/>
<stop offset="1" stop-color="#59173E"/>
</linearGradient>
<linearGradient id="paint2_linear_53_29" x1="136.28" y1="-5.74012" x2="125.07" y2="245.19" gradientUnits="userSpaceOnUse">
<stop stop-color="#CF5C2B"/>
<stop offset="1" stop-color="#59173E"/>
</linearGradient>
<linearGradient id="paint3_linear_53_29" x1="134.3" y1="120.45" x2="134.3" y2="57.5602" gradientUnits="userSpaceOnUse">
<stop stop-color="#CF5C2B"/>
<stop offset="1" stop-color="#59173E"/>
</linearGradient>
<linearGradient id="paint4_linear_53_29" x1="80.51" y1="20.2999" x2="67.8" y2="54.27" gradientUnits="userSpaceOnUse">
<stop stop-color="#CF5C2B"/>
<stop offset="1" stop-color="#59173E"/>
</linearGradient>
<linearGradient id="paint5_linear_53_29" x1="123.14" y1="-76.7097" x2="13.4702" y2="177.78" gradientUnits="userSpaceOnUse">
<stop stop-color="#CF5C2B"/>
<stop offset="1" stop-color="#59173E"/>
</linearGradient>
<linearGradient id="paint6_linear_53_29" x1="209.17" y1="11.9201" x2="201.25" y2="33.1002" gradientUnits="userSpaceOnUse">
<stop stop-color="#CF5C2B"/>
<stop offset="1" stop-color="#59173E"/>
</linearGradient>
<linearGradient id="paint7_linear_53_29" x1="235.75" y1="-48.5701" x2="167.37" y2="110.11" gradientUnits="userSpaceOnUse">
<stop stop-color="#CF5C2B"/>
<stop offset="1" stop-color="#59173E"/>
</linearGradient>
<linearGradient id="paint8_linear_53_29" x1="134.32" y1="10.7801" x2="134.32" y2="40.2202" gradientUnits="userSpaceOnUse">
<stop stop-color="#FFCA2B"/>
<stop offset="1" stop-color="#D15B24"/>
</linearGradient>
<linearGradient id="paint9_linear_53_29" x1="134.32" y1="88.7502" x2="134.32" y2="36.9101" gradientUnits="userSpaceOnUse">
<stop offset="1" stop-color="#CC6923"/>
</linearGradient>
<linearGradient id="paint10_linear_53_29" x1="134.08" y1="71.6198" x2="134.08" y2="25.0199" gradientUnits="userSpaceOnUse">
<stop stop-color="#FF223B"/>
<stop offset="1" stop-color="#CC1523"/>
</linearGradient>
<linearGradient id="paint11_linear_53_29" x1="194.83" y1="-11.29" x2="156.61" y2="73.7099" gradientUnits="userSpaceOnUse">
<stop stop-color="#F2DE6D"/>
<stop offset="1"/>
</linearGradient>
</defs>
</svg>
