<svg width="258" height="95" viewBox="0 0 258 95" fill="none" xmlns="http://www.w3.org/2000/svg">
<path d="M257 75.3199C256.86 73.3799 256.73 71.4466 256.61 69.52L256.25 63.4099C256.17 62.0199 256.06 60.5399 256.02 59.1199C256.02 57.9199 256.48 55.9499 255.84 54.8799C255.603 54.5862 255.307 54.3455 254.971 54.1732C254.635 54.001 254.267 53.9011 253.89 53.8799L250.98 53.3699C252.28 53.0673 253.559 52.6831 254.81 52.2199C255.095 52.1325 255.353 51.9743 255.56 51.7599C255.707 51.535 255.796 51.2775 255.82 51.0099C256.09 48.3051 256.14 45.5829 255.97 42.8699C255.97 40.1399 255.97 37.3999 255.97 34.6699C255.97 31.9399 255.97 29.4699 255.97 26.8699C255.97 26.0099 256.32 24.1399 255.9 23.3799C255.48 22.6199 254.75 22.7899 254.12 22.7199C253.478 22.665 252.832 22.665 252.19 22.7199C251.19 22.7799 250.27 22.93 249.32 23.08C250.57 22.73 251.85 22.5599 253.11 22.2599C253.928 22.0729 254.721 21.7874 255.47 21.4099C255.956 21.2247 256.376 20.9014 256.68 20.4799C256.772 20.2719 256.839 20.0538 256.88 19.83C256.972 19.348 257.029 18.8601 257.05 18.3699C257.13 17.0366 257.18 15.7033 257.2 14.3699C257.2 13.6899 257.2 13.0099 257.2 12.3699C257.2 11.9199 257.02 11.5099 256.98 11.0599C256.818 9.21805 256.093 7.47063 254.903 6.05536C253.714 4.64008 252.117 3.62566 250.33 3.14996C249.676 2.98014 249.005 2.88285 248.33 2.85992C168.283 0.273255 89.83 0.273255 12.97 2.85992C12.6588 2.84468 12.3468 2.86481 12.04 2.91992C11.73 2.99992 11.42 3.11992 11.12 3.22992C10.4863 3.4444 9.86529 3.69481 9.26003 3.97992C8.07122 4.51017 7.03831 5.33653 6.26003 6.37994C5.82003 6.99994 5.52003 7.68994 5.12003 8.37994C4.88799 8.66854 4.67103 8.96896 4.47003 9.27997C3.7127 10.9409 2.79146 12.522 1.72003 13.9999C0.68488 15.5849 0.222661 17.4761 0.410029 19.3599C0.580029 21.7099 0.640022 24.0799 0.840022 26.4199C1.18002 30.1599 0.840025 33.9 1.28002 37.65C1.27334 38.1975 1.46922 38.7281 1.83003 39.1399C2.12587 39.3544 2.46876 39.495 2.83003 39.5499L6.38002 40.3199C4.92002 41.3199 2.73002 41.32 1.96002 42.9C1.7452 43.4202 1.63313 43.9771 1.63002 44.5399C1.49002 46.5399 1.31002 48.5399 1.17002 50.5399C1.11002 51.4399 1.06002 52.3399 1.03002 53.2399C1.00002 54.1399 0.930024 54.92 0.850024 55.77C0.660024 57.77 0.160028 60.3499 0.760028 62.2899C1.36003 64.2299 3.69002 64.2899 5.31002 64.6999C4.89297 64.7963 4.50019 64.9773 4.15612 65.2319C3.81204 65.4865 3.52404 65.8092 3.31002 66.1799C3.06002 66.5399 2.88003 66.91 2.64003 67.27C2.43242 67.5929 2.24215 67.9268 2.07003 68.27C1.71899 68.9417 1.44075 69.6491 1.24002 70.3799C1.10451 70.8316 1.02723 71.2987 1.01003 71.77C1.01003 72.22 1.01002 72.6799 0.950023 73.1299C0.950023 74.0399 0.890028 74.9499 0.870028 75.8499C0.870028 77.6699 0.870028 79.4899 0.870028 81.2999C0.870028 83.1099 0.470027 84.7699 1.22003 86.4999C1.87558 88.0639 2.96291 89.4089 4.35483 90.3776C5.74675 91.3462 7.38572 91.8986 9.08003 91.9699C86.34 95.3699 164.85 95.3699 244.61 91.9699C246.725 91.877 248.74 91.0414 250.3 89.6099C251.042 88.982 251.697 88.2592 252.25 87.46C252.92 86.46 253.55 85.3399 254.14 84.2399C255.4 81.3699 257.2 78.4099 257 75.3199Z" fill="url(#paint0_linear_53_31)"/>
<path d="M248.22 84.9999C168.46 88.3333 89.95 88.3333 12.69 84.9999C10.9803 84.9227 9.32802 84.3595 7.92701 83.3765C6.52599 82.3935 5.43431 81.0314 4.77999 79.45C4.24892 78.0686 4.04028 76.5842 4.16999 75.1099C4.17981 74.8495 4.22009 74.5911 4.29 74.34C4.43997 73.9641 4.55708 73.576 4.63999 73.1799C4.63999 72.9599 4.64 72.7499 4.72 72.5399C4.84 71.3599 4.87999 70.1699 4.98999 68.9999C5.03576 68.3249 5.14287 67.6555 5.30999 66.9999C5.47171 66.2729 5.87322 65.6213 6.44999 65.15C8.99999 63.25 13.97 63.27 17.67 63.2C18.39 63.2 19.06 63.1999 19.67 63.1199C21.28 63.0199 22.88 62.9799 24.51 62.9899C20.6886 62.9782 16.8751 62.6437 13.11 61.9899C11.32 61.6899 9.54 61.2999 7.79 60.8499C7.35307 60.7504 6.9275 60.6063 6.51999 60.4199C5.96635 60.2072 5.51061 59.7977 5.23999 59.27C5.07552 58.7985 5.01414 58.2972 5.05999 57.7999C5.05999 57.3299 5.05999 56.7999 5.05999 56.3599C5.05999 55.3599 5.22 54.3599 5.33 53.3599C5.43 52.5499 5.52 51.73 5.57 50.9C5.7 48.72 5.84 46.5399 6.01 44.3699C5.98556 43.7065 6.19431 43.0555 6.59999 42.53C6.88503 42.2678 7.22751 42.0759 7.59999 41.9699C8.57166 41.6088 9.5765 41.3442 10.6 41.1799C11.07 41.0899 11.6 41.09 12.05 40.96C12.5554 40.7859 13.0786 40.6685 13.61 40.6099L30.5 38.6099L32.5 38.3799C24.01 37.3799 15.5 36.29 7.01999 35.27C6.64999 35.21 6.28 35.1799 5.9 35.1199C5.56394 35.1223 5.23795 35.0053 4.98 34.7899C4.98 34.7899 4.98 34.7899 4.98 34.7399C4.82946 34.5045 4.75283 34.2293 4.76 33.95C4.37 29.36 4.76 24.62 4.55 19.95C4.55 19.69 4.45999 18.39 4.37999 16.95C4.26999 14.82 4.12999 12.3799 4.05999 12.3799C3.969 11.171 4.12319 9.95625 4.51329 8.80841C4.9034 7.66057 5.52138 6.60336 6.33016 5.70026C7.13893 4.79715 8.12183 4.06677 9.21986 3.55292C10.3179 3.03906 11.5084 2.75234 12.72 2.70996C89.52 0.0432942 167.973 0.0432942 248.08 2.70996C249.297 2.74941 250.493 3.03537 251.596 3.55054C252.7 4.0657 253.687 4.79934 254.498 5.70709C255.31 6.61484 255.929 7.67782 256.317 8.83167C256.706 9.98551 256.857 11.2062 256.76 12.4199C256.62 14.1699 256.97 15.8499 256.55 17.6099C256.485 18.0285 256.297 18.4183 256.01 18.7299C255.712 18.9423 255.37 19.0858 255.01 19.15L252.1 19.8599C250.83 20.186 249.541 20.4299 248.24 20.59C240.52 21.4233 232.807 22.2533 225.1 23.08L224.48 23.14L223.74 23.2199C224.35 23.2199 224.96 23.2199 225.58 23.2199L254.58 22.7299C254.855 22.6983 255.132 22.7581 255.37 22.9C255.591 23.1201 255.717 23.4181 255.72 23.7299C255.766 24.1248 255.783 24.5226 255.77 24.9199C255.77 26.1399 255.54 27.33 255.54 28.58C255.54 29.83 255.81 30.7599 255.79 31.8799C255.79 33.5099 255.72 35.1399 255.65 36.7999C255.5 40.5199 255.24 44.2899 254.83 48.0099C254.819 48.5552 254.645 49.0846 254.33 49.53C254.017 49.8157 253.64 50.0215 253.23 50.1299C252.983 50.2243 252.729 50.2978 252.47 50.3499C246.8 51.9699 240.57 50.6799 234.74 51.6899C234.356 51.743 233.976 51.8164 233.6 51.9099L233.21 51.9999C233.69 51.9999 234.16 52.0599 234.64 52.1099C241.02 52.5833 247.387 53.2233 253.74 54.03C254.072 53.9794 254.411 54.0098 254.729 54.1187C255.046 54.2276 255.333 54.4118 255.563 54.6555C255.794 54.8991 255.963 55.1951 256.055 55.518C256.146 55.8409 256.158 56.1813 256.09 56.5099V58.39C256.09 60.28 256.09 62.19 256.18 64.08C256.3 66.5866 256.447 69.09 256.62 71.59C256.69 72.82 256.77 74.05 256.86 75.27C256.959 76.482 256.812 77.7017 256.427 78.8553C256.042 80.0089 255.427 81.0724 254.62 81.9818C253.812 82.8912 252.829 83.6275 251.729 84.1462C250.629 84.665 249.435 84.9554 248.22 84.9999Z" fill="url(#paint1_linear_53_31)"/>
<path d="M255.74 31.9199C255.74 33.5499 255.67 35.1799 255.6 36.8399C252.33 37.1399 249.12 37.3899 245.98 37.7399L243.79 37.9799C241.08 38.2599 238.38 38.5199 235.67 38.7499L231.6 39.0899C230.74 39.1599 229.96 39.4999 229.11 39.5999C227.889 39.6159 226.668 39.5323 225.46 39.3499C224.14 39.2699 222.81 39.2499 221.46 39.2599C218.786 39.3034 216.116 39.4836 213.46 39.7999C208.16 40.4099 202.92 41.4099 197.66 42.2899C189.24 43.6999 180.75 44.7599 172.24 45.4799C176.876 45.9421 181.479 46.6969 186.02 47.7399C184.32 47.8799 182.62 47.9999 180.91 48.1099C175.5 48.4399 170.08 48.6199 164.66 48.7099C159.24 48.7999 153.81 48.7999 148.39 48.7899C142.97 48.7799 137.53 48.7899 132.11 48.7899C126.69 48.7899 121.26 48.9499 115.85 49.2099C113.14 49.3399 110.44 49.4999 107.73 49.7099L105.73 49.8799C104.91 49.9499 104.12 50.1799 103.29 50.2799C96.82 51.0299 90.37 51.9799 83.98 53.2799C74.05 55.2799 64.08 57.1399 53.98 57.8399L48.49 58.1799C39.79 59.9299 30.4 60.2899 21.87 61.3399C18.97 61.6999 16.01 61.8899 13.06 62.0099C11.27 61.7099 9.49002 61.3199 7.74002 60.8699C7.30309 60.7704 6.87753 60.6263 6.47002 60.4399C5.91638 60.2271 5.46064 59.8177 5.19003 59.2899C5.02555 58.8184 4.96417 58.3172 5.01003 57.8199C5.01003 57.3499 5.01003 56.8199 5.01003 56.3799C5.01003 55.3799 5.17002 54.3799 5.28002 53.3799C13.09 52.7399 21.09 50.4699 28.61 49.3799C38.26 48.0099 48.08 47.1799 57.8 46.6399C68.8 46.0399 79.8 47.3399 90.8 47.3399C100.97 47.3399 111.12 46.4499 121.24 45.6399C140.947 44.0399 160.647 42.3733 180.34 40.6399C176.053 40.5733 171.767 40.4632 167.48 40.3099C162.02 40.1199 156.56 39.8699 151.11 39.5899C149.834 39.4585 148.55 39.4317 147.27 39.5099C145.965 39.6516 144.652 39.7084 143.34 39.6799C140.737 39.6374 138.148 39.302 135.62 38.6799C134.14 38.3099 132.62 37.8499 131.17 37.5799C128.606 37.2648 126.021 37.1545 123.44 37.2499C113.8 37.1199 104.3 34.5699 94.66 34.6699C92.13 34.6699 89.6 34.9099 87.08 35.1299C84.4 35.3699 81.72 35.6199 79.03 35.6899C77.8351 35.7905 76.6323 35.7401 75.45 35.5399C74.5135 35.4014 73.5653 35.3578 72.62 35.4099C70.99 35.3599 69.36 35.3299 67.73 35.2899C64.46 35.2299 61.2 35.1799 57.94 35.1699C45.57 35.0999 33.23 35.7999 20.86 35.6899C15.5597 35.7605 10.2608 35.4698 5.00002 34.8199C5.00002 34.8199 5.00002 34.8199 5.00002 34.7699C4.84948 34.5345 4.77286 34.2593 4.78002 33.9799C4.39002 29.3899 4.78002 24.6499 4.57002 19.9799C4.57002 19.7199 4.48002 18.4199 4.40002 16.9799C10.71 16.4399 17.07 16.2899 23.4 15.8299C35.76 14.9199 48.11 14.5299 60.51 14.5799C85.09 14.6999 109.61 16.2699 134.11 18.1399C158.61 20.0099 183.11 22.2899 207.59 24.0299C219.99 24.8999 232.39 25.4399 244.81 25.4399C248.45 25.4399 252.12 25.2299 255.81 24.9399C255.81 26.1599 255.58 27.3499 255.58 28.5999C255.58 29.8499 255.76 30.7999 255.74 31.9199ZM256.13 64.1199C256.04 62.2299 256.04 60.3199 256.04 58.4299C248.22 57.5799 240.38 56.7099 232.5 56.1699C218.998 55.3533 205.461 55.2765 191.95 55.9399C189.13 56.0599 186.37 56.1199 183.59 56.4799L179.59 56.9799C174.203 57.6066 168.8 58.1299 163.38 58.5499C161.267 58.7099 159.153 58.8532 157.04 58.9799L173.47 58.8599L189.89 58.7399L198.1 58.6799H202.21C202.788 58.7101 203.368 58.68 203.94 58.5899C204.29 58.5199 204.62 58.3699 204.94 58.3199C206.218 58.2385 207.501 58.282 208.77 58.4499L212.84 58.6799C215.56 58.8532 218.273 59.0399 220.98 59.2399C225.26 59.5599 229.533 59.9132 233.8 60.2999C238.46 60.7299 243.09 61.2999 247.72 61.8299C237.2 62.8299 226.67 63.8799 216.12 64.4599C191.84 65.7999 167.54 67.4599 143.22 67.0099C119.22 66.5299 95.3 65.1499 71.3 65.2399C58.6334 65.2799 45.9967 65.4866 33.39 65.8599C24.08 66.1299 14.63 66.0799 5.33002 67.0399C5.1629 67.6955 5.05579 68.3649 5.01003 69.0399C4.90003 70.2099 4.86002 71.3999 4.74002 72.5799C15.09 72.9999 25.58 72.2899 35.91 72.2699C48.5767 72.2699 61.2134 72.4032 73.82 72.6699C97.77 73.2299 121.69 74.5599 145.64 74.9799C170 75.4199 194.32 73.6699 218.64 72.4499C231.17 71.8199 243.79 71.7999 256.34 71.6699H256.6C256.407 69.1432 256.25 66.6266 256.13 64.1199Z" fill="url(#paint2_linear_53_31)"/>
<path d="M6.22998 57.6199C6.1592 58.5663 6.25739 59.5178 6.51997 60.4299C5.96633 60.2171 5.51059 59.8077 5.23997 59.2799C5.0755 58.8084 5.01412 58.3071 5.05997 57.8099C5.05997 57.3399 5.05997 56.8099 5.05997 56.3699C5.12997 54.5299 5.46998 52.7299 5.56998 50.8999C5.69998 48.7199 5.83998 46.5399 6.00998 44.3699C5.98554 43.7064 6.19429 43.0554 6.59997 42.5299C6.88501 42.2677 7.22749 42.0759 7.59997 41.9698C8.57164 41.6087 9.57648 41.3442 10.6 41.1799C11.07 41.0899 11.6 41.0899 12.05 40.9599C12.5554 40.7858 13.0786 40.6684 13.61 40.6099L30.5 38.6099L12.36 42.2999C11.18 42.5299 9.60998 42.5199 8.61998 43.2999C8.42292 43.462 8.24207 43.6428 8.07998 43.8399C7.91998 44.0199 7.78998 44.2099 7.61998 44.3699C7.31733 44.6853 7.10344 45.0752 6.99998 45.4999C6.60072 46.6577 6.36839 47.8666 6.30997 49.0899C6.30997 49.5499 6.30997 50.0098 6.23997 50.4698C6.23997 50.5798 6.23997 50.6999 6.23997 50.8099C6.20717 50.9302 6.16366 51.0473 6.10998 51.1599C5.8421 52.1067 5.79761 53.1029 5.97998 54.0699C5.97998 54.4199 6.14998 54.7399 6.21998 55.0699C6.31977 55.9168 6.32313 56.7722 6.22998 57.6199Z" fill="#EB924D"/>
<path d="M224.42 23.2099L223.42 23.1499H225L224.42 23.2099Z" fill="#EB924D"/>
<path d="M230 51.3198C231.57 51.4698 233.14 51.6098 234.71 51.7298C234.326 51.7829 233.946 51.8563 233.57 51.9498C232.35 51.7298 231.15 51.5098 230 51.3198Z" fill="#EB924D"/>
<path d="M253.14 48.9999C253.341 48.0127 253.378 46.9992 253.25 45.9999C253.11 44.1299 252.96 42.26 252.82 40.4C252.848 40.2392 252.836 40.0739 252.786 39.9187C252.735 39.7635 252.647 39.6231 252.53 39.5097C252.412 39.3962 252.269 39.3133 252.112 39.268C251.955 39.2227 251.79 39.2165 251.63 39.2499L244.63 39.4799C247.162 39.2639 249.633 38.5861 251.92 37.4799C252.606 37.2338 253.174 36.7373 253.51 36.09C253.611 35.7359 253.651 35.3674 253.63 34.9999C253.49 31.9463 253.19 28.9021 252.73 25.88C251.63 24.88 249.98 24.6899 248.47 24.5999L230.16 23.4799C228.71 23.3799 227.07 23.33 225.52 23.26L254.52 22.77C254.795 22.7384 255.073 22.7981 255.31 22.94C255.531 23.1601 255.657 23.4581 255.66 23.77C255.7 25.3888 255.64 27.0085 255.48 28.6199C255.48 29.7199 255.75 30.7999 255.73 31.9199C255.64 37.1899 255.36 42.6799 254.73 48.0499C254.719 48.5952 254.545 49.1246 254.23 49.57C253.917 49.8557 253.54 50.0615 253.13 50.1699C252.883 50.2643 252.629 50.3379 252.37 50.39C252.734 49.9951 252.999 49.5183 253.14 48.9999Z" fill="#EB924D"/>
<path d="M4.52002 20.0002C4.52002 19.3702 4.14002 12.4102 4.03002 12.4102C3.93903 11.2013 4.09322 9.98652 4.48333 8.83868C4.87343 7.69085 5.49141 6.63363 6.30019 5.73053C7.10897 4.82743 8.09186 4.09705 9.18989 3.58319C10.2879 3.06934 11.4785 2.78261 12.69 2.74023C89.49 0.0735676 167.943 0.0735676 248.05 2.74023C249.267 2.77968 250.463 3.06564 251.566 3.58081C252.67 4.09598 253.657 4.82968 254.468 5.73743C255.28 6.64518 255.899 7.7081 256.287 8.86194C256.676 10.0158 256.827 11.2365 256.73 12.4503C256.59 14.2003 256.94 15.8803 256.52 17.6403C256.455 18.0588 256.267 18.4486 255.98 18.7603C255.682 18.9726 255.34 19.1161 254.98 19.1802C253.98 19.4102 253.06 19.6802 252.09 19.8802C253.027 19.1559 253.775 18.2159 254.27 17.1403C254.465 16.4429 254.394 15.698 254.07 15.0502C253.737 13.9856 253.572 12.8757 253.58 11.7603C253.52 10.3503 253.78 8.31024 252.65 7.18024C251.769 6.31897 250.756 5.60337 249.65 5.06024C246.941 3.90986 244.022 3.33766 241.08 3.38025H240.64C235.305 3.14186 229.959 3.26211 224.64 3.74023C224.021 3.82938 223.407 3.94951 222.8 4.10022C221.966 4.17326 221.127 4.14645 220.3 4.02026C218.49 3.93026 216.68 3.85027 214.86 3.78027C211.24 3.64027 207.613 3.54691 203.98 3.50024C201.26 3.50024 198.54 3.50024 195.82 3.50024H188.28H181.41H181H170.11H164.67C163.815 3.58036 162.955 3.58036 162.1 3.50024C161.27 3.35024 160.6 2.85026 159.72 2.77026C158.924 2.74843 158.128 2.79192 157.34 2.90027C155.34 3.06027 153.36 3.24693 151.4 3.46027C150.493 3.45885 149.615 3.78559 148.93 4.38025C148.754 4.63297 148.549 4.8645 148.32 5.07025C147.77 5.47025 147 5.21022 146.32 4.98022C145.033 4.52417 143.684 4.26785 142.32 4.22021C141.1 4.17021 139.88 4.38024 138.65 4.31024C137.886 4.23315 137.128 4.10621 136.38 3.93024C133.353 3.46237 130.301 3.17854 127.24 3.08026C125 2.92026 122.753 2.80021 120.5 2.72021C113.24 2.47021 105.97 2.60022 98.72 2.91022C95.09 3.06022 91.46 3.26021 87.83 3.47021C86.1208 3.70616 84.3934 3.78319 82.67 3.70026C82.2 3.64026 81.75 3.45023 81.28 3.36023C80.7865 3.29179 80.2878 3.26835 79.79 3.29022L73.79 3.34027H66.7C65.9 3.34027 65.13 3.50024 64.35 3.50024C63.57 3.50024 62.93 3.34022 62.22 3.35022C60.7211 3.35761 59.2375 3.65296 57.85 4.22021C57.3361 4.48809 56.7691 4.63838 56.19 4.66022C55.19 4.60022 54.4 3.66027 53.45 3.15027C51.17 2.06027 48.82 4.15022 46.45 3.29022C45.2922 2.97012 44.0885 2.84841 42.89 2.93024C41.34 2.93024 39.79 2.93024 38.24 2.93024C32.97 2.93024 27.71 3.14022 22.47 3.66022C19.86 3.93022 17.26 4.28024 14.68 4.75024C13.43 4.96024 12.15 5.34022 10.89 5.48022C10.5379 5.48388 10.1929 5.5805 9.89003 5.76025C8.35003 6.85025 4.09002 12.8903 7.13002 15.0203C7.32452 15.1517 7.53234 15.2623 7.75003 15.3502C8.08003 15.4902 8.42003 15.5402 8.75003 15.6602C9.12678 15.7305 9.51327 15.7305 9.89003 15.6602H12.49C13.4112 15.6107 14.3346 15.6983 15.23 15.9202L9.28003 17.0002C8.63203 17.105 7.99799 17.2828 7.39003 17.5303C7.28551 17.5729 7.17868 17.6096 7.07003 17.6403C6.64913 17.8646 6.33313 18.2453 6.19003 18.7003C5.79003 19.7003 6.04003 20.8803 5.87003 21.9603C5.71701 23.9435 5.8043 25.938 6.13002 27.9003C6.38002 30.3703 6.67003 32.8402 7.04003 35.3002C6.67003 35.2402 6.30002 35.2103 5.92002 35.1503C5.73618 35.159 5.55251 35.1298 5.38046 35.0644C5.20841 34.999 5.05167 34.8989 4.92002 34.7703C4.76948 34.5348 4.69286 34.2596 4.70002 33.9802C4.34002 29.3902 4.78002 24.6502 4.52002 20.0002Z" fill="#EB924D"/>
<path d="M256.81 75.3099C256.543 71.5832 256.317 67.8532 256.13 64.1199C256.01 61.5999 256.04 59.1199 256.04 56.5499C256.108 56.2212 256.096 55.8809 256.005 55.558C255.913 55.2351 255.744 54.9391 255.513 54.6954C255.283 54.4518 254.996 54.2676 254.679 54.1586C254.361 54.0497 254.022 54.0193 253.69 54.0699C247.337 53.2566 240.97 52.6166 234.59 52.1499C240.28 53.2499 246.14 54.6499 251.59 56.1499C252.64 56.4499 252.72 57.2699 253.16 58.2699C253.519 59.3077 253.685 60.4023 253.65 61.4999C253.687 61.9573 253.643 62.4177 253.52 62.8599C253.049 63.7752 252.243 64.4736 251.27 64.8099L253.33 65.3899C253.496 65.4258 253.65 65.5013 253.78 65.6099C253.909 65.7719 253.979 65.9728 253.98 66.1799C254.132 68.0159 254.159 69.8602 254.06 71.6999C254.06 72.8699 254.06 74.0498 254.06 75.2198C254.103 75.5574 254.17 75.8916 254.26 76.2198C254.361 76.8899 254.307 77.5744 254.1 78.2198C253.672 79.5994 252.773 80.785 251.56 81.5699C249.49 82.9199 246.92 83.1899 244.46 83.3699C240.35 83.6699 236.22 83.6399 232.13 84.0299C230.77 84.1399 229.42 84.2699 228.07 84.3899C225.35 84.6099 222.633 84.8099 219.92 84.9899C214.79 85.3399 209.64 85.5999 204.5 85.7599C192.34 86.1799 180.16 86.1399 167.98 86.0699H163.56C162.391 86.1298 161.219 86.1298 160.05 86.0699C157.192 85.958 154.33 86.1423 151.51 86.6199C148.2 86.9899 144.64 87.0299 141.78 85.3199C140.956 84.6459 139.97 84.1979 138.92 84.0199C138.04 84.1044 137.191 84.3919 136.44 84.8599C134.907 85.5551 133.273 86.0039 131.6 86.1899H131.5C128.012 86.5399 124.498 86.5399 121.01 86.1899C118.41 86.0199 115.68 86.4499 113.2 85.5399C111.29 84.8299 109.28 83.8299 107.31 84.3699C106.628 84.6083 105.96 84.8854 105.31 85.1999C103.989 85.6472 102.604 85.8768 101.21 85.8799L98.61 85.9899C94.99 86.1099 91.36 86.0899 87.74 85.9299C86.2123 85.9527 84.6876 85.7882 83.2 85.4399C82.1817 85.2548 81.1383 85.2548 80.12 85.4399C75.72 85.7199 71.3 85.7899 66.9 85.6399C65.1 85.5799 63.3 85.4899 61.51 85.3499C60.63 85.2899 59.72 85.1299 58.85 85.1399C58.25 85.1399 57.69 85.3299 57.08 85.3299C53.43 85.3299 49.78 85.2598 46.08 85.2198L27.41 84.9999C23.14 85.5799 19.58 84.8499 15.34 84.0699C11.88 83.4299 8.11002 82.0699 6.67002 78.8099C6.12948 77.448 5.90716 75.9807 6.02001 74.5199C6.055 74.0906 6.055 73.6591 6.02001 73.2299C6.02001 72.8399 5.82002 72.4699 5.76002 72.0799C5.67919 70.6914 5.86243 69.3001 6.30002 67.9799C6.42589 67.3163 6.71452 66.6944 7.14002 66.1699C7.58606 65.7359 8.13752 65.4257 8.74002 65.2699C10.3181 64.8366 11.9439 64.6015 13.58 64.5699L20.64 64.1599L22.05 64.0899C21.9943 63.8572 21.9641 63.6191 21.96 63.3799V63.2799C20.53 63.2799 19.09 63.2798 17.65 63.2198C13.95 63.2898 8.98002 63.2199 6.43002 65.1699C5.30002 66.0199 5.09002 67.5999 4.97002 69.0099C4.85002 70.4199 4.81002 71.8099 4.62002 73.1899C4.5371 73.5859 4.41999 73.974 4.27001 74.3499C4.20011 74.601 4.15984 74.8594 4.15002 75.1199C4.0203 76.5941 4.22894 78.0785 4.76002 79.4599C5.41727 81.0425 6.51266 82.4045 7.91743 83.3859C9.3222 84.3673 10.9779 84.9272 12.69 84.9999C89.9434 88.3999 168.453 88.3999 248.22 84.9999C249.427 84.9485 250.612 84.6544 251.703 84.1353C252.795 83.6161 253.77 82.8825 254.572 81.9782C255.374 81.0739 255.985 80.0174 256.369 78.8718C256.754 77.7261 256.904 76.5147 256.81 75.3099Z" fill="#EB924D"/>
<path d="M18.29 47.7899C18.29 48.7899 18.29 49.8499 18.39 50.8699C18.39 51.3899 18.45 51.8699 18.48 52.4199C18.4767 52.8047 18.5035 53.1892 18.56 53.5699C18.6431 53.8638 18.6967 54.1653 18.72 54.4699L18.85 57.0999L19.09 62.3699C19.1966 64.6232 19.3033 66.8699 19.41 69.1099C19.41 70.3074 19.7349 71.4825 20.35 72.5099C20.48 72.7099 20.6 72.9199 20.75 73.1099C20.9875 73.4247 21.3052 73.67 21.67 73.8199C23.0976 74.3952 24.5932 74.7851 26.12 74.9799C28.441 75.293 30.7783 75.47 33.12 75.5099C63.84 76.5899 94.58 77.6799 125.3 76.9199C129.06 76.8299 132.95 76.7299 136.44 78.1299C134.85 75.2899 131 74.8799 127.74 74.7999C93.6 74.0299 59.44 73.1599 25.4 70.3099C24.457 70.3414 23.5341 70.0326 22.8 69.4399C22.3709 68.9238 22.0878 68.3023 21.98 67.6399C20.25 60.5863 19.9103 53.2633 20.98 46.0799C21.0808 45.6366 21.1377 45.1844 21.15 44.7299C21.15 44.2799 21.08 43.8199 21.08 43.3599C21.0617 42.4052 21.0984 41.4503 21.19 40.4999C21.05 40.2799 20.74 40.2799 20.48 40.3099L18.54 40.5099C18.5685 41.1244 18.5417 41.7402 18.46 42.3499C18.4397 42.536 18.4397 42.7238 18.46 42.9099C18.4899 43.3293 18.4899 43.7504 18.46 44.1699C18.46 44.7799 18.4 45.3899 18.38 45.9999C18.36 46.6099 18.29 47.1899 18.29 47.7899Z" fill="#EB924D"/>
<path d="M137.73 78.4701C138.12 77.4701 139.38 77.3401 140.42 77.3201L165.24 76.8302L188.67 76.3601C191.18 76.3101 193.88 76.3101 195.96 77.7201L195.82 76.8101C196.689 76.6116 197.579 76.5209 198.47 76.5401C198.972 76.5234 199.471 76.4564 199.96 76.3402C201.12 76.1802 202.29 76.1302 203.45 76.0802C209.88 75.7902 216.32 75.7001 222.75 75.3701C224.38 75.2801 226 75.1801 227.62 75.0601C229.24 74.9401 230.85 74.8501 232.45 74.6201C232.67 74.5605 232.894 74.5171 233.12 74.4901C233.42 74.4901 233.72 74.4701 234.02 74.4301C235.667 74.3381 237.286 73.9555 238.8 73.3001C239.765 72.8936 240.635 72.2907 241.355 71.5298C242.074 70.7689 242.628 69.8665 242.98 68.8801C243.218 67.9825 243.342 67.0587 243.35 66.1301C243.54 61.8836 243.48 57.6296 243.17 53.3902C242.95 53.1802 242.43 53.5601 242.35 53.8601C241.57 56.943 240.989 60.0728 240.61 63.2301C240.38 65.0901 240.19 67.0801 239.02 68.5601C237.85 70.0401 235.62 70.8102 233.62 71.2802C223 73.7502 211.93 74.0001 201 74.2201L170.43 74.8601C161.95 74.5701 153.25 75.9201 144.81 75.0101C142.461 74.5949 140.069 74.4773 137.69 74.6601C137.611 74.6519 137.532 74.6598 137.457 74.6833C137.381 74.7069 137.311 74.7456 137.251 74.7971C137.191 74.8486 137.143 74.9118 137.108 74.9828C137.073 75.0538 137.054 75.1312 137.05 75.2102C136.954 76.3399 137.19 77.4731 137.73 78.4701Z" fill="#EB924D"/>
<path d="M243.05 60.4901C243.05 56.8801 243.05 53.2901 242.97 49.6801L242.89 39.3C243 35.1333 242.88 30.9636 242.53 26.8101C242.382 25.9939 242.288 25.1687 242.25 24.3401C242.258 23.1755 241.994 22.0251 241.48 20.98C240.748 19.3918 239.791 17.9167 238.64 16.6C236.17 13.68 232.64 13.5501 228.93 13.3901C225.05 13.2301 221.19 13.3901 217.32 13.3901L204.32 13.3201C199.06 13.2801 193.803 13.23 188.55 13.17L172.75 13.0101L164.84 12.9301C164.29 12.8849 163.736 12.905 163.19 12.9901C162.863 13.0972 162.529 13.1808 162.19 13.2401C160.95 13.2786 159.711 13.1406 158.51 12.8301C158.672 10.1174 159.148 7.43268 159.93 4.83008C158.857 7.52925 157.615 10.1578 156.21 12.7001C156.136 12.868 156.014 13.0105 155.86 13.11C155.678 13.1703 155.482 13.1703 155.3 13.11C154.894 13.067 154.49 13.0036 154.09 12.92C153.158 12.7714 152.212 12.7278 151.27 12.79L139.08 12.72C131.08 12.72 123.08 12.72 115.08 12.72C106.52 12.79 97.95 12.6701 89.37 12.6401H82.37C81.3871 12.588 80.4014 12.6416 79.43 12.8C78.3482 12.945 77.2518 12.945 76.17 12.8C75.5924 12.8144 75.0229 12.6616 74.53 12.36C74.1144 11.9722 73.8134 11.4775 73.66 10.9301L72.41 7.64008C72.4751 8.9192 72.6052 10.1942 72.8 11.4601C72.87 11.8701 72.89 12.4 72.52 12.6C72.3975 12.6577 72.2652 12.6917 72.13 12.7001C71.6712 12.7797 71.204 12.7999 70.74 12.7601C69.8664 12.6299 68.9818 12.5897 68.1 12.6401C58.4133 12.6401 48.7133 12.6234 39 12.5901C33.56 12.5901 20.49 9.81006 18.71 17.1901C18.5146 18.222 18.4142 19.2698 18.41 20.3201C18.23 23.5101 18.34 26.71 18.41 29.91C18.5567 40.4567 18.85 51 19.29 61.54C19.35 63.16 19.42 64.7801 19.62 66.3901C19.78 67.6701 19.7 69.3301 20.7 70.3201C21.0257 70.6516 21.3234 71.0095 21.59 71.3901C22.221 72.1615 23.0265 72.7716 23.94 73.17C25.9581 73.9988 28.1183 74.4268 30.3 74.4301C37.34 74.7634 44.3767 75.0434 51.41 75.2701C58.4433 75.4967 65.5233 75.6868 72.65 75.8401C79.73 75.9801 86.8067 76.07 93.88 76.11C100.31 76.16 106.73 76.1701 113.15 76.1801H123C126.54 76.1801 130.82 75.0901 134.07 76.7701C135.717 77.6065 137.043 78.9634 137.84 80.6301C137.711 79.2806 137.748 77.9205 137.95 76.5801C140.518 76.2105 143.106 76.0001 145.7 75.9501C146.82 75.9501 147.9 76.1001 149.02 76.0901H152.97C158.243 76.0901 163.51 76.0434 168.77 75.9501L178.56 75.8401C185.64 75.7734 192.717 75.6068 199.79 75.3401L203.61 75.1901C213.37 74.8034 223.12 74.2268 232.86 73.4601C233.69 73.3901 234.5 73.31 235.26 73.17C236.524 72.9588 237.712 72.4249 238.71 71.6201C239.996 70.6054 241.111 69.3898 242.01 68.0201C243.41 65.6401 243.08 63.0601 243.05 60.4901ZM237.79 65.3901C237.166 66.2814 236.41 67.0736 235.55 67.7401C235.199 68.0067 234.779 68.1696 234.34 68.2101C233.729 68.3273 233.111 68.4041 232.49 68.4401C223.14 69.1801 213.38 69.75 203.44 70.16L199.65 70.3C192.22 70.57 185.32 70.73 178.54 70.8C158.4 71.05 138.54 71.1801 119.54 71.1801C111.013 71.1801 102.483 71.1534 93.95 71.1C86.95 71.05 79.8 70.9701 72.79 70.8301C65.78 70.6901 58.65 70.5101 51.62 70.2701C44.59 70.0301 37.51 69.75 30.57 69.42C29.0322 69.4312 27.5048 69.167 26.06 68.6401C25.886 68.5602 25.7243 68.4559 25.58 68.3301C25.34 68.0201 25.07 67.6601 24.73 67.2801C24.73 67.1001 24.73 66.8901 24.73 66.7101C24.73 66.3801 24.67 66.0401 24.63 65.7101C24.47 64.3501 24.4 62.9501 24.34 61.2601C23.9 50.8401 23.6 40.2601 23.46 29.7601V27.9901C23.46 25.4001 23.36 22.99 23.51 20.54C23.51 20.26 23.51 19.9801 23.51 19.6901C23.5107 19.2146 23.5474 18.7399 23.62 18.2701C23.78 17.6201 25.62 16.9501 29.37 16.9501C31.23 16.9501 33.22 17.1001 34.96 17.2401C36.46 17.3601 37.88 17.48 39.09 17.48C47.7567 17.48 56.4233 17.48 65.09 17.48H69.96C76.4467 17.48 82.9333 17.5034 89.42 17.55H95.68C100.247 17.59 104.82 17.6134 109.4 17.6201C111.32 17.6201 113.26 17.6201 115.19 17.6201C120.01 17.6201 124.84 17.5601 129.66 17.5601C146.01 17.5601 162.66 17.75 178.79 17.92C191.44 18.06 204.52 18.1901 217.33 18.2401H217.97C219.1 18.2401 220.21 18.2401 221.34 18.2401H224.62C226.22 18.2401 227.54 18.2401 228.74 18.3101H228.86C232.34 18.4701 233.95 18.6501 234.86 19.7601C235.702 20.7116 236.402 21.7792 236.94 22.9301C237.163 23.3241 237.283 23.7676 237.29 24.22C237.291 25.0657 237.371 25.9095 237.53 26.7401C237.53 26.9401 237.59 27.15 237.61 27.35C237.892 30.3412 237.999 33.3464 237.93 36.35C237.93 37.35 237.93 38.35 237.93 39.35L238.1 60.5001C238.1 60.9701 238.1 61.4101 238.1 61.8401C238.269 63.0316 238.163 64.246 237.79 65.3901Z" fill="url(#paint3_linear_53_31)"/>
<path d="M18.38 41.1001L24.17 39.9501L23.94 39.3901L17.92 40.1101L18.38 41.1001Z" fill="#EB924D"/>
<path d="M236.57 23.8099L243.3 24.3599V22.8599L236.01 23.1699L236.57 23.8099Z" fill="#EB924D"/>
<path d="M237.04 52.7701L244.48 54.1901L244.32 53.0101L236.33 52.29L237.04 52.7701Z" fill="#EB924D"/>
<path d="M215.26 46.41C209.59 43.24 200.18 44.2201 195.69 48.4901C195.004 49.1689 194.459 49.9772 194.087 50.868C193.715 51.7589 193.524 52.7147 193.524 53.6801C193.524 54.6454 193.715 55.6012 194.087 56.4921C194.459 57.3829 195.004 58.1912 195.69 58.8701C202.24 64.7501 213.69 62.2401 217.87 54.9501L218.1 54.7401C221.27 51.8801 219 47.12 215.26 46.41Z" fill="#EB924D"/>
<path d="M216.6 43.62C210.94 40.45 201.52 41.43 197.04 45.7C196.351 46.3775 195.804 47.1853 195.431 48.0764C195.057 48.9674 194.865 49.9239 194.865 50.89C194.865 51.8561 195.057 52.8126 195.431 53.7036C195.804 54.5947 196.351 55.4025 197.04 56.08C203.58 61.96 215.04 59.45 219.21 52.17L219.45 51.95C222.62 49.09 220.36 44.33 216.6 43.62Z" fill="url(#paint4_linear_53_31)"/>
<path d="M215.26 45.4198C209.59 42.2498 200.18 43.2298 195.69 47.4998C195.004 48.1787 194.459 48.9869 194.087 49.8778C193.715 50.7687 193.524 51.7245 193.524 52.6898C193.524 53.6552 193.715 54.611 194.087 55.5018C194.459 56.3927 195.004 57.2009 195.69 57.8798C202.24 63.7598 213.69 61.2498 217.87 53.9598L218.1 53.7498C221.27 50.8898 219 46.1298 215.26 45.4198Z" fill="url(#paint5_linear_53_31)"/>
<path d="M193.73 34.7401C190.15 32.7401 184.22 33.3601 181.39 36.0501C180.954 36.4767 180.607 36.9861 180.37 37.5485C180.134 38.1109 180.012 38.715 180.012 39.3251C180.012 39.9353 180.134 40.5394 180.37 41.1018C180.607 41.6642 180.954 42.1736 181.39 42.6001C185.51 46.3101 192.76 44.7201 195.39 40.1301L195.54 39.9901C197.52 38.1901 196.1 35.1901 193.73 34.7401Z" fill="#EB924D"/>
<path d="M194.58 32.9999C191 30.9999 185.06 31.6199 182.23 34.3099C181.796 34.7378 181.452 35.2477 181.216 35.8099C180.981 36.3722 180.86 36.9755 180.86 37.5849C180.86 38.1943 180.981 38.7977 181.216 39.3599C181.452 39.9221 181.796 40.4319 182.23 40.8599C186.36 44.5699 193.6 42.9799 196.23 38.3899L196.38 38.2499C198.37 36.4299 196.94 33.4299 194.58 32.9999Z" fill="url(#paint6_linear_53_31)"/>
<path d="M193.73 34.1102C190.15 32.1102 184.22 32.7302 181.39 35.4202C180.954 35.8468 180.607 36.3562 180.37 36.9186C180.134 37.4811 180.012 38.0851 180.012 38.6953C180.012 39.3054 180.134 39.9095 180.37 40.4719C180.607 41.0343 180.954 41.5437 181.39 41.9702C185.51 45.6802 192.76 44.1003 195.39 39.5003L195.54 39.3702C197.52 37.5602 196.1 34.5602 193.73 34.1102Z" fill="url(#paint7_linear_53_31)"/>
<path d="M47.91 53.9398C44.34 51.9398 38.4 52.5598 35.57 55.2498C35.1361 55.6778 34.7916 56.1877 34.5564 56.7499C34.3213 57.3121 34.2002 57.9154 34.2002 58.5248C34.2002 59.1343 34.3213 59.7376 34.5564 60.2998C34.7916 60.862 35.1361 61.3719 35.57 61.7998C39.69 65.5098 46.94 63.9298 49.57 59.3298L49.72 59.1898C51.7 57.3898 50.28 54.3898 47.91 53.9398Z" fill="#EB924D"/>
<path d="M48.76 52.1801C45.18 50.1801 39.25 50.8001 36.42 53.4901C35.9837 53.9166 35.637 54.4261 35.4003 54.9885C35.1636 55.5509 35.0417 56.1549 35.0417 56.7651C35.0417 57.3753 35.1636 57.9793 35.4003 58.5417C35.637 59.1041 35.9837 59.6135 36.42 60.04C40.54 63.75 47.79 62.1701 50.42 57.5701L50.57 57.4401C52.55 55.6301 51.13 52.6301 48.76 52.1801Z" fill="url(#paint8_linear_53_31)"/>
<path d="M47.91 53.3201C44.34 51.3201 38.4 51.9301 35.57 54.6301C35.1364 55.0572 34.7921 55.5662 34.5571 56.1276C34.3221 56.689 34.201 57.2916 34.201 57.9002C34.201 58.5087 34.3221 59.1112 34.5571 59.6726C34.7921 60.234 35.1364 60.743 35.57 61.1701C39.69 64.8901 46.94 63.3002 49.57 58.7102L49.72 58.5701C51.7 56.7601 50.28 53.7701 47.91 53.3201Z" fill="url(#paint9_linear_53_31)"/>
<path d="M238.69 46.2199C238.67 52.7814 238.303 59.3373 237.59 65.8599C237.48 66.7242 237.069 67.5221 236.429 68.1129C235.789 68.7038 234.96 69.0498 234.09 69.09C165.47 73.47 96.57 74.0899 27.95 69.7199C27.0693 69.6747 26.2337 69.3163 25.5938 68.7094C24.9539 68.1025 24.5518 67.287 24.46 66.4099C23.36 53.4899 22.22 39.7499 22.76 26.7399C22.84 24.6599 22.95 22.6 23.13 20.57C23.2303 19.6726 23.6562 18.8431 24.327 18.2386C24.9979 17.6341 25.867 17.2966 26.77 17.2899C100.01 15.2899 168.95 15.29 233.55 18.77C234.399 18.8003 235.212 19.1236 235.85 19.685C236.488 20.2465 236.912 21.0114 237.05 21.8499C238.182 29.9232 238.73 38.0677 238.69 46.2199Z" fill="url(#paint10_linear_53_31)"/>
<path d="M237.43 45.8002C237.16 46.5402 236.92 47.2901 236.69 48.0401C235.988 50.3774 235.464 52.7642 235.12 55.1802C234.92 56.3776 234.8 57.5869 234.76 58.8002C234.76 59.1702 234.86 59.5302 234.88 59.9002C234.885 60.1052 234.865 60.3101 234.82 60.5102C234.77 60.7202 234.69 60.9202 234.63 61.1302C234.57 61.3402 233.96 62.5602 234.07 62.7602C231.84 58.8702 232.07 54.1402 231.88 49.6802C231.69 45.2202 230.65 40.2802 226.88 37.6802C224.36 35.9602 221.12 35.6802 218.05 35.4302C156.3 30.7402 93.93 28.6602 31.99 29.0702C31.56 30.2202 31.16 31.3801 30.79 32.5401C30.23 34.3135 29.73 36.0968 29.29 37.8902C29.07 38.7902 28.87 39.7001 28.69 40.6001C28.4491 41.4376 28.3048 42.2999 28.26 43.1701C28.2749 43.4266 28.2749 43.6837 28.26 43.9402C28.1896 44.37 28.0894 44.7943 27.96 45.2102C27.75 46.1102 27.57 47.0302 27.43 47.9402C27.29 48.8502 27.2 49.7902 27.14 50.7102C27.065 51.6186 27.065 52.5317 27.14 53.4402C26.99 52.0202 26.83 50.6002 26.68 49.1802L25.45 37.6902C25.24 35.7702 25.04 33.8502 24.83 31.9402C24.8426 31.1825 24.6996 30.4303 24.41 29.7301C24.2815 29.5191 24.1413 29.3154 23.99 29.1202C23.5228 28.3591 23.1213 27.5595 22.79 26.7301C22.87 24.6501 22.98 22.5902 23.16 20.5602C23.2603 19.6628 23.6862 18.8333 24.357 18.2288C25.0278 17.6243 25.897 17.2868 26.8 17.2802C100.04 15.2802 168.98 15.2802 233.58 18.7602C234.429 18.7905 235.242 19.1138 235.88 19.6752C236.518 20.2367 236.942 21.0016 237.08 21.8402C237.55 25.1602 237.92 28.5002 238.18 31.8402C238.28 33.0902 238.37 34.3501 238.44 35.6001C238.566 36.7622 238.603 37.9324 238.55 39.1001C238.45 40.1001 238.76 41.0202 238.61 42.0102C238.387 43.1439 238.052 44.2526 237.61 45.3202C237.54 45.4802 237.48 45.6402 237.43 45.8002Z" fill="#FFDF80"/>
<path d="M233.87 65.48C213.72 66.77 193.73 67.71 174.06 68.31C159.933 68.7433 145.987 68.9967 132.22 69.07C131.867 69.09 131.513 69.09 131.16 69.07C128.57 69.07 126.01 69.07 123.45 69.07C91.08 69.07 59.04 68.07 28.21 66.07C27.05 52.55 25.77 37.37 26.67 23.53C26.67 22.62 26.78 21.73 26.86 20.84C59.86 19.96 89.98 19.5 118.86 19.5C132.687 19.5 146.107 19.6033 159.12 19.81C159.33 19.81 159.53 19.81 159.74 19.81H163.26C175.333 20.03 187.107 20.3633 198.58 20.81C210.41 21.2 221.96 21.71 233.34 22.33C233.94 26.42 234.34 30.64 234.61 34.96C235.222 45.1361 234.974 55.3455 233.87 65.48Z" fill="url(#paint11_linear_53_31)"/>
<path d="M234.61 35C234.613 36.7061 234.496 38.4103 234.26 40.1C233.54 48.56 213.83 47.52 208.18 47.87C157.4 50.99 105.78 48.58 55.01 46.29C47.61 45.95 40.23 45.51 32.84 45.14C27.39 44.86 27.84 40.32 27.49 36.2C27.14 32.08 26.87 27.77 26.67 23.55C26.67 22.64 26.78 21.75 26.86 20.86C59.86 19.98 89.98 19.52 118.86 19.52C160.32 19.52 197.76 20.52 233.34 22.37C233.94 26.47 234.35 30.69 234.61 35Z" fill="url(#paint12_linear_53_31)"/>
<path style="mix-blend-mode:screen" d="M198.58 20.8601C194.97 21.5801 191.82 22.4501 189.63 25.5101C183.32 34.294 177.801 43.6206 173.14 53.3801C171.93 55.9301 170.77 58.5801 170.73 61.3801C170.73 63.8601 171.91 66.9001 174.06 68.3001C159.933 68.7334 145.987 68.9868 132.22 69.0601C136.61 68.8898 140.799 67.1758 144.05 64.2201C147.72 61.0701 150.4 56.9701 153 52.9501L163.35 37.0001C164.952 34.7854 166.209 32.3411 167.08 29.7501C167.509 28.4599 167.642 27.0896 167.469 25.741C167.296 24.3923 166.821 23.1001 166.08 21.9601C165.359 21.0213 164.394 20.2984 163.29 19.8701C175.343 20.1168 187.107 20.4468 198.58 20.8601Z" fill="url(#paint13_linear_53_31)"/>
<defs>
<linearGradient id="paint0_linear_53_31" x1="197.23" y1="-137.58" x2="152.55" y2="-17.3301" gradientUnits="userSpaceOnUse">
<stop stop-color="#CF5C2B"/>
<stop offset="1" stop-color="#59173E"/>
</linearGradient>
<linearGradient id="paint1_linear_53_31" x1="146.43" y1="-40.54" x2="105.69" y2="174.32" gradientUnits="userSpaceOnUse">
<stop stop-color="#CF5C2B"/>
<stop offset="1" stop-color="#59173E"/>
</linearGradient>
<linearGradient id="paint2_linear_53_31" x1="145.77" y1="-33.86" x2="93.5301" y2="232.92" gradientUnits="userSpaceOnUse">
<stop stop-color="#CF5C2B"/>
<stop offset="1" stop-color="#59173E"/>
</linearGradient>
<linearGradient id="paint3_linear_53_31" x1="135.35" y1="118.54" x2="131.88" y2="59.8401" gradientUnits="userSpaceOnUse">
<stop stop-color="#CF5C2B"/>
<stop offset="1" stop-color="#59173E"/>
</linearGradient>
<linearGradient id="paint4_linear_53_31" x1="217.85" y1="22.93" x2="203.58" y2="61.08" gradientUnits="userSpaceOnUse">
<stop stop-color="#CF5C2B"/>
<stop offset="1" stop-color="#59173E"/>
</linearGradient>
<linearGradient id="paint5_linear_53_31" x1="265.72" y1="-85.9904" x2="142.58" y2="199.75" gradientUnits="userSpaceOnUse">
<stop stop-color="#CF5C2B"/>
<stop offset="1" stop-color="#59173E"/>
</linearGradient>
<linearGradient id="paint6_linear_53_31" x1="195.36" y1="19.9299" x2="186.36" y2="43.9899" gradientUnits="userSpaceOnUse">
<stop stop-color="#CF5C2B"/>
<stop offset="1" stop-color="#59173E"/>
</linearGradient>
<linearGradient id="paint7_linear_53_31" x1="225.55" y1="-48.7697" x2="147.88" y2="131.46" gradientUnits="userSpaceOnUse">
<stop stop-color="#CF5C2B"/>
<stop offset="1" stop-color="#59173E"/>
</linearGradient>
<linearGradient id="paint8_linear_53_31" x1="49.55" y1="39.1301" x2="40.55" y2="63.1901" gradientUnits="userSpaceOnUse">
<stop stop-color="#CF5C2B"/>
<stop offset="1" stop-color="#59173E"/>
</linearGradient>
<linearGradient id="paint9_linear_53_31" x1="79.74" y1="-29.5698" x2="2.06012" y2="150.66" gradientUnits="userSpaceOnUse">
<stop stop-color="#CF5C2B"/>
<stop offset="1" stop-color="#59173E"/>
</linearGradient>
<linearGradient id="paint10_linear_53_31" x1="130.66" y1="14.3" x2="130.66" y2="40.83" gradientUnits="userSpaceOnUse">
<stop stop-color="#FFCA2B"/>
<stop offset="1" stop-color="#D15B24"/>
</linearGradient>
<linearGradient id="paint11_linear_53_31" x1="130.66" y1="86.17" x2="130.66" y2="45.95" gradientUnits="userSpaceOnUse">
<stop stop-color="#31FF97"/>
<stop offset="1" stop-color="#227B51"/>
</linearGradient>
<linearGradient id="paint12_linear_53_31" x1="130.65" y1="81.23" x2="130.65" y2="27.21" gradientUnits="userSpaceOnUse">
<stop offset="0.01" stop-color="#5BCE3B"/>
<stop offset="1" stop-color="#4C9123"/>
</linearGradient>
<linearGradient id="paint13_linear_53_31" x1="207.73" y1="-42.1899" x2="144" y2="89.0201" gradientUnits="userSpaceOnUse">
<stop stop-color="#F2DE6D"/>
<stop offset="1"/>
</linearGradient>
</defs>
</svg>
