<svg width="288" height="62" viewBox="0 0 288 62" fill="none" xmlns="http://www.w3.org/2000/svg">
<path d="M0.580078 60.8799V1.92993H25.9301C32.5167 1.92993 37.7867 3.31993 41.74 6.09993C43.5942 7.30337 45.1109 8.95973 46.1467 10.9125C47.1826 12.8652 47.7035 15.0499 47.66 17.2599C47.66 24.3999 43.4266 29.0666 34.96 31.2599C39.3066 32.8666 42.12 34.6366 43.4 36.5699C44.68 38.5033 45.55 42.2466 46.01 47.7999C46.5633 54.4266 47.6733 58.8033 49.34 60.9299H30.77C29.4953 57.6744 28.8932 54.1945 29 50.6999L28.91 47.1999L28.8301 42.7899C28.8301 35.9966 26.0933 32.5999 20.62 32.5999H17.6801V60.9299L0.580078 60.8799ZM17.6801 27.6699H21.14C27.62 27.6699 30.8566 24.2866 30.85 17.5199C30.8433 10.7533 27.6067 7.36993 21.14 7.36993H17.6801V27.6699Z" fill="url(#paint0_linear_53_32)"/>
<path d="M94.65 1.92993V7.83993H73.53V25.6799H91.28V31.5999H73.53V54.9599H98.23V60.8799H56.42V1.92993H94.65Z" fill="url(#paint1_linear_53_32)"/>
<path d="M126.65 29.0499H150.92V60.8799H145.48L143.62 56.8199C139.261 60.0624 133.983 61.8345 128.55 61.8799C119.83 61.8799 113.057 59.2666 108.23 54.0399C103.403 48.8133 100.99 41.4466 100.99 31.9399C100.99 22.6999 103.547 15.2233 108.66 9.50993C113.773 3.79659 120.46 0.936598 128.72 0.929932C139.607 0.929932 146.23 6.48993 148.59 17.6099L140.59 21.2799V19.8499L140.46 16.6599C139.907 9.71993 136.697 6.24993 130.83 6.24993C126.51 6.24993 123.557 8.09326 121.97 11.7799C120.383 15.4666 119.593 22.3333 119.6 32.3799C119.6 41.7599 120.24 48.1366 121.52 51.5099C122 53.0488 122.982 54.3825 124.309 55.2979C125.636 56.2133 127.231 56.6576 128.84 56.5599C133.073 56.5599 135.19 54.1999 135.19 49.4799V34.9699H126.68L126.65 29.0499Z" fill="url(#paint2_linear_53_32)"/>
<path d="M176.49 1.92993V60.8799H159.39V1.92993H176.49Z" fill="url(#paint3_linear_53_32)"/>
<path d="M210.83 0.889893C227.99 0.889893 236.57 11.0532 236.57 31.3799C236.57 51.7066 227.83 61.8732 210.35 61.8799C192.87 61.8799 184.13 51.4832 184.13 30.6899C184.13 10.8232 193.03 0.889893 210.83 0.889893ZM210.35 5.59989C207.13 5.59989 204.94 7.37989 203.81 10.9299C202.68 14.4799 202.1 21.3099 202.1 31.3799C202.1 41.4499 202.67 48.2799 203.81 51.8299C204.95 55.3799 207.13 57.1699 210.35 57.1699C213.57 57.1699 215.76 55.3899 216.89 51.8299C218.02 48.2699 218.6 41.4599 218.6 31.3799C218.6 21.2999 218.03 14.5199 216.89 10.9499C215.75 7.37989 213.58 5.59989 210.35 5.59989Z" fill="url(#paint4_linear_53_32)"/>
<path d="M287.23 1.92993V60.8799H274.14L249.52 23.5699V60.8799H243.78V1.92993H254.62L281.48 42.2199V1.92993H287.23Z" fill="url(#paint5_linear_53_32)"/>
<defs>
<linearGradient id="paint0_linear_53_32" x1="0.580078" y1="31.3999" x2="49.34" y2="31.3999" gradientUnits="userSpaceOnUse">
<stop stop-color="#DE8C26"/>
<stop offset="0.72" stop-color="#FFD24F"/>
<stop offset="1" stop-color="#FFE48A"/>
</linearGradient>
<linearGradient id="paint1_linear_53_32" x1="56.42" y1="31.3999" x2="98.23" y2="31.3999" gradientUnits="userSpaceOnUse">
<stop stop-color="#DE8C26"/>
<stop offset="0.72" stop-color="#FFD24F"/>
<stop offset="1" stop-color="#FFE48A"/>
</linearGradient>
<linearGradient id="paint2_linear_53_32" x1="100.99" y1="31.3999" x2="150.92" y2="31.3999" gradientUnits="userSpaceOnUse">
<stop stop-color="#DE8C26"/>
<stop offset="0.72" stop-color="#FFD24F"/>
<stop offset="1" stop-color="#FFE48A"/>
</linearGradient>
<linearGradient id="paint3_linear_53_32" x1="159.39" y1="31.3999" x2="176.49" y2="31.3999" gradientUnits="userSpaceOnUse">
<stop stop-color="#DE8C26"/>
<stop offset="0.72" stop-color="#FFD24F"/>
<stop offset="1" stop-color="#FFE48A"/>
</linearGradient>
<linearGradient id="paint4_linear_53_32" x1="184.13" y1="31.3799" x2="236.57" y2="31.3799" gradientUnits="userSpaceOnUse">
<stop stop-color="#DE8C26"/>
<stop offset="0.72" stop-color="#FFD24F"/>
<stop offset="1" stop-color="#FFE48A"/>
</linearGradient>
<linearGradient id="paint5_linear_53_32" x1="243.78" y1="31.3999" x2="287.23" y2="31.3999" gradientUnits="userSpaceOnUse">
<stop stop-color="#DE8C26"/>
<stop offset="0.72" stop-color="#FFD24F"/>
<stop offset="1" stop-color="#FFE48A"/>
</linearGradient>
</defs>
</svg>
