<svg width="258" height="95" viewBox="0 0 258 95" fill="none" xmlns="http://www.w3.org/2000/svg">
<path d="M257 75.2601C256.86 73.3201 256.73 71.3867 256.61 69.4601L256.25 63.35C256.17 61.96 256.06 60.48 256.02 59.05C256.02 57.86 256.48 55.8901 255.84 54.8201C255.597 54.5202 255.293 54.2758 254.948 54.1033C254.603 53.9308 254.225 53.8342 253.84 53.8201L250.93 53.3101C252.227 53.0087 253.503 52.6246 254.75 52.16C255.038 52.073 255.299 51.9148 255.51 51.7001C255.657 51.4751 255.746 51.2176 255.77 50.9501C256.04 48.2453 256.09 45.523 255.92 42.8101C255.92 40.0801 255.92 37.34 255.92 34.61C255.92 31.88 255.92 29.4101 255.92 26.8101C255.92 25.9501 256.27 24.0801 255.85 23.3201C255.43 22.5601 254.7 22.73 254.06 22.66C253.418 22.605 252.772 22.605 252.13 22.66C251.13 22.72 250.22 22.8701 249.27 23.0101C250.51 22.6701 251.8 22.5001 253.06 22.2001C253.878 22.013 254.67 21.7275 255.42 21.35C255.902 21.1637 256.319 20.8404 256.62 20.42C256.72 20.2141 256.79 19.9954 256.83 19.7701C256.922 19.2881 256.979 18.8002 257 18.3101C257.08 16.9767 257.13 15.6267 257.15 14.2601C257.15 13.5801 257.15 12.9001 257.15 12.2601C257.15 11.8101 256.97 11.4001 256.93 10.9501C256.768 9.10818 256.043 7.36077 254.853 5.94549C253.664 4.53022 252.067 3.51574 250.28 3.04004C249.626 2.87022 248.955 2.77299 248.28 2.75006C168.233 0.163392 89.78 0.163392 12.92 2.75006C12.6087 2.73482 12.2967 2.75495 11.99 2.81006C11.68 2.89006 11.37 3.01005 11.07 3.12005C10.4356 3.33279 9.8145 3.58324 9.20998 3.87005C8.01953 4.39759 6.98598 5.22446 6.20998 6.27008C5.76998 6.88008 5.47 7.58003 5.07 8.22003C4.83796 8.50862 4.62101 8.80905 4.42001 9.12005C3.66268 10.781 2.74144 12.3622 1.67001 13.8401C0.63486 15.4251 0.17261 17.3163 0.359979 19.2001C0.529979 21.5501 0.590002 23.9201 0.790002 26.2601C1.13 30.0001 0.790004 33.74 1.23 37.49C1.21945 38.0382 1.41582 38.5702 1.77999 38.98C2.07584 39.1945 2.41872 39.3351 2.77999 39.3901L6.32998 40.16C4.86998 41.11 2.68 41.16 1.91 42.74C1.69517 43.2603 1.58309 43.8172 1.57998 44.3801C1.43998 46.3801 1.25999 48.3801 1.11999 50.3801C1.05999 51.2801 1.01 52.1701 0.980004 53.0701C0.950005 53.9701 0.879981 54.76 0.799981 55.61C0.609981 57.61 0.0999849 60.1801 0.709985 62.1201C1.31998 64.0601 3.64 64.1201 5.26 64.5301C4.84321 64.6303 4.45106 64.814 4.10729 65.0701C3.76353 65.3262 3.47531 65.6494 3.26 66.0201C3.01 66.3801 2.82999 66.75 2.58999 67.11C2.38018 67.4317 2.18983 67.7656 2.01998 68.11C1.66895 68.7818 1.39072 69.4891 1.19 70.22C1.05562 70.6723 0.975074 71.1389 0.950006 71.61C0.950006 72.06 0.949987 72.51 0.899987 72.97C0.899987 73.88 0.840001 74.7801 0.820001 75.6901C0.820001 77.5101 0.760001 79.3301 0.820001 81.1401C0.880001 82.9501 0.419997 84.6101 1.16 86.3401C1.82329 87.9006 2.91393 89.242 4.3063 90.2098C5.69867 91.1775 7.33612 91.7323 9.02999 91.8101C86.2833 95.2034 164.793 95.2034 244.56 91.8101C246.675 91.7172 248.69 90.8815 250.25 89.4501C251.009 88.8255 251.682 88.1024 252.25 87.3C252.92 86.25 253.55 85.1801 254.14 84.0801C255.45 81.3101 257.24 78.3501 257 75.2601Z" fill="url(#paint0_linear_53_30)"/>
<path d="M248.27 84.9301C168.51 88.2635 90 88.2635 12.74 84.9301C11.0272 84.8593 9.37096 84.2975 7.96853 83.3117C6.5661 82.3259 5.47663 80.9577 4.82998 79.3701C4.2987 77.9923 4.09005 76.5111 4.22 75.0401C4.22981 74.7796 4.27008 74.5212 4.33999 74.2701C4.48997 73.8943 4.60708 73.5062 4.69 73.1101C4.69 72.8901 4.74 72.6801 4.76 72.4601C4.89 71.2901 4.92999 70.1001 5.02999 68.9301C5.08339 68.2553 5.19377 67.5863 5.35998 66.9301C5.52169 66.203 5.92323 65.5515 6.49999 65.0801C9.04999 63.1801 14.02 63.2001 17.72 63.0801C18.44 63.0801 19.11 63.0801 19.72 63.0001C21.33 62.8901 22.93 62.8601 24.56 62.8701C20.7353 62.858 16.9185 62.5235 13.15 61.8701C11.37 61.5701 9.58999 61.1801 7.83999 60.7301C7.40306 60.6306 6.97751 60.4865 6.57 60.3001C6.01636 60.0873 5.56062 59.6779 5.29 59.1501C5.12553 58.6787 5.06413 58.1773 5.10998 57.6801C5.10998 57.2101 5.05998 56.6801 5.10998 56.2401C5.10998 55.2401 5.27 54.2401 5.38 53.2401C5.48 52.4301 5.56999 51.6102 5.61999 50.7802C5.74999 48.6002 5.88999 46.4201 6.05999 44.2501C6.03555 43.5867 6.2443 42.9356 6.64999 42.4101C6.93502 42.1479 7.2775 41.9561 7.64999 41.8501C8.62165 41.489 9.62649 41.2244 10.65 41.0601C11.12 40.9701 11.65 40.9701 12.1 40.8401C12.6051 40.665 13.1285 40.5476 13.66 40.4901L30.55 38.4901L32.55 38.2601C24.06 37.2601 15.55 36.1701 7.07 35.1401L5.95001 35.0001C5.61482 34.9975 5.29044 34.8811 5.02999 34.6701C5.02999 34.6701 5.03001 34.6701 4.98001 34.6701C4.83112 34.4339 4.75464 34.1593 4.76 33.8801C4.37 29.2901 4.80998 24.5501 4.54998 19.8801C4.54998 19.6201 4.46 18.3201 4.38 16.8801C4.27 14.7501 4.12999 12.3101 4.05999 12.3101C3.969 11.1012 4.1232 9.88643 4.5133 8.73859C4.90341 7.59075 5.52139 6.53354 6.33016 5.63043C7.13894 4.72733 8.12184 3.99695 9.21987 3.48309C10.3179 2.96924 11.5084 2.68252 12.72 2.64014C89.52 -0.02653 167.973 -0.02653 248.08 2.64014C249.297 2.67958 250.493 2.96555 251.596 3.48071C252.7 3.99588 253.687 4.72952 254.498 5.63727C255.31 6.54502 255.929 7.608 256.317 8.76184C256.706 9.91568 256.857 11.1364 256.76 12.3501C256.62 14.1001 256.97 15.7801 256.55 17.5401C256.483 17.9579 256.295 18.3471 256.01 18.6601C255.712 18.8725 255.37 19.016 255.01 19.0801L252.1 19.7901C250.83 20.1162 249.541 20.36 248.24 20.5201C240.52 21.3468 232.807 22.1768 225.1 23.0101C224.89 23.0101 224.69 23.0101 224.48 23.0701L223.74 23.1501C224.35 23.1501 224.96 23.1501 225.58 23.1501L254.58 22.6601C254.855 22.6285 255.132 22.6883 255.37 22.8301C255.589 23.0478 255.714 23.3418 255.72 23.6501C255.749 24.0496 255.749 24.4506 255.72 24.8501C255.72 26.0701 255.49 27.2601 255.49 28.5101C255.49 29.7601 255.76 30.6901 255.74 31.8101C255.74 33.4301 255.67 35.0701 255.6 36.7301C255.45 40.4501 255.19 44.2201 254.78 47.9401C254.769 48.4854 254.595 49.0148 254.28 49.4601C253.967 49.7458 253.59 49.9517 253.18 50.0601C252.933 50.1545 252.679 50.2281 252.42 50.2802C246.75 51.9002 240.52 50.6101 234.69 51.6201C234.306 51.6732 233.926 51.7467 233.55 51.8401L233.16 51.9301C233.64 51.9301 234.11 51.9901 234.59 52.0401C240.97 52.5001 247.333 53.1401 253.68 53.9601C254.053 53.9572 254.422 54.0302 254.766 54.1746C255.11 54.319 255.421 54.5318 255.68 54.8001C255.966 55.2963 256.089 55.8702 256.03 56.4401V58.3201C256.03 60.2101 256.03 62.1201 256.12 64.0101C256.24 66.5201 256.39 69.0101 256.56 71.5201C256.63 72.7501 256.71 73.9801 256.8 75.2001C256.899 76.4033 256.756 77.6142 256.377 78.7607C255.999 79.9073 255.394 80.9659 254.598 81.8738C253.802 82.7816 252.832 83.5201 251.745 84.0452C250.658 84.5702 249.476 84.8712 248.27 84.9301Z" fill="url(#paint1_linear_53_30)"/>
<path d="M255.79 31.8601C255.79 33.4801 255.72 35.1201 255.65 36.7801C252.38 37.0701 249.17 37.3301 246.03 37.6801L243.84 37.9201C241.127 38.2001 238.42 38.4568 235.72 38.6901L231.65 39.0301C230.79 39.1001 230.01 39.4401 229.16 39.5401C227.939 39.5561 226.718 39.4725 225.51 39.2901C224.19 39.2101 222.86 39.1901 221.51 39.2001C218.836 39.2436 216.166 39.4238 213.51 39.7401C208.21 40.3501 202.97 41.3501 197.71 42.2301C189.29 43.6401 180.8 44.7001 172.29 45.4201C176.926 45.8823 181.529 46.6371 186.07 47.6801C184.37 47.8201 182.67 47.9401 180.96 48.0501C175.55 48.3801 170.13 48.5601 164.71 48.6501C159.29 48.7401 153.86 48.7401 148.43 48.7301C143 48.7201 137.58 48.7301 132.16 48.7301C126.74 48.7301 121.31 48.8901 115.9 49.1501C113.19 49.2801 110.48 49.4401 107.78 49.6501L105.78 49.8201C104.96 49.8901 104.17 50.1201 103.34 50.2201C96.87 50.9701 90.42 51.9201 84.03 53.2201C74.1 55.2201 64.13 57.0801 54.03 57.7801L48.55 58.1201C39.85 59.8701 30.46 60.2301 21.93 61.2801C19.03 61.6401 16.07 61.8301 13.11 61.9501C11.33 61.6501 9.55002 61.2601 7.80002 60.8101C7.36309 60.7106 6.93754 60.5665 6.53003 60.3801C5.97639 60.1673 5.52065 59.7579 5.25003 59.2301C5.08556 58.7586 5.02418 58.2573 5.07004 57.7601C5.07004 57.2901 5.02004 56.7601 5.07004 56.3201C5.07004 55.3201 5.23003 54.3201 5.34003 53.3201C13.15 52.6801 21.15 50.4101 28.67 49.3201C38.32 47.9501 48.14 47.1201 57.86 46.5801C68.86 45.9801 79.86 47.2801 90.86 47.2801C101.03 47.2801 111.18 46.3901 121.29 45.5801C141.01 43.9801 160.713 42.3134 180.4 40.5801C176.113 40.5068 171.827 40.3968 167.54 40.2501C162.08 40.0601 156.62 39.8101 151.17 39.5301C149.894 39.3986 148.61 39.3719 147.33 39.4501C146.025 39.5918 144.712 39.6486 143.4 39.6201C140.797 39.5776 138.208 39.2422 135.68 38.6201C134.2 38.2501 132.73 37.7901 131.23 37.5201C128.666 37.205 126.081 37.0947 123.5 37.1901C113.86 37.0601 104.36 34.5101 94.72 34.6101C92.19 34.6101 89.66 34.8501 87.14 35.0701C84.46 35.3101 81.78 35.5601 79.09 35.6301C77.8951 35.7309 76.6923 35.6805 75.51 35.4801C74.5735 35.3416 73.6253 35.298 72.68 35.3501L67.79 35.2301C64.5234 35.1634 61.26 35.1201 58 35.1001C45.63 35.0401 33.29 35.7301 20.92 35.6301C15.6188 35.6874 10.3199 35.3833 5.06003 34.7201C5.06003 34.7201 5.06004 34.7201 5.01004 34.7201C4.86115 34.4839 4.78467 34.2093 4.79004 33.9301C4.40004 29.3401 4.84002 24.6001 4.58002 19.9301C4.58002 19.6701 4.49003 18.3701 4.41003 16.9301C10.72 16.3901 17.08 16.2401 23.41 15.7801C35.76 14.8701 48.12 14.4801 60.52 14.5301C85.1 14.6501 109.61 16.2201 134.12 18.0801C158.63 19.9401 183.12 22.2401 207.6 23.9801C220 24.8501 232.4 25.3901 244.82 25.3901C248.46 25.3901 252.13 25.1701 255.82 24.8901C255.82 26.1101 255.59 27.3001 255.59 28.5501C255.59 29.8001 255.81 30.7401 255.79 31.8601ZM256.18 64.0601C256.09 62.1701 256.09 60.2601 256.09 58.3701C248.27 57.5201 240.43 56.6501 232.55 56.1101C219.048 55.2934 205.511 55.2167 192 55.8801C189.18 56.0001 186.42 56.0601 183.63 56.4201L179.63 56.9201C174.243 57.5534 168.84 58.0768 163.42 58.4901C161.307 58.6501 159.193 58.7934 157.08 58.9201L173.5 58.8001L189.93 58.6801L198.14 58.6201H202.24C202.822 58.6503 203.405 58.6201 203.98 58.5301C204.33 58.4501 204.66 58.3101 204.98 58.2601C206.258 58.1787 207.541 58.2222 208.81 58.3901L212.88 58.6201C215.6 58.7868 218.313 58.9734 221.02 59.1801C225.3 59.5001 229.573 59.8534 233.84 60.2401C238.5 60.6701 243.13 61.2401 247.76 61.7701C237.23 62.7701 226.76 63.7701 216.16 64.4001C191.88 65.7401 167.58 67.4001 143.26 66.9501C119.26 66.4701 95.34 65.0901 71.34 65.1801C58.6734 65.2201 46.0367 65.4268 33.43 65.8001C24.12 66.0701 14.67 66.0201 5.37003 66.9801C5.20381 67.6362 5.09343 68.3053 5.04004 68.9801C4.94004 70.1501 4.90002 71.3401 4.77002 72.5101C15.13 72.9401 25.62 72.2301 35.95 72.2101C48.6167 72.2101 61.2533 72.3401 73.86 72.6001C97.81 73.1701 121.73 74.5001 145.68 74.9201C170.04 75.3601 194.36 73.6101 218.68 72.3901C231.21 71.7601 243.83 71.7401 256.38 71.6101H256.64C256.45 69.0601 256.3 66.5701 256.18 64.0601Z" fill="url(#paint2_linear_53_30)"/>
<path d="M6.28 57.5598C6.20922 58.5063 6.30743 59.4578 6.57001 60.3698C6.01637 60.157 5.56063 59.7476 5.29001 59.2198C5.12554 58.7483 5.06414 58.2471 5.10999 57.7498C5.10999 57.2798 5.05999 56.7498 5.10999 56.3098C5.17999 54.4698 5.52 52.6698 5.62 50.8398C5.75 48.6598 5.89 46.4798 6.06 44.3098C6.03556 43.6464 6.24431 42.9953 6.65 42.4698C6.93503 42.2076 7.27751 42.0158 7.65 41.9098C8.62166 41.5487 9.62651 41.2841 10.65 41.1198C11.12 41.0298 11.65 41.0298 12.1 40.8998C12.6052 40.7247 13.1285 40.6073 13.66 40.5498L30.55 38.5498L12.41 42.1998C11.23 42.4398 9.66002 42.4298 8.67002 43.1998C8.47215 43.3644 8.28817 43.545 8.12 43.7398C7.98336 43.9243 7.83295 44.0981 7.67002 44.2598C7.37995 44.5862 7.18002 44.9825 7.09 45.4098C6.69075 46.5676 6.45841 47.7765 6.4 48.9998C6.4 49.4598 6.39999 49.9198 6.32999 50.3798C6.32999 50.4898 6.33 50.6098 6.28 50.7198C6.24377 50.8404 6.19694 50.9575 6.14002 51.0698C5.87071 52.0231 5.82281 53.0252 6.00001 53.9998C6.05001 54.3398 6.17 54.6698 6.24 54.9998C6.35062 55.8489 6.36405 56.7077 6.28 57.5598Z" fill="#EB924D"/>
<path d="M224.47 23.1498L223.47 23.0898H225.1C224.88 23.0998 224.68 23.1298 224.47 23.1498Z" fill="#EB924D"/>
<path d="M230 51.2598C231.57 51.4098 233.14 51.5497 234.71 51.6697C234.326 51.7228 233.946 51.7963 233.57 51.8898C232.4 51.6698 231.2 51.4498 230 51.2598Z" fill="#EB924D"/>
<path d="M253.19 48.9299C253.385 47.9419 253.422 46.9294 253.3 45.9299C253.16 44.0699 253.01 42.1999 252.87 40.3399C252.898 40.1791 252.886 40.0138 252.836 39.8587C252.785 39.7035 252.697 39.563 252.58 39.4496C252.462 39.3362 252.319 39.2532 252.162 39.208C252.005 39.1627 251.84 39.1565 251.68 39.1899L244.68 39.4199C247.211 39.1997 249.681 38.522 251.97 37.4199C252.656 37.1769 253.222 36.6791 253.55 36.0299C253.658 35.6773 253.702 35.3081 253.68 34.9399C253.536 31.8865 253.235 28.8426 252.78 25.8199C251.68 24.7699 250.03 24.6299 248.52 24.5399L230.21 23.4199C228.76 23.3199 227.12 23.2699 225.57 23.1999L254.57 22.7099C254.845 22.6783 255.122 22.738 255.36 22.8799C255.579 23.0975 255.704 23.3915 255.71 23.6999C255.75 25.3221 255.69 26.9451 255.53 28.5599C255.53 29.6599 255.8 30.7399 255.78 31.8599C255.69 37.1299 255.41 42.6199 254.78 47.9899C254.769 48.5351 254.595 49.0645 254.28 49.5099C253.967 49.7956 253.59 50.0014 253.18 50.1099C252.933 50.2042 252.679 50.2778 252.42 50.3299C252.786 49.9322 253.05 49.4518 253.19 48.9299Z" fill="#EB924D"/>
<path d="M4.56997 20.0002C4.56997 19.3702 4.18995 12.4102 4.07995 12.4102C3.98896 11.2013 4.14315 9.98652 4.53326 8.83868C4.92336 7.69085 5.54135 6.63363 6.35012 5.73053C7.1589 4.82743 8.1418 4.09705 9.23983 3.58319C10.3379 3.06934 11.5284 2.78261 12.74 2.74023C89.54 0.0735676 167.993 0.0735676 248.1 2.74023C249.317 2.77968 250.513 3.06564 251.616 3.58081C252.72 4.09598 253.707 4.82968 254.518 5.73743C255.33 6.64518 255.949 7.7081 256.337 8.86194C256.726 10.0158 256.877 11.2365 256.78 12.4503C256.64 14.2003 256.99 15.8803 256.57 17.6403C256.503 18.0581 256.315 18.4473 256.03 18.7603C255.732 18.9726 255.39 19.1161 255.03 19.1802C254.03 19.4102 253.11 19.6802 252.14 19.8802C253.077 19.1559 253.825 18.2159 254.32 17.1403C254.515 16.4429 254.443 15.698 254.12 15.0502C253.787 13.9856 253.622 12.8757 253.63 11.7603C253.57 10.3503 253.83 8.31024 252.7 7.18024C251.819 6.31897 250.806 5.60337 249.7 5.06024C246.991 3.90986 244.072 3.33766 241.13 3.38025H240.69C235.355 3.1435 230.01 3.26039 224.69 3.73022C224.04 3.80022 223.48 3.98022 222.85 4.10022C222.016 4.16826 221.178 4.14147 220.35 4.02026C218.54 3.93026 216.73 3.85027 214.91 3.78027C211.29 3.64027 207.663 3.54691 204.03 3.50024C201.31 3.50024 198.59 3.50024 195.87 3.50024H188.33H181.46H181H170.11H164.67C163.815 3.58036 162.955 3.58036 162.1 3.50024C161.27 3.35024 160.6 2.85026 159.72 2.77026C158.924 2.74344 158.128 2.78695 157.34 2.90027C155.34 3.06027 153.34 3.24027 151.4 3.46027C150.492 3.45427 149.613 3.78159 148.93 4.38025C148.754 4.63297 148.549 4.8645 148.32 5.07025C147.77 5.47025 147 5.21022 146.32 4.98022C145.033 4.52417 143.684 4.26785 142.32 4.22021C141.1 4.22021 139.88 4.38024 138.65 4.31024C137.886 4.23315 137.128 4.10621 136.38 3.93024C133.353 3.46237 130.301 3.17854 127.24 3.08026C124.99 2.92026 122.75 2.80021 120.5 2.72021C113.24 2.46021 105.97 2.60022 98.72 2.91022C95.09 3.06022 91.4599 3.26021 87.8299 3.47021C86.1208 3.70616 84.3934 3.78319 82.67 3.70026C82.2 3.64026 81.75 3.45023 81.28 3.36023C80.7836 3.28657 80.281 3.26311 79.78 3.29022H73.78C71.42 3.29022 69.06 3.29022 66.69 3.29022C65.89 3.29022 65.12 3.45027 64.34 3.46027C63.56 3.47027 62.92 3.30024 62.21 3.31024C60.7109 3.31663 59.2272 3.61202 57.84 4.18024C57.3261 4.44811 56.7591 4.5984 56.18 4.62024C55.13 4.56024 54.39 3.56023 53.44 3.11023C51.16 2.02023 48.81 4.11024 46.49 3.25024C45.3321 2.93014 44.1284 2.80843 42.93 2.89026C41.38 2.89026 39.83 2.89026 38.28 2.89026C33.01 2.89026 27.75 3.10024 22.51 3.62024C19.9 3.89024 17.3 4.24026 14.71 4.70026C13.47 4.92026 12.19 5.30025 10.93 5.44025C10.5778 5.4439 10.2328 5.54046 9.92996 5.72021C8.38996 6.81021 4.12998 12.8502 7.16998 14.9802C7.36447 15.1117 7.57228 15.2223 7.78997 15.3102C8.11997 15.4502 8.45997 15.5002 8.78997 15.6202C9.16757 15.6806 9.55236 15.6806 9.92996 15.6202H12.53C13.4511 15.5707 14.3745 15.6583 15.27 15.8802L9.34997 17.0803C8.70198 17.185 8.06792 17.3627 7.45996 17.6102C7.35544 17.6529 7.24863 17.6896 7.13998 17.7202C6.71908 17.9446 6.40308 18.3253 6.25997 18.7803C5.85997 19.7803 6.10997 20.9602 5.93997 22.0402C5.78225 24.0234 5.86958 26.0184 6.19998 27.9802C6.43998 30.4502 6.73995 32.9202 7.10995 35.3702L5.98995 35.2302C5.80643 35.2361 5.62357 35.2055 5.45193 35.1403C5.28029 35.0751 5.12328 34.9765 4.98995 34.8502C4.84107 34.614 4.76459 34.3394 4.76995 34.0602C4.38995 29.3302 4.82997 24.5902 4.56997 20.0002Z" fill="#EB924D"/>
<path d="M256.86 75.2498C256.593 71.5165 256.367 67.7865 256.18 64.0598C256.06 61.5398 256.09 59.0598 256.09 56.4898C256.149 55.9199 256.026 55.346 255.74 54.8498C255.481 54.5815 255.17 54.3687 254.826 54.2243C254.482 54.0799 254.113 54.0069 253.74 54.0098C247.4 53.2032 241.037 52.5632 234.65 52.0898C240.34 53.1898 246.2 54.5898 251.65 56.0898C252.65 56.3898 252.78 57.2098 253.22 58.2098C253.579 59.2476 253.745 60.3423 253.71 61.4398C253.747 61.894 253.703 62.3511 253.58 62.7898C253.119 63.724 252.312 64.4416 251.33 64.7898L253.39 65.3698C253.556 65.4058 253.71 65.4813 253.84 65.5898C253.968 65.7488 254.038 65.946 254.04 66.1498C254.192 67.9892 254.218 69.8368 254.12 71.6798C254.12 72.8498 254.12 74.0298 254.12 75.1998C254.163 75.5374 254.23 75.8716 254.32 76.1998C254.421 76.8699 254.367 77.5544 254.16 78.1998C253.728 79.5775 252.83 80.7618 251.62 81.5498C249.55 82.8998 246.98 83.1698 244.52 83.3498C240.41 83.6498 236.28 83.6198 232.19 84.0098C230.83 84.1198 229.48 84.2498 228.12 84.3698C225.41 84.5798 222.69 84.7898 219.98 84.9698C214.84 85.3165 209.7 85.5731 204.56 85.7398C192.4 86.1498 180.22 86.1198 168.04 86.0498H163.61C162.42 86.0498 161.29 86.2098 160.11 86.0498C157.252 85.9329 154.389 86.1172 151.57 86.5998C148.26 86.9698 144.7 87.0098 141.84 85.2998C141.021 84.6289 140.043 84.1811 139 83.9998C138.12 84.0843 137.271 84.3719 136.52 84.8398C134.984 85.5361 133.347 85.9849 131.67 86.1698H131.58C128.092 86.5198 124.578 86.5198 121.09 86.1698C118.49 85.9998 115.76 86.4298 113.28 85.5198C111.37 84.8098 109.36 83.8098 107.39 84.3498C106.71 84.5892 106.042 84.8629 105.39 85.1698C104.07 85.6205 102.685 85.8535 101.29 85.8598L98.69 85.9698C95.0634 86.0898 91.44 86.0698 87.82 85.9098C86.2923 85.9331 84.7675 85.7686 83.28 85.4198C82.2617 85.2347 81.2183 85.2347 80.2 85.4198C75.8 85.6998 71.38 85.7698 66.98 85.6198C65.18 85.5598 63.38 85.4698 61.59 85.3298C60.71 85.2698 59.8 85.1098 58.92 85.1098C58.33 85.1098 57.77 85.3098 57.16 85.3098C53.51 85.3098 49.86 85.2398 46.21 85.1998L27.48 85.0098C23.21 85.5898 19.65 84.8598 15.41 84.0798C11.95 83.4398 8.18 82.0798 6.74 78.8198C6.19946 77.458 5.97715 75.9907 6.09001 74.5298C6.125 74.1006 6.125 73.6691 6.09001 73.2398C6.04001 72.8498 5.89 72.4798 5.83 72.0898C5.74917 70.7013 5.93242 69.31 6.37001 67.9898C6.49588 67.3262 6.78451 66.7043 7.21 66.1798C7.65605 65.7458 8.20752 65.4357 8.81001 65.2798C10.387 64.8417 12.0135 64.6065 13.65 64.5798L20.71 64.1698L22.12 64.0998C22.0643 63.8671 22.0341 63.6291 22.03 63.3898V63.2898L17.72 63.2198C14.02 63.2998 9.05001 63.2798 6.50001 65.2198C5.37001 66.0698 5.16001 67.6498 5.03001 69.0598C4.90001 70.4698 4.88001 71.8598 4.69001 73.2398C4.6071 73.6359 4.48998 74.024 4.34001 74.3998C4.2701 74.6509 4.22983 74.9093 4.22001 75.1698C4.09006 76.6408 4.29872 78.122 4.83 79.4998C5.47664 81.0874 6.56612 82.4556 7.96855 83.4414C9.37098 84.4272 11.0272 84.989 12.74 85.0598C89.9933 88.4598 168.503 88.4598 248.27 85.0598C249.488 85.0093 250.684 84.7117 251.784 84.1851C252.884 83.6585 253.865 82.9139 254.668 81.9965C255.472 81.0791 256.08 80.008 256.457 78.8482C256.834 77.6884 256.971 76.4642 256.86 75.2498Z" fill="#EB924D"/>
<path d="M18.34 47.7198C18.34 48.7198 18.34 49.7798 18.44 50.8098C18.44 51.3298 18.49 51.8098 18.53 52.3598C18.5268 52.7447 18.5535 53.1292 18.61 53.5098C18.6892 53.8047 18.7427 54.1058 18.77 54.4098L18.9 57.0398L19.14 62.3098C19.25 64.5598 19.36 66.7998 19.46 69.0498C19.4601 70.2473 19.7849 71.4224 20.4 72.4499C20.53 72.6499 20.65 72.8598 20.8 73.0498C21.0353 73.3668 21.3537 73.6126 21.72 73.7598C23.1466 74.3364 24.6427 74.723 26.17 74.9098C28.4905 75.2278 30.8281 75.4049 33.17 75.4398C63.89 76.5298 94.63 77.6198 125.35 76.8598C129.11 76.7598 133 76.6598 136.48 78.0698C134.9 75.2298 131.05 74.8198 127.79 74.7398C93.65 73.9698 59.48 73.0998 25.45 70.2498C24.507 70.2813 23.5842 69.9725 22.85 69.3798C22.4193 68.861 22.1361 68.2358 22.03 67.5698C20.2872 60.5152 19.9373 53.1884 21 45.9998C21.096 45.5557 21.1529 45.104 21.17 44.6499C21.17 44.1999 21.1 43.7399 21.1 43.2799C21.0817 42.3252 21.1185 41.3703 21.21 40.4198C21.07 40.1998 20.76 40.1998 20.5 40.2298L18.56 40.4298C18.5883 41.0443 18.5615 41.6601 18.48 42.2699C18.4602 42.456 18.4602 42.6437 18.48 42.8299C18.4933 43.2505 18.4766 43.6716 18.43 44.0899C18.43 44.6999 18.37 45.3098 18.35 45.9198C18.33 46.5298 18.34 47.1298 18.34 47.7198Z" fill="#EB924D"/>
<path d="M137.78 78.4101C138.16 77.4101 139.43 77.2801 140.47 77.2601L165.28 76.7701L188.72 76.3001C191.23 76.3001 193.92 76.3001 196.01 77.6601L195.87 76.7501C196.739 76.5516 197.629 76.4609 198.52 76.4801C199.022 76.4627 199.521 76.3957 200.01 76.2801C201.17 76.1201 202.34 76.0701 203.5 76.0101C209.93 75.7301 216.37 75.6401 222.8 75.3101C224.43 75.2201 226.05 75.1201 227.67 75.0001C229.29 74.8801 230.9 74.7901 232.5 74.5601C232.72 74.5005 232.944 74.457 233.17 74.4301L234.07 74.3701C235.717 74.2723 237.334 73.89 238.85 73.2401C239.815 72.8335 240.685 72.2307 241.405 71.4697C242.125 70.7088 242.678 69.8065 243.03 68.8201C243.268 67.9225 243.392 66.9986 243.4 66.0701C243.59 61.8236 243.53 57.5695 243.22 53.3301C243 53.1201 242.47 53.5001 242.4 53.8001C241.616 56.8787 241.035 60.0054 240.66 63.1601C240.43 65.0301 240.23 67.0201 239.07 68.5001C237.91 69.9801 235.67 70.75 233.67 71.22C223 73.68 212 73.9301 201 74.1601L170.43 74.8001C161.95 74.5101 153.25 75.8601 144.81 74.9501C142.457 74.5346 140.062 74.417 137.68 74.6001C137.503 74.6054 137.333 74.6727 137.2 74.7901C137.12 74.8952 137.068 75.0192 137.05 75.1501C136.964 76.2852 137.218 77.42 137.78 78.4101Z" fill="#EB924D"/>
<path d="M243.1 60.43C243.1 56.82 243.05 53.23 243.02 49.62L242.94 39.24C243.05 35.0699 242.93 30.8968 242.58 26.74C242.431 25.9272 242.338 25.1054 242.3 24.28C242.308 23.1154 242.044 21.965 241.53 20.92C240.798 19.3317 239.841 17.8567 238.69 16.54C236.22 13.62 232.69 13.54 228.98 13.33C225.1 13.17 221.23 13.33 217.37 13.33L204.37 13.26L188.6 13.11L172.8 12.95L164.89 12.87C164.34 12.8248 163.786 12.845 163.24 12.93C162.913 13.0372 162.579 13.1207 162.24 13.18C161 13.2185 159.761 13.0805 158.56 12.77C158.722 10.0573 159.198 7.37262 159.98 4.77002C158.907 7.46919 157.665 10.0978 156.26 12.64C156.186 12.8079 156.064 12.9504 155.91 13.05C155.727 13.1033 155.533 13.1033 155.35 13.05C154.944 13.007 154.54 12.9436 154.14 12.86C153.208 12.7063 152.262 12.6627 151.32 12.73L139.13 12.66C131.13 12.66 123.13 12.66 115.13 12.66C106.57 12.73 98.0001 12.66 89.4201 12.58H82.4201C81.4371 12.528 80.4515 12.5816 79.48 12.74C78.3949 12.8849 77.2952 12.8849 76.21 12.74C75.6358 12.7524 75.07 12.5997 74.58 12.3C74.1644 11.9121 73.8634 11.4174 73.71 10.87L72.46 7.58002C72.5251 8.85914 72.6553 10.1341 72.85 11.4C72.92 11.81 72.94 12.34 72.57 12.54C72.4445 12.5989 72.3086 12.6329 72.1701 12.64C71.7146 12.7198 71.2507 12.74 70.79 12.7C69.9163 12.5715 69.0322 12.528 68.15 12.57C58.46 12.57 48.76 12.57 39.05 12.57C33.61 12.57 20.54 9.78997 18.76 17.16C18.5652 18.1954 18.4648 19.2464 18.46 20.3C18.27 23.49 18.39 26.69 18.46 29.88C18.6 40.44 18.8934 50.9867 19.34 61.52C19.4 63.14 19.4701 64.76 19.6701 66.37C19.8301 67.65 19.75 69.31 20.75 70.3C21.07 70.6366 21.3673 70.9941 21.6401 71.37C22.2711 72.1414 23.0766 72.7516 23.99 73.15C26.0071 73.9811 28.1685 74.4058 30.35 74.4C37.39 74.74 44.4267 75.0233 51.46 75.25C58.4934 75.4767 65.5734 75.6667 72.7001 75.82C79.7734 75.9467 86.85 76.0367 93.93 76.09C100.36 76.09 106.78 76.15 113.2 76.16H123.04C126.58 76.16 130.86 75.07 134.11 76.75C135.754 77.5857 137.079 78.9383 137.88 80.6C137.755 79.2671 137.792 77.924 137.99 76.6C140.558 76.2304 143.146 76.02 145.74 75.97C146.86 75.97 147.94 76.12 149.06 76.11H153.01C158.283 76.07 163.55 76.0233 168.81 75.97L178.6 75.86C185.68 75.7867 192.757 75.6166 199.83 75.35L203.65 75.21C213.41 74.8167 223.16 74.24 232.9 73.48C233.73 73.41 234.53 73.33 235.3 73.19C236.564 72.9787 237.753 72.4449 238.75 71.64C240.034 70.6226 241.148 69.4073 242.05 68.04C243.46 65.57 243.13 63 243.1 60.43ZM237.84 65.33C237.213 66.219 236.458 67.0108 235.6 67.68C235.249 67.9467 234.829 68.1095 234.39 68.15C233.778 68.2623 233.161 68.3391 232.54 68.38C223.19 69.12 213.42 69.69 203.54 70.1L199.75 70.24C192.32 70.51 185.42 70.67 178.64 70.74C158.5 70.99 138.64 71.12 119.64 71.12C111.113 71.12 102.583 71.0933 94.05 71.04C87.05 71.04 79.9001 70.91 72.8901 70.77C65.8801 70.63 58.75 70.45 51.72 70.21C44.69 69.97 37.6101 69.69 30.6701 69.36C29.1316 69.3679 27.6042 69.1004 26.16 68.57C25.9811 68.4937 25.8157 68.389 25.6701 68.26C25.4401 67.95 25.17 67.6 24.83 67.26C24.83 67.08 24.83 66.87 24.83 66.69C24.83 66.51 24.77 66.02 24.73 65.69C24.57 64.33 24.5 62.93 24.44 61.24C24 50.82 23.7 40.24 23.56 29.74V27.97C23.51 25.38 23.46 22.97 23.61 20.52C23.61 20.24 23.61 19.96 23.61 19.67C23.6056 19.1944 23.6424 18.7193 23.72 18.25C23.88 17.6 25.72 16.93 29.47 16.93C31.33 16.93 33.31 17.08 35.06 17.22C36.56 17.34 37.98 17.45 39.19 17.45C47.8567 17.49 56.5234 17.5067 65.19 17.5H70C76.4934 17.5 82.98 17.5233 89.46 17.57H95.72C100.287 17.61 104.86 17.6333 109.44 17.64C111.36 17.64 113.3 17.64 115.23 17.64C120.05 17.64 124.88 17.58 129.7 17.58C146.05 17.58 162.7 17.77 178.83 17.94C191.48 18.08 204.55 18.21 217.37 18.26H218H221.37H224.65C226.25 18.26 227.57 18.26 228.77 18.33H228.89C232.37 18.49 233.98 18.66 234.89 19.78C235.732 20.7316 236.432 21.7992 236.97 22.95C237.193 23.344 237.313 23.7875 237.32 24.24C237.323 25.0851 237.4 25.9283 237.55 26.76C237.55 26.96 237.62 27.17 237.64 27.37C237.922 30.3612 238.029 33.3663 237.96 36.37C237.96 37.37 237.96 38.37 237.96 39.37L238.13 60.52C238.13 60.99 238.13 61.42 238.13 61.86C238.294 63.0238 238.195 64.2095 237.84 65.33Z" fill="url(#paint3_linear_53_30)"/>
<path d="M18.43 41.04L24.22 39.8901L23.99 39.3301L17.97 40.05L18.43 41.04Z" fill="#EB924D"/>
<path d="M236.62 23.7501L243.35 24.3V22.79L236.07 23.11L236.62 23.7501Z" fill="#EB924D"/>
<path d="M237.09 52.71L244.53 54.13L244.37 52.95L236.38 52.23L237.09 52.71Z" fill="#EB924D"/>
<path d="M215.31 46.35C209.64 43.18 200.23 44.16 195.74 48.43C195.052 49.1082 194.507 49.9162 194.134 50.8072C193.761 51.6981 193.569 52.6543 193.569 53.62C193.569 54.5857 193.761 55.5418 194.134 56.4328C194.507 57.3238 195.052 58.1318 195.74 58.81C202.28 64.69 213.74 62.18 217.92 54.89L218.15 54.68C221.32 51.82 219.07 47.06 215.31 46.35Z" fill="#EB924D"/>
<path d="M216.65 43.5599C210.99 40.3899 201.57 41.37 197.09 45.64C196.401 46.3175 195.854 47.1252 195.481 48.0163C195.107 48.9073 194.915 49.8638 194.915 50.83C194.915 51.7961 195.107 52.7525 195.481 53.6436C195.854 54.5346 196.401 55.3425 197.09 56.02C203.63 61.9 215.09 59.3899 219.26 52.0999L219.5 51.89C222.67 49 220.41 44.2699 216.65 43.5599Z" fill="url(#paint4_linear_53_30)"/>
<path d="M215.31 45.3599C209.64 42.1899 200.23 43.1699 195.74 47.4299C195.052 48.1089 194.506 48.9178 194.133 49.8096C193.76 50.7014 193.569 51.6583 193.569 52.6249C193.569 53.5915 193.76 54.5484 194.133 55.4402C194.506 56.332 195.052 57.1409 195.74 57.8199C202.28 63.6999 213.74 61.1899 217.92 53.8999L218.15 53.6899C221.32 50.8299 219.07 46.0699 215.31 45.3599Z" fill="url(#paint5_linear_53_30)"/>
<path d="M193.78 34.6801C190.2 32.6801 184.27 33.3001 181.44 35.9901C181.004 36.4157 180.657 36.9243 180.421 37.4859C180.184 38.0475 180.062 38.6507 180.062 39.2601C180.062 39.8694 180.184 40.4727 180.421 41.0342C180.657 41.5958 181.004 42.1044 181.44 42.5301C185.56 46.2501 192.8 44.6601 195.44 40.0701L195.59 39.9301C197.57 38.1301 196.15 35.1301 193.78 34.6801Z" fill="#EB924D"/>
<path d="M194.62 32.9198C191.05 30.9198 185.11 31.5398 182.28 34.2298C181.846 34.6569 181.502 35.1659 181.267 35.7273C181.032 36.2887 180.911 36.8912 180.911 37.4998C180.911 38.1084 181.032 38.711 181.267 39.2723C181.502 39.8337 181.846 40.3428 182.28 40.7698C186.41 44.4898 193.65 42.8998 196.28 38.3098L196.43 38.1698C198.42 36.3698 197 33.3698 194.62 32.9198Z" fill="url(#paint6_linear_53_30)"/>
<path d="M193.78 34.0502C190.2 32.0502 184.27 32.6702 181.44 35.3602C181.004 35.7867 180.657 36.2962 180.42 36.8586C180.184 37.421 180.062 38.025 180.062 38.6352C180.062 39.2454 180.184 39.8494 180.42 40.4118C180.657 40.9742 181.004 41.4836 181.44 41.9102C185.56 45.6202 192.8 44.0402 195.44 39.4402L195.59 39.3102C197.57 37.5002 196.15 34.5002 193.78 34.0502Z" fill="url(#paint7_linear_53_30)"/>
<path d="M48 53.8798C44.42 51.8798 38.49 52.4998 35.66 55.1898C35.2249 55.617 34.8793 56.1267 34.6434 56.689C34.4075 57.2513 34.286 57.855 34.286 58.4648C34.286 59.0746 34.4075 59.6782 34.6434 60.2405C34.8793 60.8029 35.2249 61.3125 35.66 61.7398C39.78 65.4498 47.03 63.8698 49.66 59.2698L49.81 59.1298C51.75 57.3298 50.33 54.3298 48 53.8798Z" fill="#EB924D"/>
<path d="M48.81 52.12C45.23 50.12 39.3 50.74 36.47 53.43C36.0337 53.8566 35.687 54.366 35.4503 54.9284C35.2136 55.4908 35.0917 56.0948 35.0917 56.705C35.0917 57.3152 35.2136 57.9192 35.4503 58.4816C35.687 59.044 36.0337 59.5534 36.47 59.98C40.59 63.69 47.83 62.11 50.47 57.51L50.62 57.37C52.6 55.57 51.18 52.57 48.81 52.12Z" fill="url(#paint8_linear_53_30)"/>
<path d="M48 53.2602C44.42 51.2602 38.49 51.8702 35.66 54.5602C35.2249 54.9875 34.8793 55.4971 34.6434 56.0594C34.4075 56.6217 34.286 57.2254 34.286 57.8352C34.286 58.445 34.4075 59.0487 34.6434 59.611C34.8793 60.1733 35.2249 60.683 35.66 61.1102C39.78 64.8202 47.03 63.2402 49.66 58.6402L49.81 58.5102C51.75 56.7002 50.33 53.7102 48 53.2602Z" fill="url(#paint9_linear_53_30)"/>
<path d="M238.74 46.1598C238.72 52.7213 238.353 59.2772 237.64 65.7998C237.53 66.6641 237.119 67.462 236.479 68.0528C235.839 68.6437 235.01 68.9897 234.14 69.0299C165.52 73.4099 96.62 74.0798 27.99 69.6598C27.1095 69.6119 26.275 69.2511 25.637 68.6424C24.9989 68.0337 24.5993 67.2172 24.51 66.3399C23.41 53.4299 22.27 39.6898 22.81 26.6798C22.88 24.5998 23 22.5299 23.18 20.5099C23.2782 19.6116 23.7035 18.7809 24.3748 18.176C25.046 17.5711 25.9164 17.2343 26.82 17.2298C100.06 15.1798 169 15.2299 233.6 18.7099C234.449 18.742 235.26 19.0659 235.898 19.627C236.536 20.1882 236.96 20.9521 237.1 21.7898C238.232 29.8631 238.78 38.0076 238.74 46.1598Z" fill="url(#paint10_linear_53_30)"/>
<path d="M237.47 45.7398C237.21 46.4798 236.97 47.2298 236.74 47.9798C236.038 50.3171 235.514 52.7038 235.17 55.1198C234.97 56.3172 234.85 57.5265 234.81 58.7398C234.81 59.1098 234.91 59.4698 234.93 59.8398C234.935 60.0449 234.915 60.2498 234.87 60.4498C234.87 60.6598 234.74 60.8598 234.67 61.0698C234.6 61.2798 234.01 62.4998 234.12 62.6998C231.89 58.8098 232.12 54.0798 231.93 49.6198C231.74 45.1598 230.7 40.2198 226.93 37.6198C224.41 35.8998 221.17 35.6198 218.1 35.3698C156.33 30.6898 94 28.5998 32 28.9998C31.57 30.1498 31.17 31.3098 30.8 32.4698C30.24 34.2364 29.74 36.0198 29.3 37.8198C29.08 38.7198 28.88 39.6298 28.7 40.5298C28.4598 41.3678 28.3123 42.2296 28.26 43.0998C28.2798 43.3561 28.2798 43.6135 28.26 43.8698C28.1897 44.2996 28.0894 44.724 27.96 45.1398C27.74 46.0398 27.57 46.9598 27.43 47.8698C27.29 48.7798 27.2 49.7198 27.14 50.6398C27.0651 51.5483 27.0651 52.4613 27.14 53.3698C26.99 51.9498 26.83 50.5298 26.68 49.1098L25.45 37.6198C25.24 35.6998 25.04 33.7798 24.83 31.8698C24.8387 31.1125 24.6959 30.3611 24.41 29.6598C24.2816 29.4487 24.1413 29.2451 23.99 29.0498C23.5228 28.2887 23.1213 27.4891 22.79 26.6598C22.86 24.5798 22.98 22.5098 23.16 20.4898C23.2582 19.5915 23.6835 18.7608 24.3548 18.1559C25.026 17.551 25.8964 17.2143 26.8 17.2098C100.04 15.1598 168.98 15.2098 233.58 18.6898C234.429 18.722 235.24 19.0459 235.878 19.607C236.516 20.1682 236.94 20.9321 237.08 21.7698C237.55 25.0898 237.92 28.4298 238.18 31.7698C238.28 33.0198 238.37 34.2698 238.44 35.5298C238.562 36.6923 238.598 37.862 238.55 39.0298C238.45 40.0298 238.76 40.9498 238.61 41.9398C238.388 43.0706 238.053 44.1762 237.61 45.2398L237.47 45.7398Z" fill="#FFDF80"/>
<path d="M233.91 65.4199C213.77 66.7099 193.78 67.6499 174.11 68.2499C159.977 68.6766 146.03 68.9299 132.27 69.0099C131.917 69.0299 131.563 69.0299 131.21 69.0099C128.62 69.0099 126.06 69.0099 123.5 69.0099C91.13 69.0099 59.09 68.0099 28.26 66.0099C27.1 52.4899 25.82 37.31 26.72 23.46C26.72 22.56 26.83 21.67 26.91 20.78C59.91 19.9 90.03 19.4399 118.91 19.4399C132.737 19.4399 146.157 19.5433 159.17 19.7499C159.38 19.7499 159.58 19.7499 159.79 19.7499L163.31 19.7999C175.383 20.0199 187.157 20.3366 198.63 20.7499C210.46 21.1399 222.01 21.65 233.39 22.27C233.99 26.36 234.39 30.58 234.66 34.9C235.273 45.0762 235.022 55.2861 233.91 65.4199Z" fill="url(#paint11_linear_53_30)"/>
<path d="M234.66 35C234.663 36.7061 234.546 38.4102 234.31 40.1C233.59 48.56 213.88 47.52 208.22 47.87C157.45 50.99 105.83 48.58 55.05 46.28C47.66 45.95 40.28 45.51 32.88 45.14C27.44 44.86 27.88 40.32 27.54 36.2C27.2 32.08 26.92 27.77 26.72 23.54C26.72 22.64 26.83 21.75 26.91 20.86C59.91 19.98 90.03 19.52 118.91 19.52C160.37 19.52 197.81 20.46 233.39 22.37C234 26.41 234.4 30.63 234.66 35Z" fill="url(#paint12_linear_53_30)"/>
<path style="mix-blend-mode:screen" d="M198.63 20.7998C195.02 21.5198 191.87 22.3898 189.63 25.4498C183.316 34.2314 177.798 43.5583 173.14 53.3198C171.93 55.8698 170.77 58.5198 170.73 61.3198C170.73 63.7998 171.91 66.8398 174.06 68.2398C159.927 68.6665 145.98 68.9198 132.22 68.9998C136.61 68.8295 140.799 67.1155 144.05 64.1598C147.72 61.0098 150.4 56.9098 153 52.8898C156.453 47.5565 159.903 42.2465 163.35 36.9598C164.952 34.749 166.21 32.3078 167.08 29.7198C167.509 28.4296 167.642 27.0593 167.469 25.7107C167.296 24.3621 166.821 23.0697 166.08 21.9298C165.359 20.991 164.394 20.2681 163.29 19.8398C175.377 20.0665 187.157 20.3865 198.63 20.7998Z" fill="url(#paint13_linear_53_30)"/>
<defs>
<linearGradient id="paint0_linear_53_30" x1="197.28" y1="-137.64" x2="152.6" y2="-17.3899" gradientUnits="userSpaceOnUse">
<stop stop-color="#CF5C2B"/>
<stop offset="1" stop-color="#59173E"/>
</linearGradient>
<linearGradient id="paint1_linear_53_30" x1="146.48" y1="-40.5999" x2="105.74" y2="174.26" gradientUnits="userSpaceOnUse">
<stop stop-color="#CF5C2B"/>
<stop offset="1" stop-color="#59173E"/>
</linearGradient>
<linearGradient id="paint2_linear_53_30" x1="145.82" y1="-33.9198" x2="93.5801" y2="232.86" gradientUnits="userSpaceOnUse">
<stop stop-color="#CF5C2B"/>
<stop offset="1" stop-color="#59173E"/>
</linearGradient>
<linearGradient id="paint3_linear_53_30" x1="135.39" y1="118.48" x2="131.93" y2="59.78" gradientUnits="userSpaceOnUse">
<stop stop-color="#CF5C2B"/>
<stop offset="1" stop-color="#59173E"/>
</linearGradient>
<linearGradient id="paint4_linear_53_30" x1="217.9" y1="22.8699" x2="203.63" y2="61.02" gradientUnits="userSpaceOnUse">
<stop stop-color="#CF5C2B"/>
<stop offset="1" stop-color="#59173E"/>
</linearGradient>
<linearGradient id="paint5_linear_53_30" x1="265.77" y1="-86.0503" x2="142.62" y2="199.69" gradientUnits="userSpaceOnUse">
<stop stop-color="#CF5C2B"/>
<stop offset="1" stop-color="#59173E"/>
</linearGradient>
<linearGradient id="paint6_linear_53_30" x1="195.41" y1="19.8698" x2="186.41" y2="43.9298" gradientUnits="userSpaceOnUse">
<stop stop-color="#CF5C2B"/>
<stop offset="1" stop-color="#59173E"/>
</linearGradient>
<linearGradient id="paint7_linear_53_30" x1="225.6" y1="-48.8298" x2="147.93" y2="131.4" gradientUnits="userSpaceOnUse">
<stop stop-color="#CF5C2B"/>
<stop offset="1" stop-color="#59173E"/>
</linearGradient>
<linearGradient id="paint8_linear_53_30" x1="49.6" y1="39.07" x2="40.59" y2="63.13" gradientUnits="userSpaceOnUse">
<stop stop-color="#CF5C2B"/>
<stop offset="1" stop-color="#59173E"/>
</linearGradient>
<linearGradient id="paint9_linear_53_30" x1="79.79" y1="-29.6297" x2="2.11006" y2="150.6" gradientUnits="userSpaceOnUse">
<stop stop-color="#CF5C2B"/>
<stop offset="1" stop-color="#59173E"/>
</linearGradient>
<linearGradient id="paint10_linear_53_30" x1="130.71" y1="14.2398" x2="130.71" y2="40.7698" gradientUnits="userSpaceOnUse">
<stop stop-color="#FFCA2B"/>
<stop offset="1" stop-color="#D15B24"/>
</linearGradient>
<linearGradient id="paint11_linear_53_30" x1="130.7" y1="86.11" x2="130.7" y2="45.8899" gradientUnits="userSpaceOnUse">
<stop stop-color="#FFCE3B"/>
<stop offset="1" stop-color="#CC6923"/>
</linearGradient>
<linearGradient id="paint12_linear_53_30" x1="130.7" y1="81.17" x2="130.7" y2="27.15" gradientUnits="userSpaceOnUse">
<stop stop-color="#FF603B"/>
<stop offset="1" stop-color="#CC6923"/>
</linearGradient>
<linearGradient id="paint13_linear_53_30" x1="207.78" y1="-42.2501" x2="144.05" y2="88.9599" gradientUnits="userSpaceOnUse">
<stop stop-color="#F2DE6D"/>
<stop offset="1"/>
</linearGradient>
</defs>
</svg>
